<svg width="33" height="24" viewBox="0 0 33 24" fill="none" xmlns="http://www.w3.org/2000/svg">
<g clip-path="url(#clip0_349_2196)">
<path fill-rule="evenodd" clip-rule="evenodd" d="M15.1928 14.1366C15.7377 13.4483 16.7055 13.2361 17.4558 13.6532L21.1295 15.5469C22.0965 16.0305 22.4131 17.2514 21.8176 18.1589L20.281 20.4923C19.8021 21.2232 18.9703 21.646 18.0952 21.596C17.2928 21.5501 16.45 21.4421 15.8722 21.293C13.1372 20.5795 10.3333 18.8869 7.97324 16.5268C5.61318 14.1668 3.92058 11.3629 3.20668 8.62631C3.06938 8.09426 2.99608 7.50012 2.90413 6.42486C2.85328 5.56048 3.26411 4.73187 3.98601 4.25892L6.32302 2.70093C7.22967 2.10594 8.45064 2.42249 8.93024 3.38183L10.8272 7.04299C11.2257 7.81151 11.0241 8.76924 10.3404 9.31044L9.03683 10.3243C9.71215 11.5248 10.3079 12.3225 11.269 13.269C12.1928 14.1929 13.022 14.8189 14.1579 15.4631L15.1928 14.1366ZM19.278 19.8335L20.8148 17.4997C21.0186 17.1892 20.9126 16.7801 20.5863 16.6169L16.8895 14.711C16.6451 14.5753 16.3195 14.6467 16.1363 14.8781L14.4784 17.0031L14.0328 16.7641C12.5621 15.9755 11.5476 15.2447 10.4237 14.1208C9.25769 12.9724 8.57221 12.0047 7.73617 10.4488L7.49629 10.0023L7.89635 9.69116L9.59964 8.3664C9.82704 8.18638 9.89673 7.85537 9.76183 7.59521L7.86085 3.92619C7.70098 3.60645 7.29194 3.5004 6.98503 3.70179L4.64764 5.26003C4.28341 5.49867 4.07629 5.9164 4.1009 6.33838C4.18561 7.32664 4.25432 7.88355 4.36822 8.32493C5.0253 10.8437 6.60649 13.463 8.82177 15.6783C11.037 17.8936 13.6564 19.4748 16.1736 20.1315C16.6612 20.2573 17.4327 20.3562 18.1636 20.398C18.6089 20.4234 19.0326 20.208 19.278 19.8335Z" fill="#007548"/>
</g>
<defs>
<clipPath id="clip0_349_2196">
<rect width="32" height="24" fill="white" transform="translate(0.5)"/>
</clipPath>
</defs>
</svg>
