<?xml version="1.0" standalone="no"?>
<!DOCTYPE svg PUBLIC "-//W3C//DTD SVG 1.1//EN" "http://www.w3.org/Graphics/SVG/1.1/DTD/svg11.dtd" >
<svg xmlns="http://www.w3.org/2000/svg">
<metadata>
Created by FontPrep 20130207 at Wed Jul  2 11:47:42 2014
 By Steaw
Copyright All Rights Reserved BNP Paribas Company.
</metadata>
<defs>
<font id="3f929ca0c0de4f949c237642a468ee25" horiz-adv-x='1024' >
  <font-face 
    font-family="BNPPType"
    font-weight="400"
    font-stretch="normal"
    units-per-em="2048"
    panose-1="2 0 8 3 5 0 0 2 0 3"
    ascent="1638"
    descent="-410"
    x-height="1014"
    cap-height="1325"
    bbox="-174 -623 2386 2126"
    underline-thickness="102"
    underline-position="-102"
    unicode-range="U+0020-FB02"
  />
<missing-glyph horiz-adv-x="614" 
 />
    <glyph glyph-name="fi" unicode="fi" horiz-adv-x="1165" 
d="M184 0v834h-170v180h170v82q0 135 72 222t170 119q98 31 255 31t300 -49l-16 -192q-156 57 -308 57q-252 0 -251 -176v-94h591v-1014h-204v834h-387v-834h-222z" />
    <glyph glyph-name="fl" unicode="fl" horiz-adv-x="1269" 
d="M885 0v1446h219v-1446h-219zM184 0v834h-170v180h170v92q0 186 106 275t279 89q72 0 168 -20l-28 -182q-70 16 -144 16q-75 0 -117 -36t-42 -126v-108h278v-180h-278v-834h-222z" />
    <glyph glyph-name=".notdef" horiz-adv-x="614" 
 />
    <glyph glyph-name=".null" horiz-adv-x="0" 
 />
    <glyph glyph-name="nonmarkingreturn" horiz-adv-x="681" 
 />
    <glyph glyph-name="space" unicode=" " horiz-adv-x="552" 
 />
    <glyph glyph-name="exclam" unicode="!" horiz-adv-x="563" 
d="M135 121q0 69 39 107t107 38q69 0 107 -38t38 -106q0 -67 -38 -105q-38 -37 -106 -37t-108 36q-39 36 -39 105zM385 408h-207l-24 917h256z" />
    <glyph glyph-name="quotedbl" unicode="&#x22;" horiz-adv-x="880" 
d="M504 1386h272l-53 -475h-166zM102 1386h273l-53 -475h-166z" />
    <glyph glyph-name="numbersign" unicode="#" horiz-adv-x="1347" 
d="M541 793l-41 -238h293l41 238h-293zM449 1325h188l-64 -344h295l62 344h203l-64 -344h227l-32 -188h-228l-41 -238h226l-33 -190h-227l-64 -365h-203l66 365h-293l-66 -365h-188l63 365h-225l33 190h227l41 238h-227l33 188h227z" />
    <glyph glyph-name="dollar" unicode="$" 
d="M502 1495h155v-235q135 -10 295 -70l-41 -213q-39 29 -149 53t-205 25q-176 0 -176 -86q0 -45 29 -73t108 -71l309 -170q158 -88 158 -268q0 -139 -88 -218t-240 -99v-277h-155v268q-205 10 -377 107l57 199q166 -101 374 -101t208 99q0 43 -28 71t-89 64l-315 172
q-84 45 -133 118t-49 156q0 285 352 314v235z" />
    <glyph glyph-name="percent" unicode="%" horiz-adv-x="1679" 
d="M1434 340q0 109 -48 160t-104 51q-55 0 -103 -51q-49 -51 -49 -160t48 -160t104 -51t104 51t48 160zM1618 340q0 -184 -96 -272t-240 -88t-240 88t-96 272t96 272t240 88t240 -88t96 -272zM549 987q0 109 -48 160q-47 51 -103 51t-104 -51t-48 -160t48 -160t103 -51
t104 51q48 51 48 160zM733 987q0 -184 -96 -272q-95 -88 -239 -88t-240 88t-97 272q1 185 97 273t239 88t240 -88q96 -89 96 -273zM1192 1325h194l-899 -1325h-194z" />
    <glyph glyph-name="ampersand" unicode="&#x26;" horiz-adv-x="1329" 
d="M465 1022q0 -104 117 -205q186 74 186 211q0 61 -41 96t-113 35q-72 1 -110 -35t-39 -102zM1214 575q0 -193 -90 -323q135 -145 242 -252h-287l-108 113q-88 -70 -173 -102t-214 -31q-221 0 -352 103q-130 103 -130 273q0 131 70 219t201 156q-72 76 -109 138t-37 147
q-1 137 101 233q102 97 288 97t291 -90q104 -90 105 -226q0 -219 -281 -360l234 -256q31 78 30 161h219zM350 365q0 -101 73 -147t197 -46t209 90l-309 328q-170 -84 -170 -225z" />
    <glyph glyph-name="quotesingle" unicode="'" horiz-adv-x="471" 
d="M98 1386h273l-54 -475h-186z" />
    <glyph glyph-name="parenleft" unicode="(" horiz-adv-x="655" 
d="M131 528q0 524 277 918h219q-295 -453 -295 -919t295 -918h-219q-277 395 -277 919z" />
    <glyph glyph-name="parenright" unicode=")" horiz-adv-x="655" 
d="M524 528q0 -524 -276 -919h-219q295 453 295 919t-295 918h219q276 -394 276 -918z" />
    <glyph glyph-name="asterisk" unicode="*" horiz-adv-x="819" 
d="M117 1198l225 -100l-37 227h205l-35 -227l225 100l60 -172l-246 -45l174 -166l-145 -127l-135 203l-134 -203l-145 127l170 166l-242 45z" />
    <glyph glyph-name="plus" unicode="+" 
d="M113 748h346v329h207v-329h346v-191h-346v-330h-207v330h-346v191z" />
    <glyph glyph-name="comma" unicode="," horiz-adv-x="512" 
d="M172 256h254l-207 -530h-201z" />
    <glyph glyph-name="hyphen" unicode="-" horiz-adv-x="819" 
d="M141 657h537v-202h-537v202z" />
    <glyph glyph-name="hyphen" unicode="&#xad;" horiz-adv-x="819" 
d="M141 657h537v-202h-537v202z" />
    <glyph glyph-name="period" unicode="." horiz-adv-x="512" 
d="M401 122q1 -67 -37 -105q-38 -37 -107 -37t-107 36t-39 105q0 69 39 107q38 38 106 38t106 -38t39 -106z" />
    <glyph glyph-name="slash" unicode="/" horiz-adv-x="819" 
d="M629 1438h190l-631 -1532h-188z" />
    <glyph glyph-name="zero" unicode="0" 
d="M561 184q273 0 279 475q0 182 -52 318q-29 76 -87 120t-140 44t-140 -44t-86 -120q-50 -136 -50 -316t50 -314q28 -75 86 -119t140 -44zM561 -20q-244 0 -378 186t-134 492t131 496t383 192q252 0 382 -184t130 -481q0 -298 -120 -490q-59 -97 -161 -154t-233 -57z" />
    <glyph glyph-name="one" unicode="1" 
d="M145 0v193h353v907l-353 -105v199l373 131h209v-1132h299v-193h-881z" />
    <glyph glyph-name="two" unicode="2" 
d="M512 1346q221 0 352 -100t131 -288q1 -141 -67 -242t-205 -229l-297 -270h590v-217h-897v168l442 461q96 100 142 170q47 71 47 157t-64 136t-170 49q-193 0 -336 -97l-41 207q152 95 373 95z" />
    <glyph glyph-name="three" unicode="3" 
d="M510 1346q223 0 353 -96t130 -285q-1 -109 -67 -185t-162 -98q116 -24 188 -102t72 -218q0 -188 -145 -285t-371 -97t-406 106l56 207q168 -109 356 -109q264 0 264 190t-258 197h-178v193h152q110 0 182 47t72 141t-64 142t-170 47q-195 0 -338 -97l-41 207
q152 95 375 95z" />
    <glyph glyph-name="four" unicode="4" 
d="M698 500v622l-415 -622h415zM924 1325v-825h157v-205h-157v-295h-226v295h-661v197l555 833h332z" />
    <glyph glyph-name="five" unicode="5" 
d="M373 1104v-277q29 2 92 2q264 0 406 -106q143 -106 143 -308t-144 -319q-144 -116 -372 -116q-230 0 -410 106l53 207q168 -109 359 -109q132 0 200 58t68 155q0 229 -367 230q-113 0 -239 -19v717h799v-221h-588z" />
    <glyph glyph-name="six" unicode="6" 
d="M570 184q120 0 182 62t63 168q0 104 -62 164t-175 59q-160 0 -273 -113q6 -158 76 -249q69 -91 189 -91zM61 662q0 182 49 318q86 243 313 330q99 38 214 38q223 0 383 -84l-53 -209q-150 86 -315 86q-165 1 -261 -101t-96 -301q125 99 315 99t320 -111
q129 -111 129 -301t-124 -318q-123 -128 -355 -128t-376 174t-143 508z" />
    <glyph glyph-name="seven" unicode="7" 
d="M90 1325h938v-168l-579 -1157h-261l594 1124h-692v201z" />
    <glyph glyph-name="eight" unicode="8" 
d="M566 1149q-91 0 -153 -37q-63 -37 -63 -104t40 -103q40 -37 69 -53t42 -24t48 -24q35 -17 47 -24q188 78 188 215q0 80 -63 117q-64 37 -155 37zM330 355q0 -83 66 -131t168 -48q103 0 168 45t65 121t-57 122t-214 128q-100 -50 -148 -102t-48 -135zM566 -20
q-206 0 -344 105t-138 275q0 207 242 326q-222 115 -222 297t134 273q134 92 330 92q198 0 326 -90t128 -265q0 -203 -229 -315q125 -63 187 -132t62 -186q0 -178 -135 -279t-341 -101z" />
    <glyph glyph-name="nine" unicode="9" 
d="M456 184q166 0 258 98q91 98 91 296q-121 -92 -309 -92t-316 107q-129 108 -129 300t131 322q131 131 365 131q235 0 365 -168t130 -486t-143 -516q-143 -197 -430 -196q-207 -1 -375 83l53 197q143 -76 309 -76zM548 1141q-118 0 -188 -65q-70 -66 -70 -174t68 -164
q66 -56 187 -56q65 0 139 26t119 72q-1 154 -69 258t-186 103z" />
    <glyph glyph-name="colon" unicode=":" horiz-adv-x="512" 
d="M100 889q0 69 39 107t107 38t106 -38t39 -106q0 -67 -38 -105q-39 -37 -107 -37t-107 36t-39 105zM100 121q0 69 39 107t107 38t106 -38t39 -106q0 -67 -38 -105q-39 -37 -107 -37t-107 36t-39 105z" />
    <glyph glyph-name="semicolon" unicode=";" horiz-adv-x="512" 
d="M100 889q0 69 39 107t107 38t106 -38t39 -106q0 -67 -38 -105q-39 -37 -107 -37t-107 36t-39 105zM135 256h254l-207 -530h-200z" />
    <glyph glyph-name="less" unicode="&#x3c;" 
d="M113 743l899 353v-207l-643 -238l643 -237v-205l-899 350v184z" />
    <glyph glyph-name="equal" unicode="=" 
d="M113 508h899v-191h-899v191zM113 993h899v-190h-899v190z" />
    <glyph glyph-name="greater" unicode="&#x3e;" 
d="M113 1096l899 -353v-184l-899 -350v205l643 237l-643 238v207z" />
    <glyph glyph-name="question" unicode="?" horiz-adv-x="778" 
d="M215 121q0 69 39 107q38 38 106 38t107 -38t39 -106q0 -67 -38 -105q-38 -37 -107 -37t-107 36t-39 105zM341 1346q189 0 289 -85t99 -235q0 -84 -44 -164t-97 -132q-54 -52 -98 -120t-44 -115t9 -87h-201q-16 56 -16 124t40 145t88 120q128 115 128 211q0 135 -181 135
q-117 0 -231 -60l-59 179q129 84 318 84z" />
    <glyph glyph-name="at" unicode="@" horiz-adv-x="1511" 
d="M1061 580v-172q0 -37 20 -59t56 -21q71 0 105 76t34 200q0 199 -140 320q-140 120 -383 120t-379 -154t-136 -390t148 -390t406 -153q258 0 414 90l41 -125q-199 -102 -463 -102q-174 0 -310 58t-217 158q-165 205 -165 476t164 462q80 93 210 148t292 56q317 0 489 -171
t172 -405q0 -198 -82 -322t-243 -124q-113 0 -170 75q-74 -73 -198 -73t-216 83t-92 257t96 269t240 95t226 -74q81 -74 81 -208zM872 571q0 125 -120 125q-56 0 -102 -46t-46 -140t43 -140t115 -46t110 41v206z" />
    <glyph glyph-name="A" unicode="A" horiz-adv-x="1296" 
d="M631 1061l-209 -561h422zM1036 0l-118 303h-566l-116 -303h-236l530 1325h236l530 -1325h-260z" />
    <glyph glyph-name="B" unicode="B" horiz-adv-x="1206" 
d="M395 596v-403h254q119 0 176 57t58 147q0 199 -248 199h-240zM164 1325h491q185 0 317 -90t132 -246q0 -106 -53 -183t-148 -110q229 -72 230 -299q0 -177 -122 -287t-362 -110h-485v1325zM395 1133v-351h242q102 0 162 46q59 46 59 132q0 172 -240 173h-223z" />
    <glyph glyph-name="C" unicode="C" horiz-adv-x="1177" 
d="M709 1346q227 0 378 -76l-40 -211q-145 86 -321 86t-288 -116q-112 -115 -112 -367t112 -367t284 -115q171 0 343 84l53 -186q-176 -98 -426 -98t-430 180t-180 502t180 503t447 181z" />
    <glyph glyph-name="D" unicode="D" horiz-adv-x="1327" 
d="M395 1133v-940h135q119 0 198 17q186 40 242 209q32 95 32 243q-1 296 -130 388q-68 48 -146 65t-198 18h-133zM164 0v1325h407q356 0 515 -163t159 -498q0 -450 -277 -587q-156 -77 -397 -77h-407z" />
    <glyph glyph-name="E" unicode="E" horiz-adv-x="1093" 
d="M164 365v960h821v-192h-590v-328h553v-193h-553v-243q0 -176 183 -176h423v-193h-409q-227 0 -328 91q-100 92 -100 274z" />
    <glyph glyph-name="F" unicode="F" horiz-adv-x="1030" 
d="M164 0v961q0 176 98 270t293 94h403v-192h-397q-166 0 -166 -177v-200h531v-193h-531v-563h-231z" />
    <glyph glyph-name="G" unicode="G" horiz-adv-x="1355" 
d="M92 662q0 174 58 309q104 246 378 335q123 40 265 40q242 0 405 -76l-41 -211q-179 86 -371 86t-321 -120t-129 -349q0 -230 119 -362t317 -132q145 0 229 45v287h-294v193h526v-609q-225 -121 -465 -121q-288 -1 -482 177t-194 508z" />
    <glyph glyph-name="H" unicode="H" horiz-adv-x="1454" 
d="M184 0v1325h232v-547h622v547h232v-1325h-232v584h-622v-584h-232z" />
    <glyph glyph-name="I" unicode="I" horiz-adv-x="600" 
d="M184 0v1325h232v-1325h-232z" />
    <glyph glyph-name="J" unicode="J" horiz-adv-x="688" 
d="M154 186q64 0 105 39q40 39 40 133v967h225v-952q0 -393 -346 -393q-70 0 -119 10v200q31 -4 95 -4z" />
    <glyph glyph-name="K" unicode="K" horiz-adv-x="1271" 
d="M416 0h-232v1325h232v-604l497 604h291l-473 -547l359 -594h157v-166q-88 -38 -172 -38t-123 22t-82 90l-305 514l-149 -180v-426z" />
    <glyph glyph-name="L" unicode="L" horiz-adv-x="960" 
d="M393 1325v-956q0 -78 43 -127t139 -49h355v-193h-361q-225 0 -315 90t-90 275v960h229z" />
    <glyph glyph-name="M" unicode="M" horiz-adv-x="1662" 
d="M410 0h-226v1325h219l428 -684l429 684h219v-1325h-226v920l-315 -512h-213l-315 512v-920z" />
    <glyph glyph-name="N" unicode="N" horiz-adv-x="1507" 
d="M184 0v1325h222l704 -944v944h213v-1325h-211l-715 956v-956h-213z" />
    <glyph glyph-name="O" unicode="O" horiz-adv-x="1406" 
d="M326 660q0 -84 18 -162t58 -152t117 -118t173 -44q248 0 341 220q48 111 48 255q0 238 -116 374q-92 108 -263 108q-106 0 -183 -44t-117 -119t-58 -154t-18 -164zM702 -20q-288 0 -454 187t-166 491t163 496t459 192t459 -184q162 -184 162 -503q0 -390 -274 -579
q-146 -100 -349 -100z" />
    <glyph glyph-name="P" unicode="P" horiz-adv-x="1220" 
d="M414 1133v-439h250q104 0 160 66t56 154t-56 154q-56 65 -160 65h-250zM184 0v1325h482q216 0 336 -122t120 -289q0 -168 -121 -290t-337 -122h-250v-502h-230z" />
    <glyph glyph-name="Q" unicode="Q" horiz-adv-x="1406" 
d="M326 660q0 -84 18 -162t58 -152t117 -118t173 -44q248 0 341 220q48 111 48 255q0 238 -116 374q-92 108 -263 108q-106 0 -183 -44t-117 -119t-58 -154t-18 -164zM82 667q0 295 163 487t459 192t459 -184q162 -184 162 -503q0 -229 -112 -411t-322 -244l248 -297h-291
l-213 277q-260 20 -407 204q-146 184 -146 479z" />
    <glyph glyph-name="R" unicode="R" horiz-adv-x="1243" 
d="M414 1133v-437h250q104 0 159 65t55 153t-54 154q-56 65 -160 65h-250zM184 0v1325h482q216 0 336 -121t120 -286q0 -127 -71 -232q-72 -104 -207 -149l205 -353h153v-168q-163 -65 -278 -15q-49 22 -88 91l-226 412h-196v-504h-230z" />
    <glyph glyph-name="S" unicode="S" horiz-adv-x="989" 
d="M537 1141q-95 0 -147 -37t-52 -89t28 -84t91 -77l282 -201q176 -123 176 -305t-128 -275t-324 -93q-100 0 -217 34t-199 86l55 201q174 -117 372 -117t198 150q0 72 -113 151l-270 193q-195 137 -195 305t114 265q114 98 314 98t352 -76l-40 -215q-145 86 -297 86z" />
    <glyph glyph-name="T" unicode="T" horiz-adv-x="1085" 
d="M428 0v1133h-397v192h1024v-192h-398v-1133h-229z" />
    <glyph glyph-name="U" unicode="U" horiz-adv-x="1390" 
d="M1237 1325v-844q0 -252 -148 -377q-149 -124 -395 -124t-393 124t-147 377v844h233v-850q0 -121 70 -206q71 -85 237 -85t238 85t72 206v850h233z" />
    <glyph glyph-name="V" unicode="V" horiz-adv-x="1329" 
d="M549 0l-529 1325h250l402 -1034l401 1034h236l-533 -1325h-227z" />
    <glyph glyph-name="W" unicode="W" horiz-adv-x="1957" 
d="M1278 0l-303 1006l-281 -1006h-282l-381 1325h250l276 -1055l305 1055h248l317 -1055l263 1055h237l-366 -1325h-283z" />
    <glyph glyph-name="X" unicode="X" horiz-adv-x="1298" 
d="M14 0l506 698l-446 627h288l310 -453l325 453h269l-473 -639l487 -686h-281l-354 512l-362 -512h-269z" />
    <glyph glyph-name="Y" unicode="Y" horiz-adv-x="1153" 
d="M459 0v510l-459 815h256l334 -590l334 590h229l-465 -819v-506h-229z" />
    <glyph glyph-name="Z" unicode="Z" horiz-adv-x="1120" 
d="M78 0v190l684 943h-670v192h942v-190l-678 -942h691v-193h-969z" />
    <glyph glyph-name="bracketleft" unicode="[" horiz-adv-x="655" 
d="M205 1446h391v-176h-197v-1493h197v-168h-391v1837z" />
    <glyph glyph-name="backslash" unicode="\" horiz-adv-x="819" 
d="M0 1438h190l629 -1532h-188z" />
    <glyph glyph-name="bracketright" unicode="]" horiz-adv-x="655" 
d="M59 1446h392v-1837h-392v168h197v1493h-197v176z" />
    <glyph glyph-name="asciicircum" unicode="^" 
d="M776 702l-213 418l-215 -418h-205l326 623h188l326 -623h-207z" />
    <glyph glyph-name="underscore" unicode="_" horiz-adv-x="1286" 
d="M0 -102h1286v-177h-1286v177z" />
    <glyph glyph-name="grave" unicode="`" horiz-adv-x="1024" 
d="M137 1444h291l182 -270h-200z" />
    <glyph glyph-name="a" unicode="a" horiz-adv-x="1019" 
d="M645 387v45q-15 2 -101 2t-158 -38t-73 -120q0 -50 34 -78t89 -28q90 0 150 63q59 64 59 154zM479 1034q195 0 291 -90t96 -239v-705h-204v135q-35 -78 -108 -117t-157 -38q-137 0 -224 78t-87 216q0 98 45 168t122 104q140 62 320 62q43 0 80 -4v86q0 158 -204 158
q-136 0 -269 -57l-28 182q133 61 327 61z" />
    <glyph glyph-name="b" unicode="b" horiz-adv-x="1112" 
d="M367 623v-234q0 -103 54 -163t152 -60t166 84t68 265t-68 257t-158 76t-152 -60t-62 -165zM367 1446v-512q88 100 258 100q171 0 291 -128t120 -391t-135 -399t-329 -136t-310 102q-115 102 -115 297v1067h220z" />
    <glyph glyph-name="c" unicode="c" horiz-adv-x="917" 
d="M76 507q0 253 139 391t356 138q137 0 263 -45l-29 -186q-109 41 -227 41t-196 -83q-77 -83 -77 -254t83 -254t203 -83t234 51l37 -184q-143 -59 -289 -59q-219 0 -358 137t-139 390z" />
    <glyph glyph-name="d" unicode="d" horiz-adv-x="1112" 
d="M745 451v172q0 104 -63 164q-63 61 -153 61t-157 -76t-67 -257t68 -265t166 -84q206 0 206 285zM745 1446h220v-993q0 -229 -115 -351q-114 -122 -300 -122t-324 126q-70 64 -110 170t-40 242q0 258 129 387t295 129t245 -90v502z" />
    <glyph glyph-name="e" unicode="e" horiz-adv-x="1024" 
d="M948 440h-639q27 -272 295 -272q127 0 266 55l37 -184q-150 -61 -301 -62q-229 -1 -380 141q-150 142 -150 388t123 388q123 140 321 140t306 -110q106 -110 122 -312v-172zM721 612q0 236 -195 236q-92 0 -148 -66t-69 -170h412z" />
    <glyph glyph-name="f" unicode="f" horiz-adv-x="696" 
d="M184 0v834h-170v180h170v92q0 186 106 275t279 89q72 0 168 -20l-28 -182q-70 16 -144 16q-75 0 -117 -36t-42 -126v-108h278v-180h-278v-834h-222z" />
    <glyph glyph-name="g" unicode="g" horiz-adv-x="1089" 
d="M745 618q0 104 -53 166t-153 64q-100 0 -167 -84t-67 -259t77 -255t191 -80q61 0 172 39v409zM745 2v25q-106 -47 -225 -47q-186 0 -315 136t-129 378q0 306 145 424t334 117q188 -1 299 -101t111 -283v-643q0 -208 -123 -316t-326 -108q-96 0 -200 32t-173 81l62 188
q145 -111 303 -110q111 0 174 56t63 171z" />
    <glyph glyph-name="h" unicode="h" 
d="M166 0v1446h217v-516q37 47 103 76t143 28q150 0 247 -94t97 -287v-653h-219v641q0 109 -52 158t-135 49q-82 0 -133 -56t-51 -155v-637h-217z" />
    <glyph glyph-name="i" unicode="i" horiz-adv-x="552" 
d="M143 1294q0 56 36 94t97 38t99 -38q37 -38 37 -94t-37 -91q-37 -36 -99 -36t-97 36q-36 36 -36 91zM166 0v1014h219v-1014h-219z" />
    <glyph glyph-name="j" unicode="j" horiz-adv-x="552" 
d="M145 1294q0 56 35 94t97 38t100 -38q37 -38 37 -94t-37 -91q-37 -36 -99 -36t-98 36q-35 36 -35 91zM166 -45v1059h219v-1051q0 -191 -73 -285t-226 -94t-252 66l62 186q80 -49 150 -49t95 37t25 131z" />
    <glyph glyph-name="k" unicode="k" horiz-adv-x="1046" 
d="M385 0h-219v1446h219v-819l352 387h273l-392 -424q70 -96 213 -295t213 -295h-268l-309 430l-82 -88v-342z" />
    <glyph glyph-name="l" unicode="l" horiz-adv-x="550" 
d="M166 0v1446h219v-1446h-219z" />
    <glyph glyph-name="m" unicode="m" horiz-adv-x="1667" 
d="M940 0h-219v649q0 91 -52 145t-127 54t-125 -54t-50 -145v-649h-217v641q0 193 110 293t292 100t284 -123q100 123 279 123t291 -100t112 -293v-641h-220v649q0 91 -50 145t-125 54t-129 -54t-54 -145v-649z" />
    <glyph glyph-name="n" unicode="n" horiz-adv-x="1114" 
d="M557 848q-76 0 -131 -49t-55 -137v-662h-217v649q0 190 115 288q116 97 291 97t288 -89t113 -296v-649h-216v662q0 88 -56 137t-132 49z" />
    <glyph glyph-name="o" unicode="o" horiz-adv-x="1058" 
d="M760 507q0 341 -232 341t-231 -341q-1 -341 231 -341t232 341zM983 510q0 -256 -127 -394t-328 -138q-202 0 -328 138t-126 392t127 391t333 137t328 -135q121 -135 121 -391z" />
    <glyph glyph-name="p" unicode="p" horiz-adv-x="1112" 
d="M367 631v-426q107 -39 205 -39t166 80t69 257q0 177 -67 261t-168 84t-153 -58t-52 -159zM147 -391v1038q0 183 111 285t297 102q357 0 445 -268q36 -106 36 -260q0 -242 -129 -384t-315 -142q-119 0 -225 47v-418h-220z" />
    <glyph glyph-name="q" unicode="q" horiz-adv-x="1112" 
d="M745 623q0 102 -53 163q-53 62 -153 62t-167 -84t-67 -260t77 -257t191 -81q61 0 172 39v418zM965 651v-1042h-220v418q-100 -47 -223 -47q-186 0 -316 136t-130 396t140 392q140 130 334 130t304 -100q111 -100 111 -283z" />
    <glyph glyph-name="r" unicode="r" horiz-adv-x="733" 
d="M156 0v1014h219v-203q37 86 129 155t211 68v-233q-152 1 -246 -101t-94 -284v-416h-219z" />
    <glyph glyph-name="s" unicode="s" horiz-adv-x="894" 
d="M453 164q129 0 129 96q0 63 -123 134q-45 26 -61 36l-96 60q-81 50 -109 81q-61 69 -72 108q-10 38 -10 71q0 128 95 206t262 78t302 -69l-41 -195q-133 78 -266 78t-133 -92q0 -35 43 -68t115 -73q72 -41 117 -69q198 -128 198 -271q1 -144 -103 -220q-104 -75 -271 -75
t-318 96l34 186q147 -98 308 -98z" />
    <glyph glyph-name="t" unicode="t" horiz-adv-x="731" 
d="M541 -20q-158 0 -252 82t-94 253v521h-170v178h170v231l219 29v-260h260v-178h-260v-508q0 -86 43 -118t109 -32t116 6v-190q-86 -14 -141 -14z" />
    <glyph glyph-name="u" unicode="u" horiz-adv-x="1093" 
d="M547 -20q-176 0 -290 91t-114 289v654h215v-660q0 -92 50 -140t139 -48q88 0 138 48t50 140v660h215v-654q0 -200 -114 -290t-289 -90z" />
    <glyph glyph-name="v" unicode="v" horiz-adv-x="974" 
d="M373 0l-373 1014h229l273 -768l264 768h209l-361 -1014h-241z" />
    <glyph glyph-name="w" unicode="w" horiz-adv-x="1654" 
d="M715 1014h219v-649q0 -91 54 -145t129 -54t125 54t50 145v649h219v-641q1 -193 -111 -293t-291 -100t-280 122q-102 -122 -283 -122t-292 100t-111 293v641h217v-649q0 -91 50 -145t126 -54q75 0 127 54t52 145v649z" />
    <glyph glyph-name="x" unicode="x" horiz-adv-x="1015" 
d="M4 0l381 528l-340 486h252l217 -320l217 320h250l-346 -500q283 -395 371 -514h-252l-246 352l-250 -352h-254z" />
    <glyph glyph-name="y" unicode="y" horiz-adv-x="1136" 
d="M973 1014v-1006q0 -208 -123 -316t-326 -108q-96 0 -200 32t-172 81l61 188q145 -111 303 -110q111 0 174 56t64 171v25q-106 -47 -222 -47q-180 0 -284 104t-105 295v635h219v-602q0 -246 195 -246q78 0 197 41v807h219z" />
    <glyph glyph-name="z" unicode="z" horiz-adv-x="942" 
d="M88 0v160l485 663h-471v191h738v-168l-467 -656h485v-190h-770z" />
    <glyph glyph-name="braceleft" unicode="{" horiz-adv-x="655" 
d="M270 516q156 -44 156 -206q0 -78 -11 -196t-12 -177q0 -172 148 -173q41 0 86 11v-181q-57 -10 -98 -10q-154 0 -242 91t-88 270q0 73 11 187t11 168q0 114 -168 118v196q171 4 169 118q0 54 -12 169q-11 115 -11 186q0 177 88 269t242 92q41 0 98 -10v-181
q-45 10 -86 11q-147 0 -148 -172q-1 -59 11 -177t12 -197q0 -162 -156 -206z" />
    <glyph glyph-name="bar" unicode="|" horiz-adv-x="526" 
d="M164 1638h198v-2048h-198v2048z" />
    <glyph glyph-name="braceright" unicode="}" horiz-adv-x="655" 
d="M592 418q-168 -4 -168 -118q0 -54 11 -169t11 -186q0 -177 -88 -269t-241 -92q-41 0 -99 10v181q45 -10 86 -11q147 0 148 173l-23 356q0 96 37 148t119 75q-82 23 -119 75t-37 148l23 357q0 172 -148 172q-41 0 -86 -11v181q57 10 99 10q153 0 241 -91t88 -270
q0 -73 -11 -187t-11 -168q0 -114 168 -118v-196z" />
    <glyph glyph-name="asciitilde" unicode="~" 
d="M752 694q86 0 125 109l163 -70q-70 -225 -284 -225q-78 0 -213 50t-176 50q-82 0 -119 -106l-164 69q70 223 281 224q75 -1 211 -51t176 -50z" />
    <glyph glyph-name="uni00A0" unicode="&#xa0;" horiz-adv-x="348" 
 />
    <glyph glyph-name="exclamdown" unicode="&#xa1;" horiz-adv-x="563" 
d="M141 893q0 69 39 105t108 36q68 0 106 -38t38 -104q0 -67 -39 -106q-39 -38 -107 -38t-106 38q-39 38 -39 107zM184 606h207l25 -917h-256z" />
    <glyph glyph-name="cent" unicode="&#xa2;" 
d="M489 -252v275q-159 47 -251 175t-92 328t92 328q94 129 251 176v295h162v-270h15q145 0 274 -45l-29 -191q-115 41 -241 41t-205 -81q-80 -81 -80 -252t87 -252t213 -81t247 52l39 -189q-147 -59 -303 -59h-17v-250h-162z" />
    <glyph glyph-name="sterling" unicode="&#xa3;" 
d="M250 766v158q0 184 108 303q109 119 327 119t370 -84l-41 -205q-129 84 -307 84q-97 1 -157 -53t-61 -146v-176h449v-162h-449v-117q0 -207 -96 -286h643v-201h-921v170q78 55 105 128q28 73 28 187v119h-170v162h172z" />
    <glyph glyph-name="yen" unicode="&#xa5;" 
d="M444 0v553h-358v162h268l-348 610h256l313 -547l314 547h229l-352 -610h274v-162h-366v-553h-230z" />
    <glyph glyph-name="brokenbar" unicode="&#xa6;" horiz-adv-x="526" 
d="M164 1638h198v-821h-198v821zM164 412h198v-822h-198v822z" />
    <glyph glyph-name="section" unicode="&#xa7;" horiz-adv-x="1024" 
d="M311 723q0 -80 97 -137l159 -101q152 14 152 129q0 66 -96 127l-154 97q-76 -4 -117 -36t-41 -79zM844 132q0 -148 -114 -232t-286 -84q-88 0 -190 30t-174 76l49 176q156 -102 332 -102t176 131q0 66 -96 127l-281 176q-76 47 -125 119t-49 151q0 205 205 256
q-123 94 -123 236t104 227q104 86 276 86t335 -73l-37 -191q-127 84 -275 84q-86 0 -132 -33t-46 -82q0 -80 96 -137l285 -180q152 -96 152 -264q0 -197 -187 -256q105 -93 105 -241z" />
    <glyph glyph-name="dieresis" unicode="&#xa8;" horiz-adv-x="1024" 
d="M578 1309q0 49 33 80q34 31 89 31t90 -31q34 -31 34 -80t-34 -80t-90 -31t-89 31t-33 80zM201 1309q0 49 33 80q34 31 90 31t89 -32q33 -30 33 -79t-34 -80t-88 -31q-55 0 -90 31q-33 31 -33 80z" />
    <glyph glyph-name="copyright" unicode="&#xa9;" horiz-adv-x="1507" 
d="M414 660q0 196 116 292t260 96q142 0 240 -49l-33 -145q-76 37 -176 37q-99 0 -163 -56t-64 -177q0 -122 63 -176t161 -54t190 45l43 -145q-98 -60 -250 -60q-151 0 -269 98t-118 294zM754 96q248 0 402 152t155 415q0 263 -156 415q-155 152 -401 151q-246 0 -402 -152
q-156 -153 -156 -415t156 -414q154 -152 402 -152zM1425 662q0 -314 -188 -498t-483 -184t-484 183q-188 183 -188 499t188 499q188 185 484 185t483 -184q188 -184 188 -500z" />
    <glyph glyph-name="ordfeminine" unicode="&#xaa;" horiz-adv-x="675" 
d="M346 1006q-106 0 -106 -64q0 -49 51 -49q37 0 65 30t29 81q-12 2 -39 2zM545 1155v-369h-125l-6 76q-55 -88 -158 -88q-74 0 -123 45t-49 127t73 124t183 42q39 0 57 -2v31q0 76 -110 76q-74 0 -148 -27l-22 129q80 27 188 27q240 -1 240 -191z" />
    <glyph glyph-name="guillemotleft" unicode="&#xab;" horiz-adv-x="1228" 
d="M958 936h234l-324 -381l324 -383h-234l-348 383zM385 936h233l-323 -381l323 -383h-233l-348 383z" />
    <glyph glyph-name="logicalnot" unicode="&#xac;" 
d="M113 952h899v-596h-191v406h-708v190z" />
    <glyph glyph-name="registered" unicode="&#xae;" horiz-adv-x="1024" 
d="M514 1346q199 0 322 -122q122 -122 122 -321t-122 -321t-322 -123q-200 0 -322 123q-122 124 -122 322t122 320t322 122zM513 1241q-151 0 -243 -93t-92 -245t92 -246t243 -94t244 94t93 246t-93 245t-244 93zM573 981q0 49 -55 49h-57v-106h53q25 0 42 15t17 42z
M330 1130h198q80 0 131 -38t51 -112q0 -75 -69 -114l51 -88h41v-86q-41 -8 -80 -8q-68 0 -98 70l-39 77h-55v-141h-131v440z" />
    <glyph glyph-name="macron" unicode="&#xaf;" horiz-adv-x="1024" 
d="M246 1397h532v-162h-532v162z" />
    <glyph glyph-name="macron" unicode="&#x2c9;" horiz-adv-x="1024" 
d="M246 1397h532v-162h-532v162z" />
    <glyph glyph-name="degree" unicode="&#xb0;" horiz-adv-x="675" 
d="M338 1348q104 0 177 -73t73 -177t-73 -177t-177 -73t-177 73t-73 177t73 177t177 73zM338 1227q-55 0 -88 -37t-33 -92t33 -92t88 -37t88 37t33 92t-33 92t-88 37z" />
    <glyph glyph-name="plusminus" unicode="&#xb1;" 
d="M113 190h899v-190h-899v190zM113 799h346v329h207v-329h346v-191h-346v-329h-207v329h-346v191z" />
    <glyph glyph-name="twosuperior" unicode="&#xb2;" horiz-adv-x="716" 
d="M424 1116q0 68 -102 68t-172 -60l-56 152q94 70 234 70t219 -58q78 -58 78 -166q0 -49 -26 -99q-27 -50 -53 -79t-73 -72l-125 -112h287v-154h-547v117l252 258q84 84 84 135z" />
    <glyph glyph-name="threesuperior" unicode="&#xb3;" horiz-adv-x="716" 
d="M320 1184q-101 0 -193 -60l-55 152q109 70 251 70t221 -56t79 -164q0 -109 -109 -147q57 -19 91 -65t34 -105q0 -105 -86 -165q-85 -60 -229 -60t-254 63l45 150q94 -57 209 -57t114 75q0 78 -108 78h-103v139h97q98 0 98 76q-1 76 -102 76z" />
    <glyph glyph-name="acute" unicode="&#xb4;" horiz-adv-x="1024" 
d="M588 1444h291l-273 -270h-200z" />
    <glyph glyph-name="mu" unicode="&#xb5;" 
d="M166 -391v1405h201v-662q0 -96 54 -146t147 -50t146 50q52 50 52 146v662h201v-656q1 -188 -103 -283t-266 -95t-233 77v-448h-199z" />
    <glyph glyph-name="mu" unicode="&#x3bc;" 
d="M166 -391v1405h201v-662q0 -96 54 -146t147 -50t146 50q52 50 52 146v662h201v-656q1 -188 -103 -283t-266 -95t-233 77v-448h-199z" />
    <glyph glyph-name="paragraph" unicode="&#xb6;" horiz-adv-x="1292" 
d="M920 0v1325h188v-1325h-188zM774 1325v-1325h-188v502h-66q-217 0 -338 123t-121 289t121 289q121 122 336 122h256z" />
    <glyph glyph-name="periodcentered" unicode="&#xb7;" horiz-adv-x="512" 
d="M401 546q1 -67 -37 -105t-107 -38t-107 37t-39 105q0 69 39 107q38 38 106 38t106 -38t39 -106z" />
    <glyph glyph-name="periodcentered" unicode="&#x2219;" horiz-adv-x="512" 
d="M401 546q1 -67 -37 -105t-107 -38t-107 37t-39 105q0 69 39 107q38 38 106 38t106 -38t39 -106z" />
    <glyph glyph-name="cedilla" unicode="&#xb8;" horiz-adv-x="1024" 
d="M481 -479q-100 0 -168 30l41 138q47 -20 109 -21q96 0 96 58t-110 59q-35 0 -72 -4l74 219h172l-39 -100q156 -25 155 -179q0 -98 -79 -149t-179 -51z" />
    <glyph glyph-name="onesuperior" unicode="&#xb9;" horiz-adv-x="716" 
d="M92 600v143h189v412l-189 -57v151l223 76h158v-582h160v-143h-541z" />
    <glyph glyph-name="ordmasculine" unicode="&#xba;" horiz-adv-x="675" 
d="M442 1056q0 83 -30 124q-31 41 -74 41t-74 -41t-31 -124t31 -124t74 -41t74 41q30 41 30 124zM606 1056q0 -146 -74 -215t-194 -69t-195 69q-73 69 -73 215t73 215q74 69 195 69q120 0 194 -70q74 -68 74 -214z" />
    <glyph glyph-name="guillemotright" unicode="&#xbb;" horiz-adv-x="1228" 
d="M610 936h234l348 -381l-348 -383h-234l324 383zM37 936h233l348 -381l-348 -383h-233l323 383z" />
    <glyph glyph-name="onequarter" unicode="&#xbc;" horiz-adv-x="1638" 
d="M90 600v143h189v412l-189 -57v151l223 76h158v-582h160v-143h-541zM1214 1325h195l-899 -1325h-195zM1296 311v260l-159 -260h159zM1487 764v-453h82v-145h-82v-166h-191v166h-350v117l291 481h250z" />
    <glyph glyph-name="onehalf" unicode="&#xbd;" horiz-adv-x="1638" 
d="M1384 510q0 68 -102 68t-172 -60l-55 152q94 70 234 70t218 -59q78 -58 78 -165q1 -49 -25 -99t-53 -79t-73 -72l-125 -112h286v-154h-546v117l251 258q84 84 84 135zM90 600v143h189v412l-189 -57v151l223 76h158v-582h160v-143h-541zM1214 1325h195l-899 -1325h-195z
" />
    <glyph glyph-name="threequarters" unicode="&#xbe;" horiz-adv-x="1638" 
d="M359 1184q-101 0 -193 -60l-55 152q109 70 251 70t221 -56t79 -164q0 -109 -109 -147q57 -19 91 -65t34 -105q0 -105 -86 -165t-230 -60t-253 63l45 150q94 -57 208 -57t115 76q0 77 -108 77h-103v139h96q98 0 99 76q-1 76 -102 76zM1221 1325h194l-899 -1325h-194z
M1276 311v260l-160 -260h160zM1464 764v-453h86v-145h-86v-166h-188v166h-350v117l288 481h250z" />
    <glyph glyph-name="questiondown" unicode="&#xbf;" horiz-adv-x="655" 
d="M229 892q0 66 38 104t107 38q70 0 108 -37t38 -105t-39 -106t-107 -38t-106 38q-39 38 -39 106zM394 -332q-190 0 -289 85t-99 235q0 84 44 164t97 132t97 120t45 114q0 47 -8 88h200q42 -144 -23 -269q-40 -77 -88 -120q-128 -115 -128 -211q0 -135 180 -135
q117 0 231 59l60 -178q-129 -84 -319 -84z" />
    <glyph glyph-name="Agrave" unicode="&#xc0;" horiz-adv-x="1296" 
d="M250 1755h291l182 -270h-201zM631 1061l-209 -561h422zM1036 0l-118 303h-566l-116 -303h-236l530 1325h236l530 -1325h-260z" />
    <glyph glyph-name="Aacute" unicode="&#xc1;" horiz-adv-x="1296" 
d="M694 1755h291l-272 -270h-201zM631 1061l-209 -561h422zM1036 0l-118 303h-566l-116 -303h-236l530 1325h236l530 -1325h-260z" />
    <glyph glyph-name="Acircumflex" unicode="&#xc2;" horiz-adv-x="1296" 
d="M514 1755h229l215 -270h-208l-121 135l-121 -135h-209zM631 1061l-209 -561h422zM1036 0l-118 303h-566l-116 -303h-236l530 1325h236l530 -1325h-260z" />
    <glyph glyph-name="Atilde" unicode="&#xc3;" horiz-adv-x="1296" 
d="M735 1694q51 0 51 73h166q0 -117 -55 -189t-156 -71q-45 0 -121 37t-96 37q-51 0 -51 -74h-166q0 117 55 189t156 71q49 -1 123 -37t94 -36zM631 1061l-209 -561h422zM1036 0l-118 303h-566l-116 -303h-236l530 1325h236l530 -1325h-260z" />
    <glyph glyph-name="Adieresis" unicode="&#xc4;" horiz-adv-x="1296" 
d="M694 1620q0 49 34 80t89 31t89 -31t34 -80t-34 -80t-89 -31t-89 31t-34 80zM317 1620q0 49 34 80t89 31t89 -31t34 -80t-34 -80t-89 -31t-89 31t-34 80zM631 1061l-209 -561h422zM1036 0l-118 303h-566l-116 -303h-236l530 1325h236l530 -1325h-260z" />
    <glyph glyph-name="Aring" unicode="&#xc5;" horiz-adv-x="1296" 
d="M702 1634q0 31 -20 50q-20 20 -53 20t-53 -20t-21 -50q0 -31 20 -50q19 -19 53 -19t54 19t20 50zM858 1634q0 -78 -63 -127t-165 -49t-167 49q-63 49 -64 127t63 127t166 49t166 -49t64 -127zM631 1061l-209 -561h422zM1036 0l-118 303h-566l-116 -303h-236l530 1325h236
l530 -1325h-260z" />
    <glyph glyph-name="AE" unicode="&#xc6;" horiz-adv-x="1685" 
d="M756 500v569l-357 -569h357zM1577 1325v-192h-590v-328h553v-193h-553v-243q0 -176 182 -176h424v-193h-430q-211 0 -303 78t-102 235h-475l-197 -313h-260l854 1325h897z" />
    <glyph glyph-name="Ccedilla" unicode="&#xc7;" horiz-adv-x="1177" 
d="M709 1346q227 0 378 -76l-40 -211q-145 86 -321 86t-288 -116q-112 -115 -112 -367t112 -367t284 -115q171 0 343 84l53 -186q-172 -94 -399 -98l-31 -80q156 -25 156 -179q0 -98 -79 -149t-179 -51t-168 30l41 138q47 -20 108 -21q96 0 97 58q0 59 -111 59q-35 0 -72 -4
l72 217q-209 47 -340 219t-131 445q0 322 180 503t447 181z" />
    <glyph glyph-name="Egrave" unicode="&#xc8;" horiz-adv-x="1093" 
d="M225 1755h291l182 -270h-200zM164 365v960h821v-192h-590v-328h553v-193h-553v-243q0 -176 183 -176h423v-193h-409q-227 0 -328 91q-100 92 -100 274z" />
    <glyph glyph-name="Eacute" unicode="&#xc9;" horiz-adv-x="1093" 
d="M666 1755h290l-272 -270h-201zM164 365v960h821v-192h-590v-328h553v-193h-553v-243q0 -176 183 -176h423v-193h-409q-227 0 -328 91q-100 92 -100 274z" />
    <glyph glyph-name="Ecircumflex" unicode="&#xca;" horiz-adv-x="1093" 
d="M463 1755h229l215 -270h-209l-120 135l-121 -135h-209zM164 365v960h821v-192h-590v-328h553v-193h-553v-243q0 -176 183 -176h423v-193h-409q-227 0 -328 91q-100 92 -100 274z" />
    <glyph glyph-name="Edieresis" unicode="&#xcb;" horiz-adv-x="1093" 
d="M643 1620q0 49 34 80t89 31t89 -31t34 -80t-34 -80t-89 -31t-89 31t-34 80zM266 1620q0 49 34 80t89 31t89 -31t34 -80t-34 -80t-89 -31t-89 31t-34 80zM164 365v960h821v-192h-590v-328h553v-193h-553v-243q0 -176 183 -176h423v-193h-409q-227 0 -328 91
q-100 92 -100 274z" />
    <glyph glyph-name="Igrave" unicode="&#xcc;" horiz-adv-x="600" 
d="M-72 1755h291l182 -270h-200zM184 0v1325h232v-1325h-232z" />
    <glyph glyph-name="Iacute" unicode="&#xcd;" horiz-adv-x="600" 
d="M375 1755h291l-273 -270h-200zM184 0v1325h232v-1325h-232z" />
    <glyph glyph-name="Icircumflex" unicode="&#xce;" horiz-adv-x="600" 
d="M184 1755h230l215 -270h-209l-121 135l-121 -135h-209zM184 0v1325h232v-1325h-232z" />
    <glyph glyph-name="Idieresis" unicode="&#xcf;" horiz-adv-x="600" 
d="M365 1620q0 49 33 80q34 31 89 31t89 -31t34 -80t-34 -80t-88 -31q-56 0 -90 31q-33 31 -33 80zM-12 1620q0 49 34 80t89 31t89 -31t34 -80t-34 -80t-89 -31t-89 31t-34 80zM184 0v1325h232v-1325h-232z" />
    <glyph glyph-name="Eth" unicode="&#xd0;" horiz-adv-x="1327" 
d="M395 1133v-381h322v-191h-322v-368h135q119 0 198 17q186 40 242 209q32 95 32 243q-1 296 -130 388q-68 48 -146 65t-198 18h-133zM164 0v561h-156v191h156v573h407q356 0 515 -163t159 -498q0 -450 -277 -587q-156 -77 -397 -77h-407z" />
    <glyph glyph-name="Ntilde" unicode="&#xd1;" horiz-adv-x="1507" 
d="M858 1694q51 0 51 73h166q0 -117 -55 -189t-156 -71q-45 0 -122 37t-95 37q-51 0 -51 -74h-166q0 117 55 189t156 71q49 -1 123 -37t94 -36zM184 0v1325h222l704 -944v944h213v-1325h-211l-715 956v-956h-213z" />
    <glyph glyph-name="Ograve" unicode="&#xd2;" horiz-adv-x="1406" 
d="M356 1755h291l182 -270h-200zM326 660q0 -84 18 -162t58 -152t117 -118t173 -44q248 0 341 220q48 111 48 255q0 238 -116 374q-92 108 -263 108q-106 0 -183 -44t-117 -119t-58 -154t-18 -164zM702 -20q-288 0 -454 187t-166 491t163 496t459 192t459 -184
q162 -184 162 -503q0 -390 -274 -579q-146 -100 -349 -100z" />
    <glyph glyph-name="Oacute" unicode="&#xd3;" horiz-adv-x="1406" 
d="M776 1755h291l-272 -270h-201zM326 660q0 -84 18 -162t58 -152t117 -118t173 -44q248 0 341 220q48 111 48 255q0 238 -116 374q-92 108 -263 108q-106 0 -183 -44t-117 -119t-58 -154t-18 -164zM702 -20q-288 0 -454 187t-166 491t163 496t459 192t459 -184
q162 -184 162 -503q0 -390 -274 -579q-146 -100 -349 -100z" />
    <glyph glyph-name="Ocircumflex" unicode="&#xd4;" horiz-adv-x="1406" 
d="M588 1755h229l215 -270h-209l-121 135l-120 -135h-209zM326 660q0 -84 18 -162t58 -152t117 -118t173 -44q248 0 341 220q48 111 48 255q0 238 -116 374q-92 108 -263 108q-106 0 -183 -44t-117 -119t-58 -154t-18 -164zM702 -20q-288 0 -454 187t-166 491t163 496
t459 192t459 -184q162 -184 162 -503q0 -390 -274 -579q-146 -100 -349 -100z" />
    <glyph glyph-name="Otilde" unicode="&#xd5;" horiz-adv-x="1406" 
d="M809 1694q51 0 51 73h166q0 -117 -55 -189t-156 -71q-45 0 -122 37t-95 37q-51 0 -51 -74h-166q0 117 55 189t156 71q49 -1 123 -37t94 -36zM326 660q0 -84 18 -162t58 -152t117 -118t173 -44q248 0 341 220q48 111 48 255q0 238 -116 374q-92 108 -263 108
q-106 0 -183 -44t-117 -119t-58 -154t-18 -164zM702 -20q-288 0 -454 187t-166 491t163 496t459 192t459 -184q162 -184 162 -503q0 -390 -274 -579q-146 -100 -349 -100z" />
    <glyph glyph-name="Odieresis" unicode="&#xd6;" horiz-adv-x="1406" 
d="M768 1620q0 49 34 80t89 31t89 -31t34 -80t-34 -80t-89 -31t-89 31t-34 80zM391 1620q0 49 34 80t89 31t89 -31t34 -80t-34 -80t-89 -31t-89 31t-34 80zM326 660q0 -84 18 -162t58 -152t117 -118t173 -44q248 0 341 220q48 111 48 255q0 238 -116 374q-92 108 -263 108
q-106 0 -183 -44t-117 -119t-58 -154t-18 -164zM702 -20q-288 0 -454 187t-166 491t163 496t459 192t459 -184q162 -184 162 -503q0 -390 -274 -579q-146 -100 -349 -100z" />
    <glyph glyph-name="multiply" unicode="&#xd7;" 
d="M850 221l-287 287l-287 -287l-143 141q141 145 287 287l-285 287l144 141l284 -284l287 288l143 -143l-288 -289l286 -284z" />
    <glyph glyph-name="Oslash" unicode="&#xd8;" horiz-adv-x="1406" 
d="M702 1141q-366 0 -366 -518q0 -124 49 -238l559 664q-92 92 -242 92zM1071 659q0 166 -51 279l-559 -664q90 -90 241 -90q284 0 353 313q16 76 16 162zM1325 659q-1 -390 -275 -579q-146 -100 -363 -100q-218 0 -372 122l-155 -186l-99 84l164 195q-143 179 -143 473
t163 486t457 192q233 0 392 -119l153 182l99 -84l-160 -190q139 -180 139 -476z" />
    <glyph glyph-name="Ugrave" unicode="&#xd9;" horiz-adv-x="1390" 
d="M338 1755h291l182 -270h-201zM1237 1325v-844q0 -252 -148 -377q-149 -124 -395 -124t-393 124t-147 377v844h233v-850q0 -121 70 -206q71 -85 237 -85t238 85t72 206v850h233z" />
    <glyph glyph-name="Uacute" unicode="&#xda;" horiz-adv-x="1390" 
d="M762 1755h291l-273 -270h-200zM1237 1325v-844q0 -252 -148 -377q-149 -124 -395 -124t-393 124t-147 377v844h233v-850q0 -121 70 -206q71 -85 237 -85t238 85t72 206v850h233z" />
    <glyph glyph-name="Ucircumflex" unicode="&#xdb;" horiz-adv-x="1390" 
d="M578 1755h229l215 -270h-209l-121 135l-121 -135h-209zM1237 1325v-844q0 -252 -148 -377q-149 -124 -395 -124t-393 124t-147 377v844h233v-850q0 -121 70 -206q71 -85 237 -85t238 85t72 206v850h233z" />
    <glyph glyph-name="Udieresis" unicode="&#xdc;" horiz-adv-x="1390" 
d="M758 1620q0 49 34 80t89 31t89 -31t34 -80t-34 -80t-89 -31t-89 31t-34 80zM381 1620q0 49 34 80t89 31t89 -31t34 -80t-34 -80t-89 -31t-89 31t-34 80zM1237 1325v-844q0 -252 -148 -377q-149 -124 -395 -124t-393 124t-147 377v844h233v-850q0 -121 70 -206
q71 -85 237 -85t238 85t72 206v850h233z" />
    <glyph glyph-name="Yacute" unicode="&#xdd;" horiz-adv-x="1153" 
d="M655 1755h291l-272 -270h-201zM459 0v510l-459 815h256l334 -590l334 590h229l-465 -819v-506h-229z" />
    <glyph glyph-name="Thorn" unicode="&#xde;" horiz-adv-x="1220" 
d="M393 887v-438h250q104 0 161 65q56 66 56 155t-56 153t-161 65h-250zM164 0v1325h229v-246h252q215 0 336 -122q121 -123 121 -289t-121 -289t-338 -123h-250v-256h-229z" />
    <glyph glyph-name="germandbls" unicode="&#xdf;" horiz-adv-x="1095" 
d="M154 1057q0 185 110 281t281 96q170 0 272 -89t103 -235q0 -66 -28 -126t-63 -97q-90 -95 -90 -157t109 -144q45 -35 91 -76q110 -98 110 -236q1 -137 -89 -216q-90 -78 -234 -78t-243 55l31 176q100 -59 216 -59t116 104q0 81 -107 164q-45 35 -89 73q-107 92 -106 208
q1 115 88 213t87 180t-46 123t-126 40q-195 0 -195 -184v-1073h-198v1057z" />
    <glyph glyph-name="agrave" unicode="&#xe0;" horiz-adv-x="1019" 
d="M156 1444h290l183 -270h-201zM645 387v45q-15 2 -101 2t-158 -38t-73 -120q0 -50 34 -78t89 -28q90 0 150 63q59 64 59 154zM479 1034q195 0 291 -90t96 -239v-705h-204v135q-35 -78 -108 -117t-157 -38q-137 0 -224 78t-87 216q0 98 45 168t122 104q140 62 320 62
q43 0 80 -4v86q0 158 -204 158q-136 0 -269 -57l-28 182q133 61 327 61z" />
    <glyph glyph-name="aacute" unicode="&#xe1;" horiz-adv-x="1019" 
d="M584 1444h290l-272 -270h-201zM645 387v45q-15 2 -101 2t-158 -38t-73 -120q0 -50 34 -78t89 -28q90 0 150 63q59 64 59 154zM479 1034q195 0 291 -90t96 -239v-705h-204v135q-35 -78 -108 -117t-157 -38q-137 0 -224 78t-87 216q0 98 45 168t122 104q140 62 320 62
q43 0 80 -4v86q0 158 -204 158q-136 0 -269 -57l-28 182q133 61 327 61z" />
    <glyph glyph-name="acircumflex" unicode="&#xe2;" horiz-adv-x="1019" 
d="M401 1444h230l215 -270h-209l-121 135l-121 -135h-209zM645 387v45q-15 2 -101 2t-158 -38t-73 -120q0 -50 34 -78t89 -28q90 0 150 63q59 64 59 154zM479 1034q195 0 291 -90t96 -239v-705h-204v135q-35 -78 -108 -117t-157 -38q-137 0 -224 78t-87 216q0 98 45 168
t122 104q140 62 320 62q43 0 80 -4v86q0 158 -204 158q-136 0 -269 -57l-28 182q133 61 327 61z" />
    <glyph glyph-name="atilde" unicode="&#xe3;" horiz-adv-x="1019" 
d="M623 1382q51 0 51 74h166q0 -116 -56 -188t-155 -72q-45 0 -122 37t-95 37q-51 0 -52 -74h-165q0 116 55 188t156 72q49 0 123 -37t94 -37zM645 387v45q-15 2 -101 2t-158 -38t-73 -120q0 -50 34 -78t89 -28q90 0 150 63q59 64 59 154zM479 1034q195 0 291 -90t96 -239
v-705h-204v135q-35 -78 -108 -117t-157 -38q-137 0 -224 78t-87 216q0 98 45 168t122 104q140 62 320 62q43 0 80 -4v86q0 158 -204 158q-136 0 -269 -57l-28 182q133 61 327 61z" />
    <glyph glyph-name="adieresis" unicode="&#xe4;" horiz-adv-x="1019" 
d="M582 1309q0 49 33 80t89 31t90 -32q34 -30 34 -79t-34 -80t-89 -31t-90 31q-33 31 -33 80zM205 1309q0 49 34 80t89 31t89 -32q34 -30 34 -79t-34 -80t-89 -31t-89 31t-34 80zM645 387v45q-15 2 -101 2t-158 -38t-73 -120q0 -50 34 -78t89 -28q90 0 150 63q59 64 59 154z
M479 1034q195 0 291 -90t96 -239v-705h-204v135q-35 -78 -108 -117t-157 -38q-137 0 -224 78t-87 216q0 98 45 168t122 104q140 62 320 62q43 0 80 -4v86q0 158 -204 158q-136 0 -269 -57l-28 182q133 61 327 61z" />
    <glyph glyph-name="aring" unicode="&#xe5;" horiz-adv-x="1019" 
d="M590 1323q0 31 -20 50t-54 19q-33 0 -53 -18q-21 -20 -21 -51t20 -50t54 -19t54 18q20 20 20 51zM745 1323q0 -78 -63 -127q-64 -49 -166 -49t-166 49q-63 49 -63 127t63 127q64 49 166 49t166 -49t63 -127zM645 387v45q-15 2 -101 2t-158 -38t-73 -120q0 -50 34 -78
t89 -28q90 0 150 63q59 64 59 154zM479 1034q195 0 291 -90t96 -239v-705h-204v135q-35 -78 -108 -117t-157 -38q-137 0 -224 78t-87 216q0 98 45 168t122 104q140 62 320 62q43 0 80 -4v86q0 158 -204 158q-136 0 -269 -57l-28 182q133 61 327 61z" />
    <glyph glyph-name="ae" unicode="&#xe6;" horiz-adv-x="1552" 
d="M645 389v47q-15 2 -101 2t-158 -40t-73 -122q0 -50 35 -78t90 -28q90 0 149 64q58 65 58 155zM1253 612q0 236 -194 236q-93 0 -147 -66t-66 -170h407zM1477 440h-631q27 -272 291 -272q127 0 266 55l37 -184q-150 -61 -301 -62q-268 0 -404 183q-47 -82 -134 -131
t-213 -49t-214 78t-88 216q0 219 226 298q112 40 261 40q43 0 80 -4v82q0 158 -204 158q-135 0 -269 -57l-28 182q134 61 330 61t290 -108q108 108 294 108t290 -110t121 -312v-172z" />
    <glyph glyph-name="ccedilla" unicode="&#xe7;" horiz-adv-x="917" 
d="M76 508q0 252 139 390t356 138q137 0 263 -45l-29 -186q-109 41 -227 41t-196 -83q-77 -83 -77 -254t83 -254t203 -83t234 51l37 -184q-143 -59 -289 -59h-4l-30 -80q156 -25 155 -179q0 -98 -79 -149t-179 -51t-168 30l41 138q47 -20 109 -21q96 0 96 58t-111 59
q-35 0 -71 -4l78 221q-154 47 -244 175t-90 331z" />
    <glyph glyph-name="egrave" unicode="&#xe8;" horiz-adv-x="1024" 
d="M164 1444h291l182 -270h-201zM948 440h-639q27 -272 295 -272q127 0 266 55l37 -184q-150 -61 -301 -62q-229 -1 -380 141q-150 142 -150 388t123 388q123 140 321 140t306 -110q106 -110 122 -312v-172zM721 612q0 236 -195 236q-92 0 -148 -66t-69 -170h412z" />
    <glyph glyph-name="eacute" unicode="&#xe9;" horiz-adv-x="1024" 
d="M598 1444h291l-273 -270h-200zM948 440h-639q27 -272 295 -272q127 0 266 55l37 -184q-150 -61 -301 -62q-229 -1 -380 141q-150 142 -150 388t123 388q123 140 321 140t306 -110q106 -110 122 -312v-172zM721 612q0 236 -195 236q-92 0 -148 -66t-69 -170h412z" />
    <glyph glyph-name="ecircumflex" unicode="&#xea;" horiz-adv-x="1024" 
d="M393 1444h230l215 -270h-209l-121 135l-121 -135h-209zM948 440h-639q27 -272 295 -272q127 0 266 55l37 -184q-150 -61 -301 -62q-229 -1 -380 141q-150 142 -150 388t123 388q123 140 321 140t306 -110q106 -110 122 -312v-172zM721 612q0 236 -195 236q-92 0 -148 -66
t-69 -170h412z" />
    <glyph glyph-name="edieresis" unicode="&#xeb;" horiz-adv-x="1024" 
d="M573 1309q0 49 34 80t89 31t89 -32q34 -30 34 -79t-34 -80t-89 -31t-89 31t-34 80zM197 1309q0 49 33 80q34 31 89 31t90 -31q33 -31 33 -80t-34 -80t-88 -31q-56 0 -90 31q-33 31 -33 80zM948 440h-639q27 -272 295 -272q127 0 266 55l37 -184q-150 -61 -301 -62
q-229 -1 -380 141q-150 142 -150 388t123 388q123 140 321 140t306 -110q106 -110 122 -312v-172zM721 612q0 236 -195 236q-92 0 -148 -66t-69 -170h412z" />
    <glyph glyph-name="igrave" unicode="&#xec;" horiz-adv-x="552" 
d="M-96 1444h291l182 -270h-201zM174 0v1014h205v-1014h-205z" />
    <glyph glyph-name="iacute" unicode="&#xed;" horiz-adv-x="552" 
d="M354 1444h291l-272 -270h-201zM174 0v1014h205v-1014h-205z" />
    <glyph glyph-name="icircumflex" unicode="&#xee;" horiz-adv-x="552" 
d="M162 1444h229l215 -270h-209l-121 135l-120 -135h-209zM174 0v1014h205v-1014h-205z" />
    <glyph glyph-name="idieresis" unicode="&#xef;" horiz-adv-x="552" 
d="M342 1309q0 49 34 80t89 31t89 -32q34 -30 34 -79t-34 -80t-89 -31t-89 31t-34 80zM-35 1309q0 49 34 80t89 31t89 -32q34 -30 34 -79t-34 -80t-89 -31t-89 31t-34 80zM174 0v1014h205v-1014h-205z" />
    <glyph glyph-name="eth" unicode="&#xf0;" horiz-adv-x="1058" 
d="M289 487q0 -133 60 -225t179 -92t180 93q60 93 60 231t-65 216t-173 76q-241 0 -241 -299zM979 572q0 -592 -449 -592q-212 0 -332 134t-120 378t118 363q118 118 312 118q141 0 229 -76q-49 160 -108 252l-334 -62v146l262 45q-82 117 -123 168h221q31 -35 95 -125
l264 51v-145l-191 -39q156 -306 156 -616z" />
    <glyph glyph-name="ntilde" unicode="&#xf1;" horiz-adv-x="1114" 
d="M664 1382q51 0 51 74h166q1 -116 -55 -188t-156 -72q-45 0 -122 37t-95 37q-51 0 -52 -74h-165q0 116 55 188t155 72q50 0 124 -37t94 -37zM557 848q-76 0 -131 -49t-55 -137v-662h-217v649q0 190 115 288q116 97 291 97t288 -89t113 -296v-649h-216v662q0 88 -56 137
t-132 49z" />
    <glyph glyph-name="ograve" unicode="&#xf2;" horiz-adv-x="1058" 
d="M156 1444h290l183 -270h-201zM760 507q0 341 -232 341t-231 -341q-1 -341 231 -341t232 341zM983 510q0 -256 -127 -394t-328 -138q-202 0 -328 138t-126 392t127 391t333 137t328 -135q121 -135 121 -391z" />
    <glyph glyph-name="oacute" unicode="&#xf3;" horiz-adv-x="1058" 
d="M606 1444h291l-272 -270h-201zM760 507q0 341 -232 341t-231 -341q-1 -341 231 -341t232 341zM983 510q0 -256 -127 -394t-328 -138q-202 0 -328 138t-126 392t127 391t333 137t328 -135q121 -135 121 -391z" />
    <glyph glyph-name="ocircumflex" unicode="&#xf4;" horiz-adv-x="1058" 
d="M416 1444h229l215 -270h-209l-121 135l-120 -135h-209zM760 507q0 341 -232 341t-231 -341q-1 -341 231 -341t232 341zM983 510q0 -256 -127 -394t-328 -138q-202 0 -328 138t-126 392t127 391t333 137t328 -135q121 -135 121 -391z" />
    <glyph glyph-name="otilde" unicode="&#xf5;" horiz-adv-x="1058" 
d="M633 1382q51 0 51 74h166q0 -116 -55 -188t-156 -72q-45 0 -122 37t-95 37q-51 0 -51 -74h-166q0 116 55 188t156 72q49 0 123 -37t94 -37zM760 507q0 341 -232 341t-231 -341q-1 -341 231 -341t232 341zM983 510q0 -256 -127 -394t-328 -138q-202 0 -328 138t-126 392
t127 391t333 137t328 -135q121 -135 121 -391z" />
    <glyph glyph-name="odieresis" unicode="&#xf6;" horiz-adv-x="1058" 
d="M596 1309q0 49 34 80t89 31t89 -32q34 -30 34 -79t-34 -80t-89 -31t-89 31t-34 80zM219 1309q0 49 34 80t89 31t89 -32q34 -30 34 -79t-34 -80t-89 -31t-89 31t-34 80zM760 507q0 341 -232 341t-231 -341q-1 -341 231 -341t232 341zM983 510q0 -256 -127 -394t-328 -138
q-202 0 -328 138t-126 392t127 391t333 137t328 -135q121 -135 121 -391z" />
    <glyph glyph-name="divide" unicode="&#xf7;" 
d="M113 748h899v-191h-899v191zM696 1018q0 -57 -37 -90t-96 -33t-96 33t-37 90t37 90t96 33t96 -33t37 -90zM696 289q0 -57 -37 -90t-96 -33t-96 33t-37 90t37 90t96 33t96 -33t37 -90z" />
    <glyph glyph-name="oslash" unicode="&#xf8;" horiz-adv-x="1060" 
d="M528 848q-231 0 -231 -340q0 -102 20 -172l361 455q-54 57 -150 57zM760 508q0 102 -21 172l-358 -459q53 -55 147 -55q232 0 232 342zM528 1034q154 0 273 -86l102 133l94 -67l-114 -148q100 -136 100 -374t-126 -375t-329 -137q-158 0 -270 83l-106 -135l-97 72
l117 152q-98 138 -98 374t126 372t328 136z" />
    <glyph glyph-name="ugrave" unicode="&#xf9;" horiz-adv-x="1093" 
d="M176 1444h291l182 -270h-200zM547 -20q-176 0 -290 91t-114 289v654h215v-660q0 -92 50 -140t139 -48q88 0 138 48t50 140v660h215v-654q0 -200 -114 -290t-289 -90z" />
    <glyph glyph-name="uacute" unicode="&#xfa;" horiz-adv-x="1093" 
d="M627 1444h291l-273 -270h-201zM547 -20q-176 0 -290 91t-114 289v654h215v-660q0 -92 50 -140t139 -48q88 0 138 48t50 140v660h215v-654q0 -200 -114 -290t-289 -90z" />
    <glyph glyph-name="ucircumflex" unicode="&#xfb;" horiz-adv-x="1093" 
d="M434 1444h230l215 -270h-209l-121 135l-121 -135h-209zM547 -20q-176 0 -290 91t-114 289v654h215v-660q0 -92 50 -140t139 -48q88 0 138 48t50 140v660h215v-654q0 -200 -114 -290t-289 -90z" />
    <glyph glyph-name="udieresis" unicode="&#xfc;" horiz-adv-x="1093" 
d="M614 1309q0 49 34 80t89 31t89 -32q34 -30 34 -79t-34 -80t-89 -31t-89 31t-34 80zM238 1309q0 49 33 80q34 31 89 31t90 -31q34 -31 34 -80t-34 -80t-90 -31t-89 31t-33 80zM547 -20q-176 0 -290 91t-114 289v654h215v-660q0 -92 50 -140t139 -48q88 0 138 48t50 140
v660h215v-654q0 -200 -114 -290t-289 -90z" />
    <glyph glyph-name="yacute" unicode="&#xfd;" horiz-adv-x="1140" 
d="M651 1444h291l-272 -270h-201zM977 1014v-1006q0 -208 -123 -316t-326 -108q-96 0 -200 32t-172 81l61 188q145 -111 303 -110q111 0 174 56t64 171v25q-106 -47 -221 -47q-180 0 -285 104q-104 104 -105 295v635h220v-602q0 -246 194 -246q78 0 197 41v807h219z" />
    <glyph glyph-name="thorn" unicode="&#xfe;" horiz-adv-x="1083" 
d="M367 631v-426q107 -39 203 -39q208 0 208 341t-215 341q-96 0 -146 -58t-50 -159zM362 1446v-492q35 35 102 58t126 22q418 0 418 -528q0 -244 -119 -385t-299 -141q-117 0 -223 49v-420h-220l3 1837h212z" />
    <glyph glyph-name="ydieresis" unicode="&#xff;" horiz-adv-x="1140" 
d="M639 1309q0 49 34 80t89 31t89 -32q34 -30 34 -79t-34 -80t-89 -31t-89 31t-34 80zM262 1309q0 49 34 80t89 31t89 -32q34 -30 34 -79t-34 -80t-89 -31t-89 31t-34 80zM977 1014v-1006q0 -208 -123 -316t-326 -108q-96 0 -200 32t-172 81l61 188q145 -111 303 -110
q111 0 174 56t64 171v25q-106 -47 -221 -47q-180 0 -285 104q-104 104 -105 295v635h220v-602q0 -246 194 -246q78 0 197 41v807h219z" />
    <glyph glyph-name="Amacron" unicode="&#x100;" horiz-adv-x="1296" 
d="M381 1708h532v-162h-532v162zM631 1061l-209 -561h422zM1036 0l-118 303h-566l-116 -303h-236l530 1325h236l530 -1325h-260z" />
    <glyph glyph-name="amacron" unicode="&#x101;" horiz-adv-x="1019" 
d="M244 1397h532v-162h-532v162zM645 387v45q-15 2 -101 2t-158 -38t-73 -120q0 -50 34 -78t89 -28q90 0 150 63q59 64 59 154zM479 1034q195 0 291 -90t96 -239v-705h-204v135q-35 -78 -108 -117t-157 -38q-137 0 -224 78t-87 216q0 98 45 168t122 104q140 62 320 62
q43 0 80 -4v86q0 158 -204 158q-136 0 -269 -57l-28 182q133 61 327 61z" />
    <glyph glyph-name="Abreve" unicode="&#x102;" horiz-adv-x="1296" 
d="M647 1640q106 0 109 115h186q-8 -283 -295 -283t-295 283h187q2 -115 108 -115zM631 1061l-209 -561h422zM1036 0l-118 303h-566l-116 -303h-236l530 1325h236l530 -1325h-260z" />
    <glyph glyph-name="abreve" unicode="&#x103;" horiz-adv-x="1019" 
d="M510 1329q106 0 108 115h187q-8 -283 -295 -283t-295 283h186q3 -115 109 -115zM645 387v45q-15 2 -101 2t-158 -38t-73 -120q0 -50 34 -78t89 -28q90 0 150 63q59 64 59 154zM479 1034q195 0 291 -90t96 -239v-705h-204v135q-35 -78 -108 -117t-157 -38q-137 0 -224 78
t-87 216q0 98 45 168t122 104q140 62 320 62q43 0 80 -4v86q0 158 -204 158q-136 0 -269 -57l-28 182q133 61 327 61z" />
    <glyph glyph-name="Aogonek" unicode="&#x104;" horiz-adv-x="1296" 
d="M631 1061l-209 -561h422zM1098 -156q0 -59 65 -59q45 0 84 20l37 -149q-78 -43 -172 -43q-215 0 -215 170q0 68 42 130t97 87l-118 303h-566l-116 -303h-236l530 1325h236l530 -1325h-75q-123 -72 -123 -156z" />
    <glyph glyph-name="aogonek" unicode="&#x105;" horiz-adv-x="1019" 
d="M645 387v45q-15 2 -101 2t-158 -38t-73 -120q0 -50 34 -78t89 -28q90 0 150 63q59 64 59 154zM86 274q0 98 45 168t122 104q140 62 320 62q43 0 80 -4v86q0 158 -204 158q-135 0 -269 -57l-28 182q133 61 327 61q195 0 291 -90t96 -239v-705q-141 -82 -141 -156
q0 -59 66 -59q45 0 83 20l37 -149q-78 -43 -172 -43q-215 0 -215 170q0 63 42 121t96 96v135q-35 -78 -108 -117t-157 -38q-137 0 -224 78t-87 216z" />
    <glyph glyph-name="Cacute" unicode="&#x106;" horiz-adv-x="1177" 
d="M778 1755h291l-272 -270h-201zM709 1346q227 0 378 -76l-40 -211q-145 86 -321 86t-288 -116q-112 -115 -112 -367t112 -367t284 -115q171 0 343 84l53 -186q-176 -98 -426 -98t-430 180t-180 502t180 503t447 181z" />
    <glyph glyph-name="cacute" unicode="&#x107;" horiz-adv-x="917" 
d="M655 1444h291l-272 -270h-201zM76 507q0 253 139 391t356 138q137 0 263 -45l-29 -186q-109 41 -227 41t-196 -83q-77 -83 -77 -254t83 -254t203 -83t234 51l37 -184q-143 -59 -289 -59q-219 0 -358 137t-139 390z" />
    <glyph glyph-name="Ccircumflex" unicode="&#x108;" horiz-adv-x="1177" 
d="M582 1755h229l215 -270h-209l-121 135l-121 -135h-208zM709 1346q227 0 378 -76l-40 -211q-145 86 -321 86t-288 -116q-112 -115 -112 -367t112 -367t284 -115q171 0 343 84l53 -186q-176 -98 -426 -98t-430 180t-180 502t180 503t447 181z" />
    <glyph glyph-name="ccircumflex" unicode="&#x109;" horiz-adv-x="917" 
d="M446 1444h230l215 -270h-209l-121 135l-121 -135h-209zM76 507q0 253 139 391t356 138q137 0 263 -45l-29 -186q-109 41 -227 41t-196 -83q-77 -83 -77 -254t83 -254t203 -83t234 51l37 -184q-143 -59 -289 -59q-219 0 -358 137t-139 390z" />
    <glyph glyph-name="Cdotaccent" unicode="&#x10a;" horiz-adv-x="1177" 
d="M580 1620q0 49 33 80q34 31 89 31q56 0 90 -31t34 -80t-34 -80t-90 -31t-89 31t-33 80zM709 1346q227 0 378 -76l-40 -211q-145 86 -321 86t-288 -116q-112 -115 -112 -367t112 -367t284 -115q171 0 343 84l53 -186q-176 -98 -426 -98t-430 180t-180 502t180 503t447 181
z" />
    <glyph glyph-name="cdotaccent" unicode="&#x10b;" horiz-adv-x="917" 
d="M444 1309q0 49 34 80t89 31t89 -32q34 -30 34 -79t-34 -80t-89 -31t-89 31t-34 80zM76 507q0 253 139 391t356 138q137 0 263 -45l-29 -186q-109 41 -227 41t-196 -83q-77 -83 -77 -254t83 -254t203 -83t234 51l37 -184q-143 -59 -289 -59q-219 0 -358 137t-139 390z" />
    <glyph glyph-name="Ccaron" unicode="&#x10c;" horiz-adv-x="1177" 
d="M815 1485h-229l-215 270h209l120 -135l121 135h209zM709 1346q227 0 378 -76l-40 -211q-145 86 -321 86t-288 -116q-112 -115 -112 -367t112 -367t284 -115q171 0 343 84l53 -186q-176 -98 -426 -98t-430 180t-180 502t180 503t447 181z" />
    <glyph glyph-name="ccaron" unicode="&#x10d;" horiz-adv-x="917" 
d="M684 1174h-229l-215 270h209l120 -135l121 135h209zM76 507q0 253 139 391t356 138q137 0 263 -45l-29 -186q-109 41 -227 41t-196 -83q-77 -83 -77 -254t83 -254t203 -83t234 51l37 -184q-143 -59 -289 -59q-219 0 -358 137t-139 390z" />
    <glyph glyph-name="Dcaron" unicode="&#x10e;" horiz-adv-x="1327" 
d="M682 1485h-229l-215 270h208l121 -135l121 135h209zM395 1133v-940h135q119 0 198 17q186 40 242 209q32 95 32 243q-1 296 -130 388q-68 48 -146 65t-198 18h-133zM164 0v1325h407q356 0 515 -163t159 -498q0 -450 -277 -587q-156 -77 -397 -77h-407z" />
    <glyph glyph-name="dcaron" unicode="&#x10f;" horiz-adv-x="1236" 
d="M1315 1280q0 -70 -35 -176t-90 -178h-201q84 127 84 321q0 73 -16 139h252q6 -37 6 -106zM745 451v172q0 104 -63 164q-63 61 -153 61t-157 -76t-67 -257t68 -265t166 -84q206 0 206 285zM745 1446h220v-993q0 -229 -115 -351q-114 -122 -300 -122t-324 126
q-70 64 -110 170t-40 242q0 258 129 387t295 129t245 -90v502z" />
    <glyph glyph-name="Dcroat" unicode="&#x110;" horiz-adv-x="1327" 
d="M395 1133v-377h170v-162h-170v-401h135q119 0 198 17q186 40 242 209q32 95 32 243q-1 296 -130 388q-68 48 -146 65t-198 18h-133zM53 756h111v569h407q356 0 515 -163t159 -498q0 -450 -277 -587q-156 -77 -397 -77h-407v594h-111v162z" />
    <glyph glyph-name="dcroat" unicode="&#x111;" horiz-adv-x="1112" 
d="M745 451v172q0 104 -63 164q-63 61 -153 61t-157 -76t-67 -257t68 -265t166 -84q206 0 206 285zM745 1163h-198v162h198v121h220v-121h180v-162h-180v-710q0 -229 -115 -351q-114 -122 -300 -122t-324 126q-70 64 -110 170t-40 242q0 258 129 387t295 129t245 -90v219z
" />
    <glyph glyph-name="Emacron" unicode="&#x112;" horiz-adv-x="1093" 
d="M303 1708h533v-162h-533v162zM164 365v960h821v-192h-590v-328h553v-193h-553v-243q0 -176 183 -176h423v-193h-409q-227 0 -328 91q-100 92 -100 274z" />
    <glyph glyph-name="emacron" unicode="&#x113;" horiz-adv-x="1024" 
d="M270 1397h533v-162h-533v162zM948 440h-639q27 -272 295 -272q127 0 266 55l37 -184q-150 -61 -301 -62q-229 -1 -380 141q-150 142 -150 388t123 388q123 140 321 140t306 -110q106 -110 122 -312v-172zM721 612q0 236 -195 236q-92 0 -148 -66t-69 -170h412z" />
    <glyph glyph-name="Ebreve" unicode="&#x114;" horiz-adv-x="1093" 
d="M552 1640q106 0 110 115h186q-8 -283 -295 -283t-295 283h186q2 -115 108 -115zM164 365v960h821v-192h-590v-328h553v-193h-553v-243q0 -176 183 -176h423v-193h-409q-227 0 -328 91q-100 92 -100 274z" />
    <glyph glyph-name="ebreve" unicode="&#x115;" horiz-adv-x="1024" 
d="M546 1329q106 0 109 115h187q-8 -283 -295 -283t-295 283h186q2 -115 108 -115zM948 440h-639q27 -272 295 -272q127 0 266 55l37 -184q-150 -61 -301 -62q-229 -1 -380 141q-150 142 -150 388t123 388q123 140 321 140t306 -110q106 -110 122 -312v-172zM721 612
q0 236 -195 236q-92 0 -148 -66t-69 -170h412z" />
    <glyph glyph-name="Edotaccent" unicode="&#x116;" horiz-adv-x="1093" 
d="M424 1620q0 49 34 80t89 31t89 -31t34 -80t-34 -80t-89 -31t-89 31t-34 80zM164 365v960h821v-192h-590v-328h553v-193h-553v-243q0 -176 183 -176h423v-193h-409q-227 0 -328 91q-100 92 -100 274z" />
    <glyph glyph-name="edotaccent" unicode="&#x117;" horiz-adv-x="1024" 
d="M416 1309q0 49 34 80t89 31t89 -32q34 -30 34 -79t-34 -80t-89 -31t-89 31t-34 80zM948 440h-639q27 -272 295 -272q127 0 266 55l37 -184q-150 -61 -301 -62q-229 -1 -380 141q-150 142 -150 388t123 388q123 140 321 140t306 -110q106 -110 122 -312v-172zM721 612
q0 236 -195 236q-92 0 -148 -66t-69 -170h412z" />
    <glyph glyph-name="Eogonek" unicode="&#x118;" horiz-adv-x="1093" 
d="M592 0q-227 0 -328 91q-100 91 -100 274v960h821v-192h-590v-328h553v-193h-553v-243q0 -176 183 -176h423v-193q-123 -72 -122 -156q0 -59 65 -59q45 0 84 20l37 -149q-78 -43 -172 -43q-215 0 -215 170q0 68 42 130t97 87h-225z" />
    <glyph glyph-name="eogonek" unicode="&#x119;" horiz-adv-x="1024" 
d="M721 612q0 236 -195 236q-92 0 -148 -66t-69 -170h412zM948 440h-639q27 -272 295 -272q127 0 266 55l37 -188q-145 -82 -145 -191q0 -59 65 -59q45 0 84 20l37 -149q-78 -43 -172 -43q-215 0 -215 170q0 111 119 205q-31 -10 -74 -11q-229 -1 -380 141
q-150 142 -150 388t123 388q123 140 321 140t306 -110q106 -110 122 -312v-172z" />
    <glyph glyph-name="Ecaron" unicode="&#x11a;" horiz-adv-x="1093" 
d="M688 1485h-229l-215 270h209l120 -135l121 135h209zM164 365v960h821v-192h-590v-328h553v-193h-553v-243q0 -176 183 -176h423v-193h-409q-227 0 -328 91q-100 92 -100 274z" />
    <glyph glyph-name="ecaron" unicode="&#x11b;" horiz-adv-x="1024" 
d="M657 1174h-229l-215 270h209l121 -135l121 135h208zM948 440h-639q27 -272 295 -272q127 0 266 55l37 -184q-150 -61 -301 -62q-229 -1 -380 141q-150 142 -150 388t123 388q123 140 321 140t306 -110q106 -110 122 -312v-172zM721 612q0 236 -195 236q-92 0 -148 -66
t-69 -170h412z" />
    <glyph glyph-name="Gcircumflex" unicode="&#x11c;" horiz-adv-x="1355" 
d="M639 1755h229l215 -270h-209l-120 135l-121 -135h-209zM92 662q0 174 58 309q104 246 378 335q123 40 265 40q242 0 405 -76l-41 -211q-179 86 -371 86t-321 -120t-129 -349q0 -230 119 -362t317 -132q145 0 229 45v287h-294v193h526v-609q-225 -121 -465 -121
q-288 -1 -482 177t-194 508z" />
    <glyph glyph-name="gcircumflex" unicode="&#x11d;" horiz-adv-x="1089" 
d="M442 1444h230l215 -270h-209l-121 135l-121 -135h-209zM745 618q0 104 -53 166t-153 64q-100 0 -167 -84t-67 -259t77 -255t191 -80q61 0 172 39v409zM745 2v25q-106 -47 -225 -47q-186 0 -315 136t-129 378q0 306 145 424t334 117q188 -1 299 -101t111 -283v-643
q0 -208 -123 -316t-326 -108q-96 0 -200 32t-173 81l62 188q145 -111 303 -110q111 0 174 56t63 171z" />
    <glyph glyph-name="Gbreve" unicode="&#x11e;" horiz-adv-x="1355" 
d="M776 1640q106 0 109 115h186q-8 -283 -295 -283t-295 283h187q2 -115 108 -115zM92 662q0 174 58 309q104 246 378 335q123 40 265 40q242 0 405 -76l-41 -211q-179 86 -371 86t-321 -120t-129 -349q0 -230 119 -362t317 -132q145 0 229 45v287h-294v193h526v-609
q-225 -121 -465 -121q-288 -1 -482 177t-194 508z" />
    <glyph glyph-name="gbreve" unicode="&#x11f;" horiz-adv-x="1089" 
d="M565 1329q106 0 109 115h186q-8 -283 -295 -283t-295 283h187q2 -115 108 -115zM745 618q0 104 -53 166t-153 64q-100 0 -167 -84t-67 -259t77 -255t191 -80q61 0 172 39v409zM745 2v25q-106 -47 -225 -47q-186 0 -315 136t-129 378q0 306 145 424t334 117
q188 -1 299 -101t111 -283v-643q0 -208 -123 -316t-326 -108q-96 0 -200 32t-173 81l62 188q145 -111 303 -110q111 0 174 56t63 171z" />
    <glyph glyph-name="Gdotaccent" unicode="&#x120;" horiz-adv-x="1355" 
d="M684 1620q0 49 34 80t89 31t89 -31t34 -80t-34 -80t-89 -31t-89 31t-34 80zM92 662q0 174 58 309q104 246 378 335q123 40 265 40q242 0 405 -76l-41 -211q-179 86 -371 86t-321 -120t-129 -349q0 -230 119 -362t317 -132q145 0 229 45v287h-294v193h526v-609
q-225 -121 -465 -121q-288 -1 -482 177t-194 508z" />
    <glyph glyph-name="gdotaccent" unicode="&#x121;" horiz-adv-x="1089" 
d="M438 1309q0 49 34 80t89 31t89 -32q34 -30 34 -79t-34 -80t-89 -31t-89 31t-34 80zM745 618q0 104 -53 166t-153 64q-100 0 -167 -84t-67 -259t77 -255t191 -80q61 0 172 39v409zM745 2v25q-106 -47 -225 -47q-186 0 -315 136t-129 378q0 306 145 424t334 117
q188 -1 299 -101t111 -283v-643q0 -208 -123 -316t-326 -108q-96 0 -200 32t-173 81l62 188q145 -111 303 -110q111 0 174 56t63 171z" />
    <glyph glyph-name="Gcommaaccent" unicode="&#x122;" horiz-adv-x="1355" 
d="M639 -92h254l-207 -531h-201zM92 662q0 174 58 309q104 246 378 335q123 40 265 40q242 0 405 -76l-41 -211q-179 86 -371 86t-321 -120t-129 -349q0 -230 119 -362t317 -132q145 0 229 45v287h-294v193h526v-609q-225 -121 -465 -121q-288 -1 -482 177t-194 508z" />
    <glyph glyph-name="gcommaaccent" unicode="&#x123;" horiz-adv-x="1089" 
d="M700 1122h-290l272 271h201zM745 618q0 104 -53 166t-153 64q-100 0 -167 -84t-67 -259t77 -255t191 -80q61 0 172 39v409zM745 2v25q-106 -47 -225 -47q-186 0 -315 136t-129 378q0 306 145 424t334 117q188 -1 299 -101t111 -283v-643q0 -208 -123 -316t-326 -108
q-96 0 -200 32t-173 81l62 188q145 -111 303 -110q111 0 174 56t63 171z" />
    <glyph glyph-name="Hcircumflex" unicode="&#x124;" horiz-adv-x="1454" 
d="M612 1755h230l215 -270h-209l-121 135l-121 -135h-209zM184 0v1325h232v-547h622v547h232v-1325h-232v584h-622v-584h-232z" />
    <glyph glyph-name="hcircumflex" unicode="&#x125;" 
d="M158 1802h229l215 -270h-209l-121 135l-120 -135h-209zM166 0v1446h217v-516q37 47 103 76t143 28q150 0 247 -94t97 -287v-653h-219v641q0 109 -52 158t-135 49q-82 0 -133 -56t-51 -155v-637h-217z" />
    <glyph glyph-name="Hbar" unicode="&#x126;" horiz-adv-x="1454" 
d="M416 778h622v183h-622v-183zM184 0v961h-106v141h106v223h232v-223h622v223h232v-223h106v-141h-106v-961h-232v584h-622v-584h-232z" />
    <glyph glyph-name="hbar" unicode="&#x127;" 
d="M166 0v1147h-146v121h146v178h217v-178h170v-121h-170v-217q37 47 103 76t143 28q150 0 247 -94t97 -287v-653h-219v641q0 109 -52 158t-135 49q-82 0 -133 -56t-51 -155v-637h-217z" />
    <glyph glyph-name="Itilde" unicode="&#x128;" horiz-adv-x="600" 
d="M406 1694q51 0 51 73h166q1 -117 -55 -189t-156 -71q-45 0 -122 37t-95 37q-51 0 -52 -74h-166q-1 117 55 189t156 71q50 -1 124 -37t94 -36zM184 0v1325h232v-1325h-232z" />
    <glyph glyph-name="itilde" unicode="&#x129;" horiz-adv-x="552" 
d="M383 1382q51 0 51 74h166q0 -116 -55 -188t-156 -72q-45 0 -122 37t-95 37q-51 0 -51 -74h-166q0 116 55 188t156 72q49 0 123 -37t94 -37zM174 0v1014h205v-1014h-205z" />
    <glyph glyph-name="Imacron" unicode="&#x12a;" horiz-adv-x="600" 
d="M35 1708h532v-162h-532v162zM184 0v1325h232v-1325h-232z" />
    <glyph glyph-name="imacron" unicode="&#x12b;" horiz-adv-x="552" 
d="M10 1397h533v-162h-533v162zM174 0v1014h205v-1014h-205z" />
    <glyph glyph-name="Ibreve" unicode="&#x12c;" horiz-adv-x="600" 
d="M301 1640q106 0 109 115h186q-8 -283 -295 -283t-295 283h187q2 -115 108 -115zM184 0v1325h232v-1325h-232z" />
    <glyph glyph-name="ibreve" unicode="&#x12d;" horiz-adv-x="552" 
d="M276 1329q106 0 109 115h186q-9 -283 -295 -283t-294 283h186q2 -115 108 -115zM174 0v1014h205v-1014h-205z" />
    <glyph glyph-name="Iogonek" unicode="&#x12e;" horiz-adv-x="600" 
d="M246 -156q0 -59 65 -59q45 0 84 20l37 -149q-78 -43 -172 -43q-215 0 -215 170q0 68 42 130t97 87v1325h232v-1325q-170 -61 -170 -156z" />
    <glyph glyph-name="iogonek" unicode="&#x12f;" horiz-adv-x="552" 
d="M143 1294q0 56 36 94t97 38t99 -38q37 -38 37 -94t-37 -91q-37 -36 -99 -36t-97 36q-36 36 -36 91zM166 1014h219v-1014q-72 -27 -115 -70t-43 -86q0 -59 66 -59q45 0 84 20l37 -149q-78 -43 -172 -43q-215 0 -215 170q0 111 139 217v1014z" />
    <glyph glyph-name="Idotaccent" unicode="&#x130;" horiz-adv-x="600" 
d="M178 1620q0 49 34 80t89 31t89 -31t34 -80t-34 -80t-89 -31t-89 31t-34 80zM184 0v1325h232v-1325h-232z" />
    <glyph glyph-name="dotlessi" unicode="&#x131;" horiz-adv-x="552" 
d="M174 0v1014h205v-1014h-205z" />
    <glyph glyph-name="Jcircumflex" unicode="&#x134;" horiz-adv-x="688" 
d="M301 1755h229l215 -270h-208l-121 135l-121 -135h-209zM154 186q64 0 105 39q40 39 40 133v967h225v-952q0 -393 -346 -393q-70 0 -119 10v200q31 -4 95 -4z" />
    <glyph glyph-name="jcircumflex" unicode="&#x135;" horiz-adv-x="552" 
d="M162 1444h229l215 -270h-209l-121 135l-120 -135h-209zM166 -45v1059h219v-1051q0 -191 -73 -285t-226 -94t-252 66l62 186q80 -49 150 -49t95 37t25 131z" />
    <glyph glyph-name="Kcommaaccent" unicode="&#x136;" horiz-adv-x="1271" 
d="M575 -92h254l-206 -531h-201zM416 0h-232v1325h232v-604l497 604h291l-473 -547l359 -594h157v-166q-88 -38 -172 -38t-123 22t-82 90l-305 514l-149 -180v-426z" />
    <glyph glyph-name="kcommaaccent" unicode="&#x137;" horiz-adv-x="1046" 
d="M455 -92h254l-207 -531h-201zM385 0h-219v1446h219v-819l352 387h273l-392 -424q70 -96 213 -295t213 -295h-268l-309 430l-82 -88v-342z" />
    <glyph glyph-name="Lacute" unicode="&#x139;" horiz-adv-x="960" 
d="M354 1755h291l-272 -270h-201zM393 1325v-956q0 -78 43 -127t139 -49h355v-193h-361q-225 0 -315 90t-90 275v960h229z" />
    <glyph glyph-name="lacute" unicode="&#x13a;" horiz-adv-x="550" 
d="M360 1796h291l-272 -270h-201zM166 0v1446h219v-1446h-219z" />
    <glyph glyph-name="Lcommaaccent" unicode="&#x13b;" horiz-adv-x="960" 
d="M473 -92h254l-207 -531h-201zM393 1325v-956q0 -78 43 -127t139 -49h355v-193h-361q-225 0 -315 90t-90 275v960h229z" />
    <glyph glyph-name="lcommaaccent" unicode="&#x13c;" horiz-adv-x="550" 
d="M147 -92h254l-206 -531h-201zM166 0v1446h219v-1446h-219z" />
    <glyph glyph-name="Lcaron" unicode="&#x13d;" horiz-adv-x="960" 
d="M864 1218q0 -70 -35 -176t-90 -178h-200q84 127 84 322q-1 73 -17 139h252q6 -37 6 -107zM393 1325v-956q0 -78 43 -127t139 -49h355v-193h-361q-225 0 -315 90t-90 275v960h229z" />
    <glyph glyph-name="lcaron" unicode="&#x13e;" horiz-adv-x="665" 
d="M760 1280q0 -70 -35 -176t-90 -178h-201q84 127 84 321q0 73 -16 139h252q6 -37 6 -106zM166 0v1446h219v-1446h-219z" />
    <glyph glyph-name="Lslash" unicode="&#x141;" horiz-adv-x="960" 
d="M393 1325v-477l342 149v-196l-342 -150v-282q0 -78 43 -127t139 -49h355v-193h-361q-225 0 -315 90t-90 275v188l-156 -68v197l156 68v575h229z" />
    <glyph glyph-name="lslash" unicode="&#x142;" horiz-adv-x="550" 
d="M166 1446h219v-512l141 80v-189l-141 -80v-745h-219v627l-141 -80v188l141 80v631z" />
    <glyph glyph-name="Nacute" unicode="&#x143;" horiz-adv-x="1507" 
d="M807 1755h291l-273 -270h-200zM184 0v1325h222l704 -944v944h213v-1325h-211l-715 956v-956h-213z" />
    <glyph glyph-name="nacute" unicode="&#x144;" horiz-adv-x="1114" 
d="M651 1444h291l-272 -270h-201zM557 848q-76 0 -131 -49t-55 -137v-662h-217v649q0 190 115 288q116 97 291 97t288 -89t113 -296v-649h-216v662q0 88 -56 137t-132 49z" />
    <glyph glyph-name="Ncommaaccent" unicode="&#x145;" horiz-adv-x="1507" 
d="M659 -92h254l-206 -531h-201zM184 0v1325h222l704 -944v944h213v-1325h-211l-715 956v-956h-213z" />
    <glyph glyph-name="ncommaaccent" unicode="&#x146;" horiz-adv-x="1114" 
d="M444 -92h254l-206 -531h-201zM557 848q-76 0 -131 -49t-55 -137v-662h-217v649q0 190 115 288q116 97 291 97t288 -89t113 -296v-649h-216v662q0 88 -56 137t-132 49z" />
    <glyph glyph-name="Ncaron" unicode="&#x147;" horiz-adv-x="1507" 
d="M868 1485h-229l-215 270h209l121 -135l120 135h209zM184 0v1325h222l704 -944v944h213v-1325h-211l-715 956v-956h-213z" />
    <glyph glyph-name="ncaron" unicode="&#x148;" horiz-adv-x="1114" 
d="M672 1174h-230l-215 270h209l121 -135l121 135h209zM557 848q-76 0 -131 -49t-55 -137v-662h-217v649q0 190 115 288q116 97 291 97t288 -89t113 -296v-649h-216v662q0 88 -56 137t-132 49z" />
    <glyph glyph-name="Eng" unicode="&#x14a;" horiz-adv-x="1507" 
d="M948 -209q162 0 162 172v39l-713 954v-956h-213v1325h222l704 -944v944h213v-1348q0 -393 -340 -393q-70 0 -119 10v203q37 -6 84 -6z" />
    <glyph glyph-name="eng" unicode="&#x14b;" horiz-adv-x="1114" 
d="M745 -45v707q0 88 -56 137t-132 49t-131 -49t-55 -137v-662h-217v649q0 190 115 288q116 97 291 97t288 -89t113 -296v-686q0 -191 -71 -285q-70 -94 -224 -94t-252 66l61 186q81 -49 151 -49t95 37q24 37 24 131z" />
    <glyph glyph-name="Omacron" unicode="&#x14c;" horiz-adv-x="1406" 
d="M436 1708h533v-162h-533v162zM326 660q0 -84 18 -162t58 -152t117 -118t173 -44q248 0 341 220q48 111 48 255q0 238 -116 374q-92 108 -263 108q-106 0 -183 -44t-117 -119t-58 -154t-18 -164zM702 -20q-288 0 -454 187t-166 491t163 496t459 192t459 -184
q162 -184 162 -503q0 -390 -274 -579q-146 -100 -349 -100z" />
    <glyph glyph-name="omacron" unicode="&#x14d;" horiz-adv-x="1058" 
d="M262 1397h533v-162h-533v162zM760 507q0 341 -232 341t-231 -341q-1 -341 231 -341t232 341zM983 510q0 -256 -127 -394t-328 -138q-202 0 -328 138t-126 392t127 391t333 137t328 -135q121 -135 121 -391z" />
    <glyph glyph-name="Obreve" unicode="&#x14e;" horiz-adv-x="1406" 
d="M702 1640q106 0 109 115h186q-9 -283 -295 -283t-294 283h186q2 -115 108 -115zM326 660q0 -84 18 -162t58 -152t117 -118t173 -44q248 0 341 220q48 111 48 255q0 238 -116 374q-92 108 -263 108q-106 0 -183 -44t-117 -119t-58 -154t-18 -164zM702 -20q-288 0 -454 187
t-166 491t163 496t459 192t459 -184q162 -184 162 -503q0 -390 -274 -579q-146 -100 -349 -100z" />
    <glyph glyph-name="obreve" unicode="&#x14f;" horiz-adv-x="1058" 
d="M528 1329q106 0 109 115h186q-8 -283 -295 -283t-295 283h187q2 -115 108 -115zM760 507q0 341 -232 341t-231 -341q-1 -341 231 -341t232 341zM983 510q0 -256 -127 -394t-328 -138q-202 0 -328 138t-126 392t127 391t333 137t328 -135q121 -135 121 -391z" />
    <glyph glyph-name="Ohungarumlaut" unicode="&#x150;" horiz-adv-x="1406" 
d="M827 1755h250l-149 -270h-176zM485 1755h236l-70 -270h-176zM326 660q0 -84 18 -162t58 -152t117 -118t173 -44q248 0 341 220q48 111 48 255q0 238 -116 374q-92 108 -263 108q-106 0 -183 -44t-117 -119t-58 -154t-18 -164zM702 -20q-288 0 -454 187t-166 491t163 496
t459 192t459 -184q162 -184 162 -503q0 -390 -274 -579q-146 -100 -349 -100z" />
    <glyph glyph-name="ohungarumlaut" unicode="&#x151;" horiz-adv-x="1058" 
d="M649 1444h250l-149 -270h-177zM307 1444h236l-70 -270h-176zM760 507q0 341 -232 341t-231 -341q-1 -341 231 -341t232 341zM983 510q0 -256 -127 -394t-328 -138q-202 0 -328 138t-126 392t127 391t333 137t328 -135q121 -135 121 -391z" />
    <glyph glyph-name="OE" unicode="&#x152;" horiz-adv-x="2000" 
d="M407 974q-71 -136 -71 -313t71 -310q37 -73 113 -115t182 -43q284 0 353 307q16 76 16 162q0 181 -72 312q-39 73 -114 116q-77 43 -183 43t-182 -43t-113 -116zM702 -20q-288 0 -454 187t-166 491t163 496t457 192q215 0 369 -144v123h821v-192h-589v-328h552v-193h-552
v-243q0 -176 182 -176h424v-193h-430q-154 0 -237 41t-132 137q-154 -198 -408 -198z" />
    <glyph glyph-name="oe" unicode="&#x153;" horiz-adv-x="1703" 
d="M1401 612q0 236 -195 236q-92 0 -148 -66t-69 -170h412zM760 507q0 341 -232 341t-231 -341q-1 -341 231 -341t232 341zM1628 440h-639q27 -272 295 -272q127 0 266 55l37 -184q-152 -61 -301 -62q-268 0 -409 179q-113 -176 -349 -176q-202 0 -328 137t-126 391t126 390
t338 136t326 -162q119 162 327 162q209 0 315 -110t122 -312v-172z" />
    <glyph glyph-name="Racute" unicode="&#x154;" horiz-adv-x="1243" 
d="M596 1755h291l-273 -270h-200zM414 1133v-437h250q104 0 159 65t55 153t-54 154q-56 65 -160 65h-250zM184 0v1325h482q216 0 336 -121t120 -286q0 -127 -71 -232q-72 -104 -207 -149l205 -353h153v-168q-163 -65 -278 -15q-49 22 -88 91l-226 412h-196v-504h-230z" />
    <glyph glyph-name="racute" unicode="&#x155;" horiz-adv-x="733" 
d="M383 1444h291l-273 -270h-200zM156 0v1014h219v-203q37 86 129 155t211 68v-233q-152 1 -246 -101t-94 -284v-416h-219z" />
    <glyph glyph-name="Rcommaaccent" unicode="&#x156;" horiz-adv-x="1243" 
d="M557 -92h254l-207 -531h-201zM414 1133v-437h250q104 0 159 65t55 153t-54 154q-56 65 -160 65h-250zM184 0v1325h482q216 0 336 -121t120 -286q0 -127 -71 -232q-72 -104 -207 -149l205 -353h153v-168q-163 -65 -278 -15q-49 22 -88 91l-226 412h-196v-504h-230z" />
    <glyph glyph-name="rcommaaccent" unicode="&#x157;" horiz-adv-x="733" 
d="M147 -92h254l-206 -531h-201zM156 0v1014h219v-203q37 86 129 155t211 68v-233q-152 1 -246 -101t-94 -284v-416h-219z" />
    <glyph glyph-name="Rcaron" unicode="&#x158;" horiz-adv-x="1243" 
d="M686 1485h-229l-215 270h209l120 -135l121 135h209zM414 1133v-437h250q104 0 159 65t55 153t-54 154q-56 65 -160 65h-250zM184 0v1325h482q216 0 336 -121t120 -286q0 -127 -71 -232q-72 -104 -207 -149l205 -353h153v-168q-163 -65 -278 -15q-49 22 -88 91l-226 412
h-196v-504h-230z" />
    <glyph glyph-name="rcaron" unicode="&#x159;" horiz-adv-x="733" 
d="M526 1174h-229l-215 270h209l121 -135l120 135h209zM156 0v1014h219v-203q37 86 129 155t211 68v-233q-152 1 -246 -101t-94 -284v-416h-219z" />
    <glyph glyph-name="Sacute" unicode="&#x15a;" horiz-adv-x="989" 
d="M586 1755h291l-273 -270h-201zM537 1141q-95 0 -147 -37t-52 -89t28 -84t91 -77l282 -201q176 -123 176 -305t-128 -275t-324 -93q-100 0 -217 34t-199 86l55 201q174 -117 372 -117t198 150q0 72 -113 151l-270 193q-195 137 -195 305t114 265q114 98 314 98t352 -76
l-40 -215q-145 86 -297 86z" />
    <glyph glyph-name="sacute" unicode="&#x15b;" horiz-adv-x="894" 
d="M528 1444h291l-272 -270h-201zM453 164q129 0 129 96q0 63 -123 134q-45 26 -61 36l-96 60q-81 50 -109 81q-61 69 -72 108q-10 38 -10 71q0 128 95 206t262 78t302 -69l-41 -195q-133 78 -266 78t-133 -92q0 -35 43 -68t115 -73q72 -41 117 -69q198 -128 198 -271
q1 -144 -103 -220q-104 -75 -271 -75t-318 96l34 186q147 -98 308 -98z" />
    <glyph glyph-name="Scircumflex" unicode="&#x15c;" horiz-adv-x="989" 
d="M399 1755h230l215 -270h-209l-121 135l-121 -135h-209zM537 1141q-95 0 -147 -37t-52 -89t28 -84t91 -77l282 -201q176 -123 176 -305t-128 -275t-324 -93q-100 0 -217 34t-199 86l55 201q174 -117 372 -117t198 150q0 72 -113 151l-270 193q-195 137 -195 305t114 265
q114 98 314 98t352 -76l-40 -215q-145 86 -297 86z" />
    <glyph glyph-name="scircumflex" unicode="&#x15d;" horiz-adv-x="894" 
d="M334 1444h229l215 -270h-209l-120 135l-121 -135h-209zM453 164q129 0 129 96q0 63 -123 134q-45 26 -61 36l-96 60q-81 50 -109 81q-61 69 -72 108q-10 38 -10 71q0 128 95 206t262 78t302 -69l-41 -195q-133 78 -266 78t-133 -92q0 -35 43 -68t115 -73q72 -41 117 -69
q198 -128 198 -271q1 -144 -103 -220q-104 -75 -271 -75t-318 96l34 186q147 -98 308 -98z" />
    <glyph glyph-name="Scedilla" unicode="&#x15e;" horiz-adv-x="989" 
d="M537 1141q-95 0 -147 -37t-52 -89t28 -84t91 -77l282 -201q176 -123 176 -295t-101 -263t-265 -109l-33 -86q156 -25 156 -179q0 -98 -79 -149t-179 -51t-168 30l41 138q47 -20 108 -21q96 0 97 58q0 59 -111 59q-35 0 -72 -4l68 205q-190 23 -330 114l55 201
q174 -117 372 -117t198 150q0 72 -113 151l-270 193q-195 137 -195 305t114 265q114 98 314 98t352 -76l-40 -215q-145 86 -297 86z" />
    <glyph glyph-name="Scedilla" unicode="&#xf6c1;" horiz-adv-x="989" 
d="M537 1141q-95 0 -147 -37t-52 -89t28 -84t91 -77l282 -201q176 -123 176 -295t-101 -263t-265 -109l-33 -86q156 -25 156 -179q0 -98 -79 -149t-179 -51t-168 30l41 138q47 -20 108 -21q96 0 97 58q0 59 -111 59q-35 0 -72 -4l68 205q-190 23 -330 114l55 201
q174 -117 372 -117t198 150q0 72 -113 151l-270 193q-195 137 -195 305t114 265q114 98 314 98t352 -76l-40 -215q-145 86 -297 86z" />
    <glyph glyph-name="scedilla" unicode="&#x15f;" horiz-adv-x="894" 
d="M803 276q0 -128 -82 -202t-213 -90l-33 -84q156 -25 156 -179q0 -98 -79 -149t-179 -51t-168 30l41 138q47 -20 108 -21q96 0 97 58q0 59 -111 59q-35 0 -72 -4l70 209q-129 20 -227 86l34 186q147 -98 308 -98q129 0 129 96q0 86 -236 201q-88 43 -162 120t-73 169
q0 128 95 206t262 78t302 -69l-41 -195q-133 78 -266 78t-133 -92q0 -35 49 -73t118 -76t139 -82q70 -45 118 -109q49 -64 49 -140z" />
    <glyph glyph-name="scedilla" unicode="&#xf6c2;" horiz-adv-x="894" 
d="M803 276q0 -128 -82 -202t-213 -90l-33 -84q156 -25 156 -179q0 -98 -79 -149t-179 -51t-168 30l41 138q47 -20 108 -21q96 0 97 58q0 59 -111 59q-35 0 -72 -4l70 209q-129 20 -227 86l34 186q147 -98 308 -98q129 0 129 96q0 86 -236 201q-88 43 -162 120t-73 169
q0 128 95 206t262 78t302 -69l-41 -195q-133 78 -266 78t-133 -92q0 -35 49 -73t118 -76t139 -82q70 -45 118 -109q49 -64 49 -140z" />
    <glyph glyph-name="Scaron" unicode="&#x160;" horiz-adv-x="989" 
d="M608 1485h-229l-215 270h209l121 -135l120 135h209zM537 1141q-95 0 -147 -37t-52 -89t28 -84t91 -77l282 -201q176 -123 176 -305t-128 -275t-324 -93q-100 0 -217 34t-199 86l55 201q174 -117 372 -117t198 150q0 72 -113 151l-270 193q-195 137 -195 305t114 265
q114 98 314 98t352 -76l-40 -215q-145 86 -297 86z" />
    <glyph glyph-name="scaron" unicode="&#x161;" horiz-adv-x="894" 
d="M561 1174h-229l-215 270h209l120 -135l121 135h209zM453 164q129 0 129 96q0 63 -123 134q-45 26 -61 36l-96 60q-81 50 -109 81q-61 69 -72 108q-10 38 -10 71q0 128 95 206t262 78t302 -69l-41 -195q-133 78 -266 78t-133 -92q0 -35 43 -68t115 -73q72 -41 117 -69
q198 -128 198 -271q1 -144 -103 -220q-104 -75 -271 -75t-318 96l34 186q147 -98 308 -98z" />
    <glyph glyph-name="Tcommaaccent" unicode="&#x162;" horiz-adv-x="1085" 
d="M418 -92h254l-207 -531h-201zM428 0v1133h-397v192h1024v-192h-398v-1133h-229z" />
    <glyph glyph-name="Tcommaaccent" unicode="&#x21a;" horiz-adv-x="1085" 
d="M418 -92h254l-207 -531h-201zM428 0v1133h-397v192h1024v-192h-398v-1133h-229z" />
    <glyph glyph-name="tcommaaccent" unicode="&#x163;" horiz-adv-x="731" 
d="M358 -92h254l-206 -531h-201zM541 -20q-158 0 -252 82t-94 253v521h-170v178h170v231l219 29v-260h260v-178h-260v-508q0 -86 43 -118t109 -32t116 6v-190q-86 -14 -141 -14z" />
    <glyph glyph-name="tcommaaccent" unicode="&#x21b;" horiz-adv-x="731" 
d="M358 -92h254l-206 -531h-201zM541 -20q-158 0 -252 82t-94 253v521h-170v178h170v231l219 29v-260h260v-178h-260v-508q0 -86 43 -118t109 -32t116 6v-190q-86 -14 -141 -14z" />
    <glyph glyph-name="Tcaron" unicode="&#x164;" horiz-adv-x="1085" 
d="M657 1485h-229l-215 270h209l121 -135l121 135h208zM428 0v1133h-397v192h1024v-192h-398v-1133h-229z" />
    <glyph glyph-name="tcaron" unicode="&#x165;" horiz-adv-x="804" 
d="M788 1422q0 -70 -34 -176t-90 -179h-201q84 127 84 322q-1 73 -17 139h252q6 -36 6 -106zM541 -20q-158 0 -252 82t-94 253v521h-170v178h170v231l219 29v-260h260v-178h-260v-508q0 -86 43 -118t109 -32t116 6v-190q-86 -14 -141 -14z" />
    <glyph glyph-name="Tbar" unicode="&#x166;" horiz-adv-x="1085" 
d="M428 0v684h-254v162h254v287h-397v192h1024v-192h-398v-287h254v-162h-254v-684h-229z" />
    <glyph glyph-name="tbar" unicode="&#x167;" horiz-adv-x="731" 
d="M57 672h138v164h-170v178h170v231l219 29v-260h260v-178h-260v-164h176v-162h-176v-182q0 -86 43 -118t109 -32t116 6v-190q-86 -14 -141 -14q-158 0 -252 82t-94 253v195h-138v162z" />
    <glyph glyph-name="Utilde" unicode="&#x168;" horiz-adv-x="1390" 
d="M821 1694q51 0 51 73h166q0 -117 -55 -189t-156 -71q-45 0 -121 37t-96 37q-51 0 -51 -74h-166q-1 117 55 189t156 71q49 -1 123 -37t94 -36zM1237 1325v-844q0 -252 -148 -377q-149 -124 -395 -124t-393 124t-147 377v844h233v-850q0 -121 70 -206q71 -85 237 -85
t238 85t72 206v850h233z" />
    <glyph glyph-name="utilde" unicode="&#x169;" horiz-adv-x="1093" 
d="M651 1382q51 0 51 74h166q0 -116 -55 -188t-156 -72q-45 0 -121 37t-96 37q-51 0 -51 -74h-166q-1 116 55 188t156 72q49 0 123 -37t94 -37zM547 -20q-176 0 -290 91t-114 289v654h215v-660q0 -92 50 -140t139 -48q88 0 138 48t50 140v660h215v-654q0 -200 -114 -290
t-289 -90z" />
    <glyph glyph-name="Umacron" unicode="&#x16a;" horiz-adv-x="1390" 
d="M428 1708h533v-162h-533v162zM1237 1325v-844q0 -252 -148 -377q-149 -124 -395 -124t-393 124t-147 377v844h233v-850q0 -121 70 -206q71 -85 237 -85t238 85t72 206v850h233z" />
    <glyph glyph-name="umacron" unicode="&#x16b;" horiz-adv-x="1093" 
d="M281 1397h532v-162h-532v162zM547 -20q-176 0 -290 91t-114 289v654h215v-660q0 -92 50 -140t139 -48q88 0 138 48t50 140v660h215v-654q0 -200 -114 -290t-289 -90z" />
    <glyph glyph-name="Ubreve" unicode="&#x16c;" horiz-adv-x="1390" 
d="M694 1640q106 0 109 115h186q-8 -283 -295 -283t-295 283h187q2 -115 108 -115zM1237 1325v-844q0 -252 -148 -377q-149 -124 -395 -124t-393 124t-147 377v844h233v-850q0 -121 70 -206q71 -85 237 -85t238 85t72 206v850h233z" />
    <glyph glyph-name="ubreve" unicode="&#x16d;" horiz-adv-x="1093" 
d="M546 1329q106 0 109 115h187q-8 -283 -295 -283t-295 283h186q2 -115 108 -115zM547 -20q-176 0 -290 91t-114 289v654h215v-660q0 -92 50 -140t139 -48q88 0 138 48t50 140v660h215v-654q0 -200 -114 -290t-289 -90z" />
    <glyph glyph-name="Uring" unicode="&#x16e;" horiz-adv-x="1390" 
d="M768 1634q0 31 -20 50q-20 20 -54 20t-53 -20q-20 -20 -20 -50q0 -31 20 -50t53 -19t54 19q20 19 20 50zM924 1634q0 -78 -64 -127t-166 -49t-166 49q-63 49 -63 127t63 127q64 49 166 49t166 -49t64 -127zM1237 1325v-844q0 -252 -148 -377q-149 -124 -395 -124
t-393 124t-147 377v844h233v-850q0 -121 70 -206q71 -85 237 -85t238 85t72 206v850h233z" />
    <glyph glyph-name="uring" unicode="&#x16f;" horiz-adv-x="1093" 
d="M621 1323q-1 31 -21 50t-53 19t-53 -18q-20 -20 -20 -51t20 -50t53 -19t53 18q20 20 21 51zM776 1323q0 -78 -63 -127t-165 -49t-167 49q-63 49 -64 127t63 127t166 49t166 -49t64 -127zM547 -20q-176 0 -290 91t-114 289v654h215v-660q0 -92 50 -140t139 -48
q88 0 138 48t50 140v660h215v-654q0 -200 -114 -290t-289 -90z" />
    <glyph glyph-name="Uhungarumlaut" unicode="&#x170;" horiz-adv-x="1390" 
d="M825 1755h250l-149 -270h-176zM483 1755h236l-70 -270h-176zM1237 1325v-844q0 -252 -148 -377q-149 -124 -395 -124t-393 124t-147 377v844h233v-850q0 -121 70 -206q71 -85 237 -85t238 85t72 206v850h233z" />
    <glyph glyph-name="uhungarumlaut" unicode="&#x171;" horiz-adv-x="1093" 
d="M676 1444h250l-150 -270h-176zM334 1444h235l-69 -270h-176zM547 -20q-176 0 -290 91t-114 289v654h215v-660q0 -92 50 -140t139 -48q88 0 138 48t50 140v660h215v-654q0 -200 -114 -290t-289 -90z" />
    <glyph glyph-name="Uogonek" unicode="&#x172;" horiz-adv-x="1390" 
d="M1237 1325v-844q0 -231 -125 -355t-338 -142q-94 -68 -94 -134t65 -65q45 0 84 20l37 -149q-78 -43 -172 -43q-215 0 -215 170q0 57 33 113t80 90q-203 22 -321 146t-117 349v844h233v-850q0 -121 70 -206q71 -85 237 -85t238 85t72 206v850h233z" />
    <glyph glyph-name="uogonek" unicode="&#x173;" horiz-adv-x="1093" 
d="M950 1014v-654q0 -299 -264 -364q-115 -70 -115 -152q0 -59 66 -59q45 0 84 20l37 -149q-78 -43 -172 -43q-215 0 -215 170q-1 57 31 113t77 88q-151 14 -243 106t-93 270v654h215v-660q0 -92 50 -140t139 -48q88 0 138 48t50 140v660h215z" />
    <glyph glyph-name="Wcircumflex" unicode="&#x174;" horiz-adv-x="1957" 
d="M864 1755h230l215 -270h-209l-121 135l-121 -135h-209zM1278 0l-303 1006l-281 -1006h-282l-381 1325h250l276 -1055l305 1055h248l317 -1055l263 1055h237l-366 -1325h-283z" />
    <glyph glyph-name="wcircumflex" unicode="&#x175;" horiz-adv-x="1654" 
d="M713 1444h229l215 -270h-209l-121 135l-120 -135h-209zM934 1014v-649q0 -91 54 -145t129 -54t125 54t50 145v649h219v-641q1 -193 -111 -293t-291 -100t-280 122q-102 -122 -283 -122t-292 100t-111 293v641h217v-649q0 -91 50 -145t126 -54q75 0 127 54t52 145v649h219
z" />
    <glyph glyph-name="Ycircumflex" unicode="&#x176;" horiz-adv-x="1153" 
d="M461 1755h229l215 -270h-209l-121 135l-120 -135h-209zM459 0v510l-459 815h256l334 -590l334 590h229l-465 -819v-506h-229z" />
    <glyph glyph-name="ycircumflex" unicode="&#x177;" horiz-adv-x="1136" 
d="M453 1444h229l215 -270h-209l-121 135l-121 -135h-208zM973 1014v-1006q0 -208 -123 -316t-326 -108q-96 0 -200 32t-172 81l61 188q145 -111 303 -110q111 0 174 56t64 171v25q-106 -47 -222 -47q-180 0 -284 104t-105 295v635h219v-602q0 -246 195 -246q78 0 197 41
v807h219z" />
    <glyph glyph-name="Ydieresis" unicode="&#x178;" horiz-adv-x="1153" 
d="M629 1620q0 49 34 80t89 31t89 -31q33 -31 33 -80t-34 -80t-88 -31q-55 0 -89 31t-34 80zM252 1620q0 49 34 80t89 31t89 -31t34 -80t-34 -80t-89 -31t-89 31t-34 80zM459 0v510l-459 815h256l334 -590l334 590h229l-465 -819v-506h-229z" />
    <glyph glyph-name="Zacute" unicode="&#x179;" horiz-adv-x="1120" 
d="M610 1755h291l-272 -270h-201zM78 0v190l684 943h-670v192h942v-190l-678 -942h691v-193h-969z" />
    <glyph glyph-name="zacute" unicode="&#x17a;" horiz-adv-x="942" 
d="M526 1444h291l-272 -270h-201zM88 0v160l485 663h-471v191h738v-168l-467 -656h485v-190h-770z" />
    <glyph glyph-name="Zdotaccent" unicode="&#x17b;" horiz-adv-x="1120" 
d="M436 1620q0 49 34 80t89 31t89 -31t34 -80t-34 -80t-89 -31t-89 31t-34 80zM78 0v190l684 943h-670v192h942v-190l-678 -942h691v-193h-969z" />
    <glyph glyph-name="zdotaccent" unicode="&#x17c;" horiz-adv-x="942" 
d="M348 1309q0 49 34 80t89 31t89 -32q34 -30 34 -79t-34 -80t-89 -31t-89 31t-34 80zM88 0v160l485 663h-471v191h738v-168l-467 -656h485v-190h-770z" />
    <glyph glyph-name="Zcaron" unicode="&#x17d;" horiz-adv-x="1120" 
d="M674 1485h-230l-215 270h209l121 -135l121 135h209zM78 0v190l684 943h-670v192h942v-190l-678 -942h691v-193h-969z" />
    <glyph glyph-name="zcaron" unicode="&#x17e;" horiz-adv-x="942" 
d="M600 1174h-229l-215 270h209l120 -135l121 135h209zM88 0v160l485 663h-471v191h738v-168l-467 -656h485v-190h-770z" />
    <glyph glyph-name="florin" unicode="&#x192;" 
d="M487 942v-227h451v-162h-451v-553h-229v553h-172v162h172v209q0 184 108 303t326 119t369 -84l-41 -205q-129 84 -307 84q-98 1 -162 -53t-64 -146z" />
    <glyph glyph-name="Aringacute" unicode="&#x1fa;" horiz-adv-x="1296" 
d="M739 2126h291l-272 -271h-201zM721 1634q-1 31 -21 50q-20 20 -53 20t-53 -20t-20 -50q0 -31 20 -50t53 -19t53 19t21 50zM877 1634q1 -78 -63 -127t-166 -49t-167 49q-63 49 -63 127t63 127t165 49t167 -49q64 -49 64 -127zM631 1061l-209 -561h422zM1036 0l-118 303
h-566l-116 -303h-236l530 1325h236l530 -1325h-260z" />
    <glyph glyph-name="aringacute" unicode="&#x1fb;" horiz-adv-x="1019" 
d="M596 1837h291l-273 -270h-200zM584 1323q0 31 -20 50t-54 19q-33 0 -53 -18q-21 -20 -21 -51t20 -50t54 -19t54 18q20 20 20 51zM739 1323q0 -78 -63 -127q-64 -49 -166 -49t-166 49q-63 49 -63 127t63 127q64 49 166 49t166 -49t63 -127zM645 387v45q-15 2 -101 2
t-158 -38t-73 -120q0 -50 34 -78t89 -28q90 0 150 63q59 64 59 154zM479 1034q195 0 291 -90t96 -239v-705h-204v135q-35 -78 -108 -117t-157 -38q-137 0 -224 78t-87 216q0 98 45 168t122 104q140 62 320 62q43 0 80 -4v86q0 158 -204 158q-136 0 -269 -57l-28 182
q133 61 327 61z" />
    <glyph glyph-name="AEacute" unicode="&#x1fc;" horiz-adv-x="1685" 
d="M1188 1755h291l-273 -270h-200zM756 500v569l-357 -569h357zM1577 1325v-192h-590v-328h553v-193h-553v-243q0 -176 182 -176h424v-193h-430q-211 0 -303 78t-102 235h-475l-197 -313h-260l854 1325h897z" />
    <glyph glyph-name="aeacute" unicode="&#x1fd;" horiz-adv-x="1552" 
d="M854 1444h291l-273 -270h-200zM645 389v47q-15 2 -101 2t-158 -40t-73 -122q0 -50 35 -78t90 -28q90 0 149 64q58 65 58 155zM1253 612q0 236 -194 236q-93 0 -147 -66t-66 -170h407zM1477 440h-631q27 -272 291 -272q127 0 266 55l37 -184q-150 -61 -301 -62
q-268 0 -404 183q-47 -82 -134 -131t-213 -49t-214 78t-88 216q0 219 226 298q112 40 261 40q43 0 80 -4v82q0 158 -204 158q-135 0 -269 -57l-28 182q134 61 330 61t290 -108q108 108 294 108t290 -110t121 -312v-172z" />
    <glyph glyph-name="Oslashacute" unicode="&#x1fe;" horiz-adv-x="1406" 
d="M702 1141q-366 0 -366 -518q0 -124 49 -238l559 664q-92 92 -242 92zM1071 659q0 166 -51 279l-559 -664q90 -90 241 -90q284 0 353 313q16 76 16 162zM1325 659q-1 -390 -275 -579q-146 -100 -363 -100q-218 0 -372 122l-155 -186l-99 84l164 195q-143 179 -143 473
t163 486t457 192q233 0 392 -119l153 182l99 -84l-160 -190q139 -180 139 -476zM799 1755h291l-273 -270h-201z" />
    <glyph glyph-name="oslashacute" unicode="&#x1ff;" horiz-adv-x="1058" 
d="M528 848q-231 0 -231 -340q0 -102 20 -172l361 455q-54 57 -150 57zM760 508q0 102 -21 172l-358 -459q53 -55 147 -55q232 0 232 342zM528 1034q154 0 273 -86l102 133l94 -67l-114 -148q100 -136 100 -374t-126 -375t-329 -137q-158 0 -270 83l-106 -135l-97 72
l117 152q-98 138 -98 374t126 372t328 136zM598 1444h291l-273 -270h-200z" />
    <glyph glyph-name="Scommaaccent" unicode="&#x218;" horiz-adv-x="989" 
d="M373 -92h254l-207 -531h-201zM537 1141q-95 0 -147 -37t-52 -89t28 -84t91 -77l282 -201q176 -123 176 -305t-128 -275t-324 -93q-100 0 -217 34t-199 86l55 201q174 -117 372 -117t198 150q0 72 -113 151l-270 193q-195 137 -195 305t114 265q114 98 314 98t352 -76
l-40 -215q-145 86 -297 86z" />
    <glyph glyph-name="scommaaccent" unicode="&#x219;" horiz-adv-x="894" 
d="M332 -92h254l-207 -531h-201zM453 164q129 0 129 96q0 63 -123 134q-45 26 -61 36l-96 60q-81 50 -109 81q-61 69 -72 108q-10 38 -10 71q0 128 95 206t262 78t302 -69l-41 -195q-133 78 -266 78t-133 -92q0 -35 43 -68t115 -73q72 -41 117 -69q198 -128 198 -271
q1 -144 -103 -220q-104 -75 -271 -75t-318 96l34 186q147 -98 308 -98z" />
    <glyph glyph-name="circumflex" unicode="&#x2c6;" horiz-adv-x="1024" 
d="M397 1444h230l215 -270h-209l-121 135l-121 -135h-209z" />
    <glyph glyph-name="caron" unicode="&#x2c7;" horiz-adv-x="1024" 
d="M627 1174h-230l-215 270h209l121 -135l121 135h209z" />
    <glyph glyph-name="breve" unicode="&#x2d8;" horiz-adv-x="1024" 
d="M512 1329q106 0 109 115h186q-8 -283 -295 -283t-295 283h186q3 -115 109 -115z" />
    <glyph glyph-name="dotaccent" unicode="&#x2d9;" horiz-adv-x="1024" 
d="M389 1309q0 49 34 80t89 31t89 -32q34 -30 34 -79t-34 -80t-89 -31t-89 31t-34 80z" />
    <glyph glyph-name="ring" unicode="&#x2da;" horiz-adv-x="1024" 
d="M586 1323q0 31 -20 50t-54 19q-33 0 -53 -18q-21 -20 -21 -51t20 -50t54 -19t54 18q20 20 20 51zM741 1323q0 -78 -63 -127q-64 -49 -166 -49t-166 49q-63 49 -63 127t63 127q64 49 166 49t166 -49t63 -127z" />
    <glyph glyph-name="ogonek" unicode="&#x2db;" horiz-adv-x="1024" 
d="M518 -156q0 -59 66 -59q45 0 84 20l37 -149q-78 -43 -173 -43q-215 0 -215 170q0 68 42 130q43 62 98 87h184q-123 -72 -123 -156z" />
    <glyph glyph-name="tilde" unicode="&#x2dc;" horiz-adv-x="1024" 
d="M614 1382q51 0 52 74h165q0 -116 -55 -188t-155 -72q-45 0 -122 37t-96 37q-51 0 -51 -74h-166q0 116 56 188t155 72q49 0 123 -37t94 -37z" />
    <glyph glyph-name="hungarumlaut" unicode="&#x2dd;" horiz-adv-x="1024" 
d="M573 1444h250l-149 -270h-176zM231 1444h236l-70 -270h-176z" />
    <glyph glyph-name="Delta" unicode="&#x394;" 
d="M1087 0h-1048l395 1362h258zM817 193l-254 935l-254 -935h508z" />
    <glyph glyph-name="Delta" unicode="&#x2206;" 
d="M1087 0h-1048l395 1362h258zM817 193l-254 935l-254 -935h508z" />
    <glyph glyph-name="Omega" unicode="&#x3a9;" horiz-adv-x="1290" 
d="M645 1348q268 0 431 -162t163 -469q0 -175 -69 -313t-164 -214h217v-190h-506v193q131 69 220 205t89 341t-104 314t-276 109t-277 -110q-105 -108 -105 -312t89 -342t220 -205v-193h-505v190h217q-96 76 -165 214t-69 313q0 307 163 469t431 162z" />
    <glyph glyph-name="Omega" unicode="&#x2126;" horiz-adv-x="1290" 
d="M645 1348q268 0 431 -162t163 -469q0 -175 -69 -313t-164 -214h217v-190h-506v193q131 69 220 205t89 341t-104 314t-276 109t-277 -110q-105 -108 -105 -312t89 -342t220 -205v-193h-505v190h217q-96 76 -165 214t-69 313q0 307 163 469t431 162z" />
    <glyph glyph-name="pi" unicode="&#x3c0;" 
d="M31 1014h1056v-189h-155v-587q0 -61 55 -62q41 0 76 17l33 -177q-72 -36 -165 -36t-149 69q-55 70 -55 180v596h-330v-825h-207v825h-159v189z" />
    <glyph glyph-name="uni0400" unicode="&#x400;" horiz-adv-x="1093" 
d="M248 1755h291l182 -270h-201zM164 365v960h821v-192h-590v-328h553v-193h-553v-243q0 -176 183 -176h423v-193h-409q-227 0 -328 91q-100 92 -100 274z" />
    <glyph glyph-name="afii10023" unicode="&#x401;" horiz-adv-x="1093" 
d="M643 1620q0 49 34 80t89 31t89 -31t34 -80t-34 -80t-89 -31t-89 31t-34 80zM266 1620q0 49 34 80t89 31t89 -31t34 -80t-34 -80t-89 -31t-89 31t-34 80zM164 365v960h821v-192h-590v-328h553v-193h-553v-243q0 -176 183 -176h423v-193h-409q-227 0 -328 91
q-100 92 -100 274z" />
    <glyph glyph-name="afii10051" unicode="&#x402;" horiz-adv-x="1400" 
d="M666 0h-232v1130h-379v195h1014v-195h-403v-323q135 31 260 31q201 0 291 -104t90 -322v-88q0 -250 -119 -390q-51 -59 -146 -135l-135 111q86 86 126 169t40 234v90q0 131 -42 187q-43 56 -159 57q-116 0 -206 -29v-618z" />
    <glyph glyph-name="afii10052" unicode="&#x403;" horiz-adv-x="960" 
d="M528 1755h291l-272 -270h-201zM164 0v1325h751v-195h-520v-1130h-231z" />
    <glyph glyph-name="afii10053" unicode="&#x404;" horiz-adv-x="1091" 
d="M594 1151q-156 0 -213 -90t-57 -303h456v-191h-456q11 -317 149 -370q63 -25 195 -25t272 72l29 -201q-139 -66 -336 -66q-305 0 -428 152t-123 532q0 381 133 533t381 152q186 0 301 -111t123 -262l-201 -21q-16 90 -65 144t-160 55z" />
    <glyph glyph-name="afii10054" unicode="&#x405;" horiz-adv-x="989" 
d="M537 1141q-95 0 -147 -37t-52 -89t28 -84t91 -77l282 -201q176 -123 176 -305t-128 -275t-324 -93q-100 0 -217 34t-199 86l55 201q174 -117 372 -117t198 150q0 72 -113 151l-270 193q-195 137 -195 305t114 265q114 98 314 98t352 -76l-40 -215q-145 86 -297 86z" />
    <glyph glyph-name="afii10055" unicode="&#x406;" horiz-adv-x="600" 
d="M184 0v1325h232v-1325h-232z" />
    <glyph glyph-name="afii10056" unicode="&#x407;" horiz-adv-x="600" 
d="M367 1620q0 49 33 80q34 31 89 31t89 -31t34 -80t-34 -80t-88 -31q-56 0 -90 31q-33 31 -33 80zM-10 1620q0 49 34 80t89 31t89 -31t34 -80t-34 -80t-89 -31t-89 31t-34 80zM184 0v1325h232v-1325h-232z" />
    <glyph glyph-name="afii10057" unicode="&#x408;" horiz-adv-x="688" 
d="M154 186q64 0 105 39q40 39 40 133v967h225v-952q0 -393 -346 -393q-70 0 -119 10v200q31 -4 95 -4z" />
    <glyph glyph-name="afii10058" unicode="&#x409;" horiz-adv-x="1816" 
d="M1257 676h-155v-488h160q119 0 179 56t60 191q0 134 -60 188q-61 53 -184 53zM43 0v195h78q68 0 86 42t22 148l27 940h846v-463h170q473 0 473 -424q0 -210 -128 -324t-349 -114h-398v1149h-401l-23 -756q-6 -223 -90 -308t-233 -85h-80z" />
    <glyph glyph-name="afii10059" unicode="&#x40a;" horiz-adv-x="1964" 
d="M1405 612h-156v-424h160q121 0 180 48t59 171q0 121 -58 163t-185 42zM164 0v1325h231v-526h623v526h231v-526h170q473 0 473 -391q0 -208 -126 -308t-351 -100h-397v612h-623v-612h-231z" />
    <glyph glyph-name="afii10060" unicode="&#x40b;" horiz-adv-x="1378" 
d="M641 0h-231v1130h-369v195h1001v-195h-401v-374q127 53 275 53t248 -75q101 -75 102 -238v-496h-232v453q0 152 -178 151q-92 0 -215 -45v-559z" />
    <glyph glyph-name="afii10061" unicode="&#x40c;" horiz-adv-x="1243" 
d="M649 1755h291l-272 -270h-201zM395 0h-231v1325h231v-545h62l366 545h269l-412 -569q94 -14 162 -74t135 -219l194 -463h-260l-166 397q-39 92 -95 130t-150 38h-105v-565z" />
    <glyph glyph-name="uni040D" unicode="&#x40d;" horiz-adv-x="1345" 
d="M381 1755h291l182 -270h-201zM164 0v1325h213v-950l600 950h205v-1325h-213v954l-602 -954h-203z" />
    <glyph glyph-name="afii10062" unicode="&#x40e;" horiz-adv-x="1187" 
d="M594 1640q106 0 108 115h187q-8 -283 -295 -283t-295 283h186q3 -115 109 -115zM141 0v195q121 -2 221 50t142 120l-424 960h250l313 -743l285 743h243l-303 -799q-112 -290 -288 -408t-439 -118z" />
    <glyph glyph-name="afii10145" unicode="&#x40f;" horiz-adv-x="1335" 
d="M1145 1325v-1325h-389l-11 -293h-161l-13 293h-383v1325h232v-1130h493v1130h232z" />
    <glyph glyph-name="afii10017" unicode="&#x410;" horiz-adv-x="1296" 
d="M631 1061l-209 -561h422zM1036 0l-118 303h-566l-116 -303h-236l530 1325h236l530 -1325h-260z" />
    <glyph glyph-name="afii10018" unicode="&#x411;" horiz-adv-x="1110" 
d="M551 676h-156v-488h160q119 0 179 56t60 191q0 133 -60 187t-183 54zM164 0v1325h684v-176h-453v-287h170q473 0 473 -424q0 -210 -128 -324t-349 -114h-397z" />
    <glyph glyph-name="afii10019" unicode="&#x412;" horiz-adv-x="1206" 
d="M395 596v-403h254q119 0 176 57t58 147q0 199 -248 199h-240zM164 1325h491q185 0 317 -90t132 -246q0 -106 -53 -183t-148 -110q229 -72 230 -299q0 -177 -122 -287t-362 -110h-485v1325zM395 1133v-351h242q102 0 162 46q59 46 59 132q0 172 -240 173h-223z" />
    <glyph glyph-name="afii10020" unicode="&#x413;" horiz-adv-x="960" 
d="M164 0v1325h751v-195h-520v-1130h-231z" />
    <glyph glyph-name="afii10021" unicode="&#x414;" horiz-adv-x="1308" 
d="M1145 1325v-1130h123l-19 -488h-162l-18 293h-817l-21 -293h-161l-19 488h123q92 147 133 368t41 586v176h797zM913 1149h-340q0 -625 -165 -954h505v954z" />
    <glyph glyph-name="afii10022" unicode="&#x415;" horiz-adv-x="1093" 
d="M164 365v960h821v-192h-590v-328h553v-193h-553v-243q0 -176 183 -176h423v-193h-409q-227 0 -328 91q-100 92 -100 274z" />
    <glyph glyph-name="afii10024" unicode="&#x416;" horiz-adv-x="1927" 
d="M1079 0h-231v565h-105q-94 0 -150 -38t-95 -130l-166 -397h-260l194 463q68 160 135 219q68 59 162 74l-411 569h268l366 -545h62v545h231v-545h62l366 545h269l-412 -569q94 -14 162 -74t135 -219l194 -463h-260l-165 397q-40 92 -96 130t-150 38h-105v-565z" />
    <glyph glyph-name="afii10025" unicode="&#x417;" horiz-adv-x="1089" 
d="M506 158q272 0 272 212q0 110 -72 154t-214 45h-146v160h139q115 0 184 67t68 158q0 217 -225 217q-119 0 -165 -59t-56 -158l-189 27q4 156 110 260q106 105 307 105q202 0 321 -96t118 -273q0 -94 -53 -174t-155 -123q124 -35 188 -110t63 -210q0 -196 -138 -290
t-352 -94t-411 153l66 162q152 -133 340 -133z" />
    <glyph glyph-name="afii10026" unicode="&#x418;" horiz-adv-x="1345" 
d="M164 0v1325h213v-950l600 950h205v-1325h-213v954l-602 -954h-203z" />
    <glyph glyph-name="afii10027" unicode="&#x419;" horiz-adv-x="1345" 
d="M674 1640q106 0 108 115h187q-8 -283 -295 -283t-295 283h186q3 -115 109 -115zM164 0v1325h213v-950l600 950h205v-1325h-213v954l-602 -954h-203z" />
    <glyph glyph-name="afii10028" unicode="&#x41a;" horiz-adv-x="1243" 
d="M395 0h-231v1325h231v-545h62l366 545h269l-412 -569q94 -14 162 -74t135 -219l194 -463h-260l-166 397q-39 92 -95 130t-150 38h-105v-565z" />
    <glyph glyph-name="afii10029" unicode="&#x41b;" horiz-adv-x="1286" 
d="M43 0v195h78q68 0 86 42t22 148l27 940h846v-1325h-232v1149h-401l-23 -756q-6 -223 -90 -308t-233 -85h-80z" />
    <glyph glyph-name="afii10030" unicode="&#x41c;" horiz-adv-x="1662" 
d="M410 0h-226v1325h219l428 -684l429 684h219v-1325h-226v920l-315 -512h-213l-315 512v-920z" />
    <glyph glyph-name="afii10031" unicode="&#x41d;" horiz-adv-x="1454" 
d="M184 0v1325h232v-547h622v547h232v-1325h-232v584h-622v-584h-232z" />
    <glyph glyph-name="afii10032" unicode="&#x41e;" horiz-adv-x="1406" 
d="M326 660q0 -84 18 -162t58 -152t117 -118t173 -44q248 0 341 220q48 111 48 255q0 238 -116 374q-92 108 -263 108q-106 0 -183 -44t-117 -119t-58 -154t-18 -164zM702 -20q-288 0 -454 187t-166 491t163 496t459 192t459 -184q162 -184 162 -503q0 -390 -274 -579
q-146 -100 -349 -100z" />
    <glyph glyph-name="afii10033" unicode="&#x41f;" horiz-adv-x="1335" 
d="M1145 1325v-1325h-232v1130h-493v-1130h-232v1325h957z" />
    <glyph glyph-name="afii10034" unicode="&#x420;" horiz-adv-x="1220" 
d="M414 1133v-439h250q104 0 160 66t56 154t-56 154q-56 65 -160 65h-250zM184 0v1325h482q216 0 336 -122t120 -289q0 -168 -121 -290t-337 -122h-250v-502h-230z" />
    <glyph glyph-name="afii10035" unicode="&#x421;" horiz-adv-x="1177" 
d="M709 1346q227 0 378 -76l-40 -211q-145 86 -321 86t-288 -116q-112 -115 -112 -367t112 -367t284 -115q171 0 343 84l53 -186q-176 -98 -426 -98t-430 180t-180 502t180 503t447 181z" />
    <glyph glyph-name="afii10036" unicode="&#x422;" horiz-adv-x="1085" 
d="M428 0v1133h-397v192h1024v-192h-398v-1133h-229z" />
    <glyph glyph-name="afii10037" unicode="&#x423;" horiz-adv-x="1187" 
d="M141 0v195q121 -2 221 50t142 120l-424 960h250l313 -743l285 743h243l-303 -799q-112 -290 -288 -408t-439 -118z" />
    <glyph glyph-name="afii10038" unicode="&#x424;" horiz-adv-x="1409" 
d="M299 656q0 -174 66 -244t223 -78v649q-158 -10 -224 -82t-65 -245zM1110 657q0 174 -66 246t-225 80v-649q163 8 227 78t64 245zM819 1325v-174q518 -18 518 -492q0 -129 -43 -226q-44 -97 -118 -152q-148 -109 -357 -117v-164h-231v164q-204 8 -355 117q-76 55 -118 151
q-43 96 -43 223q0 250 141 367t375 129v174h231z" />
    <glyph glyph-name="afii10039" unicode="&#x425;" horiz-adv-x="1298" 
d="M14 0l506 698l-446 627h288l310 -453l325 453h269l-473 -639l487 -686h-281l-354 512l-362 -512h-269z" />
    <glyph glyph-name="afii10040" unicode="&#x426;" horiz-adv-x="1335" 
d="M188 0v1325h232v-1130h493v1130h232v-1130h123l-19 -488h-162l-18 293h-881z" />
    <glyph glyph-name="afii10041" unicode="&#x427;" horiz-adv-x="1232" 
d="M838 1325h231v-1325h-231v465q-127 -49 -289 -49t-284 90t-122 289v530h232v-508q0 -213 213 -213q111 0 250 51v670z" />
    <glyph glyph-name="afii10042" unicode="&#x428;" horiz-adv-x="1697" 
d="M1534 1325v-1325h-1370v1325h231v-1130h338v1130h232v-1130h338v1130h231z" />
    <glyph glyph-name="afii10043" unicode="&#x429;" horiz-adv-x="1697" 
d="M164 0v1325h231v-1130h338v1130h232v-1130h338v1130h231v-1130h123l-19 -488h-161l-19 293h-1294z" />
    <glyph glyph-name="afii10044" unicode="&#x42a;" horiz-adv-x="1155" 
d="M395 1325v-463h170q473 0 473 -424q0 -210 -128 -324t-349 -114h-397v1149h-187v176h418zM551 676h-156v-488h160q119 0 179 56t60 191q0 133 -60 187t-183 54z" />
    <glyph glyph-name="afii10045" unicode="&#x42b;" horiz-adv-x="1556" 
d="M1174 0v1325h219v-1325h-219zM551 676h-156v-488h160q119 0 179 56t60 191q0 133 -60 187t-183 54zM164 0v1325h231v-463h158q237 0 361 -108t124 -317t-128 -323t-349 -114h-397z" />
    <glyph glyph-name="afii10046" unicode="&#x42c;" horiz-adv-x="1110" 
d="M551 676h-156v-488h160q119 0 179 56t60 191q0 133 -60 187t-183 54zM164 0v1325h231v-463h170q473 0 473 -424q0 -210 -128 -324t-349 -114h-397z" />
    <glyph glyph-name="afii10047" unicode="&#x42d;" horiz-adv-x="1091" 
d="M498 1151q-111 0 -160 -54t-66 -145l-200 21q8 153 123 263t301 110q248 0 381 -153t133 -533t-123 -531q-123 -152 -428 -152q-197 0 -336 66l29 201q139 -72 271 -72t195 25q139 55 150 370h-457v191h457q0 213 -57 303t-213 90z" />
    <glyph glyph-name="afii10048" unicode="&#x42e;" horiz-adv-x="1976" 
d="M972 346q40 -74 117 -118t173 -44q245 0 341 220q46 106 47 215q0 107 -10 171q-40 243 -215 321q-67 30 -163 30t-173 -44t-117 -119q-77 -144 -77 -319q0 -174 77 -313zM1272 -20q-270 0 -433 164t-186 440h-237v-584h-232v1325h232v-547h241q33 256 192 412t441 156
t443 -184q162 -184 161 -503q0 -390 -274 -579q-145 -100 -348 -100z" />
    <glyph glyph-name="afii10049" unicode="&#x42f;" horiz-adv-x="1230" 
d="M815 702v435h-143q-232 1 -234 -215q0 -104 67 -162q67 -57 189 -58h121zM197 922q0 197 121 300q122 103 346 103h383v-1325h-232v510h-72q-147 0 -233 -166l-180 -344h-244l193 373q51 98 99 148t118 75q-131 20 -215 101t-84 225z" />
    <glyph glyph-name="afii10065" unicode="&#x430;" horiz-adv-x="1019" 
d="M645 387v45q-15 2 -101 2t-158 -38t-73 -120q0 -50 34 -78t89 -28q90 0 150 63q59 64 59 154zM479 1034q195 0 291 -90t96 -239v-705h-204v135q-35 -78 -108 -117t-157 -38q-137 0 -224 78t-87 216q0 98 45 168t122 104q140 62 320 62q43 0 80 -4v86q0 158 -204 158
q-136 0 -269 -57l-28 182q133 61 327 61z" />
    <glyph glyph-name="afii10066" unicode="&#x431;" horiz-adv-x="1087" 
d="M547 848q-231 0 -231 -341t230 -341q232 0 232 341t-231 341zM567 1036q201 0 317 -136t117 -391q0 -255 -127 -393q-128 -138 -328 -138t-327 138t-127 392q0 330 45 515t146 269q63 51 153 80q90 30 243 54t206 36v-192q-261 -33 -344 -58q-82 -25 -131 -69
q-72 -70 -76 -189q88 82 233 82z" />
    <glyph glyph-name="afii10067" unicode="&#x432;" horiz-adv-x="999" 
d="M150 1014h366q188 0 282 -60t93 -206q0 -172 -166 -228q199 -43 199 -235q0 -153 -100 -219t-300 -66h-374v1014zM356 856v-270h162q162 0 162 133q0 73 -40 105t-126 32h-158zM356 434v-276h166q96 0 140 32q43 33 43 108q0 76 -41 106t-144 30h-164z" />
    <glyph glyph-name="afii10068" unicode="&#x433;" horiz-adv-x="757" 
d="M150 1014h579v-176h-373v-838h-206v1014z" />
    <glyph glyph-name="afii10069" unicode="&#x434;" horiz-adv-x="1030" 
d="M367 838v-170q0 -328 -82 -492h381v662h-299zM178 670v344h694v-838h103l-6 -469h-172l-4 293h-588l-6 -293h-176l-5 469h74q86 166 86 494z" />
    <glyph glyph-name="afii10070" unicode="&#x435;" horiz-adv-x="1044" 
d="M948 440h-639q27 -272 295 -272q127 0 266 55l37 -184q-150 -61 -301 -62q-229 -1 -380 141q-150 142 -150 388t123 388q123 140 321 140t306 -110q106 -110 122 -312v-172zM721 612q0 236 -195 236q-92 0 -148 -66t-69 -170h412z" />
    <glyph glyph-name="afii10072" unicode="&#x436;" horiz-adv-x="1490" 
d="M645 1014h203v-412h33l315 412h240l-357 -434q97 -18 153 -87t114 -239t100 -254h-217q-23 43 -55 132q-31 89 -44 122q-42 108 -82 146t-120 38h-80v-438h-203v438h-80q-82 0 -128 -43t-97 -199q-51 -157 -78 -196h-217q35 70 99 248t117 246q54 68 151 86l-355 434h240
l313 -412h35v412z" />
    <glyph glyph-name="afii10073" unicode="&#x437;" horiz-adv-x="870" 
d="M389 580q186 0 186 141q1 141 -171 141t-173 -162l-184 21q2 143 97 229t268 86q372 1 372 -286q0 -94 -49 -156t-133 -88q84 -18 140 -76t57 -156q1 -143 -101 -220t-302 -77t-345 101l39 158q116 -94 304 -94t188 143q0 135 -193 135h-158v160h158z" />
    <glyph glyph-name="afii10074" unicode="&#x438;" horiz-adv-x="1103" 
d="M954 1014v-1014h-204v690l-396 -690h-204v1014h204v-715l396 715h204z" />
    <glyph glyph-name="afii10075" unicode="&#x439;" horiz-adv-x="1103" 
d="M954 1014v-1014h-204v690l-396 -690h-204v1014h204v-715l396 715h204zM588 1329q106 0 108 115h187q-8 -283 -295 -283t-295 283h186q3 -115 109 -115z" />
    <glyph glyph-name="afii10076" unicode="&#x43a;" horiz-adv-x="1036" 
d="M150 1014h206v-412h68l315 412h240l-356 -434q98 -18 160 -95t112 -243q50 -167 96 -242h-217q-28 45 -59 135t-41 119q-41 108 -82 146t-121 38h-115v-438h-206v1014z" />
    <glyph glyph-name="afii10077" unicode="&#x43b;" horiz-adv-x="1046" 
d="M897 1014v-1014h-207v838h-313l-19 -414q-10 -216 -85 -316t-259 -108v176q84 14 116 74t36 179q10 300 22 585h709z" />
    <glyph glyph-name="afii10078" unicode="&#x43c;" horiz-adv-x="1398" 
d="M770 78h-180l-236 647l-84 -725h-196l116 1014h232l258 -692l258 692h231l117 -1014h-196l-84 725z" />
    <glyph glyph-name="afii10079" unicode="&#x43d;" horiz-adv-x="1097" 
d="M739 0v449h-383v-449h-206v1014h206v-391h383v391h207v-1014h-207z" />
    <glyph glyph-name="afii10080" unicode="&#x43e;" horiz-adv-x="995" 
d="M760 507q0 341 -232 341t-231 -341q-1 -341 231 -341t232 341zM983 510q0 -256 -127 -394t-328 -138q-202 0 -328 138t-126 392t127 391t333 137t328 -135q121 -135 121 -391z" />
    <glyph glyph-name="afii10081" unicode="&#x43f;" horiz-adv-x="1095" 
d="M739 0v838h-383v-838h-206v1014h796v-1014h-207z" />
    <glyph glyph-name="afii10082" unicode="&#x440;" horiz-adv-x="1114" 
d="M369 631v-426q107 -39 205 -39t166 80t69 257q0 177 -67 261t-168 84t-153 -58t-52 -159zM150 -391v1038q0 182 110 285q111 102 297 102q357 0 445 -268q36 -106 36 -260q0 -242 -129 -384t-315 -142q-119 0 -225 47v-418h-219z" />
    <glyph glyph-name="afii10083" unicode="&#x441;" horiz-adv-x="917" 
d="M76 507q0 253 139 391t356 138q137 0 263 -45l-29 -186q-109 41 -227 41t-196 -83q-77 -83 -77 -254t83 -254t203 -83t234 51l37 -184q-143 -59 -289 -59q-219 0 -358 137t-139 390z" />
    <glyph glyph-name="afii10084" unicode="&#x442;" horiz-adv-x="882" 
d="M31 1014h821v-176h-307v-838h-207v838h-307v176z" />
    <glyph glyph-name="afii10085" unicode="&#x443;" horiz-adv-x="1136" 
d="M973 1014v-1006q0 -208 -123 -316t-326 -108q-96 0 -200 32t-172 81l61 188q145 -111 303 -110q111 0 174 56t64 171v25q-106 -47 -222 -47q-180 0 -284 104t-105 295v635h219v-602q0 -246 195 -246q78 0 197 41v807h219z" />
    <glyph glyph-name="afii10086" unicode="&#x444;" horiz-adv-x="1337" 
d="M1051 505q0 183 -69 260t-220 91v-702q152 16 220 92t69 259zM762 -436h-187v411q-495 35 -495 531t495 530v355h187v-355q496 -34 496 -530t-496 -531v-411zM575 154v702q-151 -14 -221 -91t-70 -260t70 -259q69 -76 221 -92z" />
    <glyph glyph-name="afii10087" unicode="&#x445;" horiz-adv-x="1015" 
d="M4 0l381 528l-340 486h252l217 -320l217 320h250l-346 -500q283 -395 371 -514h-252l-246 352l-250 -352h-254z" />
    <glyph glyph-name="afii10088" unicode="&#x446;" horiz-adv-x="1095" 
d="M739 176v838h207v-838h103l-5 -469h-174l-6 293h-714v1014h206v-838h383z" />
    <glyph glyph-name="afii10089" unicode="&#x447;" horiz-adv-x="1054" 
d="M696 0v406q-91 -50 -150 -65q-60 -15 -120 -15q-145 0 -232 78t-88 239v371h207v-328q0 -98 40 -132t126 -34t217 70v424h209v-1014h-209z" />
    <glyph glyph-name="afii10090" unicode="&#x448;" horiz-adv-x="1558" 
d="M1202 176v838h207v-1014h-1259v1014h206v-838h318v838h209v-838h319z" />
    <glyph glyph-name="afii10091" unicode="&#x449;" horiz-adv-x="1558" 
d="M1202 176v838h207v-838h102l-4 -469h-176l-4 293h-1177v1014h206v-838h318v838h209v-838h319z" />
    <glyph glyph-name="afii10092" unicode="&#x44a;" horiz-adv-x="1046" 
d="M449 164h137q104 0 150 45t46 147q0 193 -225 193q-53 0 -108 -10v-375zM23 838v176h426v-305q59 12 129 12q184 0 298 -86t114 -276q0 -191 -104 -275q-103 -84 -300 -84h-346v838h-217z" />
    <glyph glyph-name="afii10093" unicode="&#x44b;" horiz-adv-x="1413" 
d="M360 164h140q102 0 148 45t46 147q0 193 -223 193q-54 0 -111 -10v-375zM500 0h-348v1014h208v-305q59 12 129 12q186 0 299 -86t113 -276q0 -191 -103 -275t-298 -84zM1057 1014h205v-1014h-205v1014z" />
    <glyph glyph-name="afii10094" unicode="&#x44c;" horiz-adv-x="960" 
d="M360 164h140q102 0 148 45t46 147q0 193 -223 193q-54 0 -111 -10v-375zM500 0h-348v1014h208v-305q59 12 129 12q186 0 299 -86t113 -276q0 -191 -103 -275t-298 -84z" />
    <glyph glyph-name="afii10095" unicode="&#x44d;" horiz-adv-x="903" 
d="M418 1036q213 0 309 -121t96 -405t-103 -408q-104 -125 -290 -125t-354 109l41 150q125 -84 249 -84t177 59t63 211h-383v166h387q-8 158 -49 216t-127 58t-127 -46t-45 -122l-184 19q4 145 87 234t253 89z" />
    <glyph glyph-name="afii10096" unicode="&#x44e;" horiz-adv-x="1460" 
d="M1167 505q0 201 -48 279q-47 78 -155 78t-157 -79t-49 -277t50 -278q50 -78 156 -78t155 78q48 78 48 277zM980 1036q200 0 300 -126t100 -408q0 -526 -415 -527q-399 0 -420 474h-189v-449h-206v1014h206v-391h195q20 213 124 313q105 100 305 100z" />
    <glyph glyph-name="afii10097" unicode="&#x44f;" horiz-adv-x="1009" 
d="M496 856q-176 0 -177 -139q1 -72 45 -111t121 -39h168l6 289h-163zM119 729q0 149 99 217t265 68h377v-1014h-207v406h-139q-68 0 -108 -52t-85 -179q-46 -128 -75 -175h-223q37 52 115 248t151 223q-170 53 -170 258z" />
    <glyph glyph-name="uni0450" unicode="&#x450;" horiz-adv-x="1024" 
d="M137 1444h291l182 -270h-200zM948 440h-639q27 -272 295 -272q127 0 266 55l37 -184q-150 -61 -301 -62q-229 -1 -380 141q-150 142 -150 388t123 388q123 140 321 140t306 -110q106 -110 122 -312v-172zM721 612q0 236 -195 236q-92 0 -148 -66t-69 -170h412z" />
    <glyph glyph-name="afii10071" unicode="&#x451;" horiz-adv-x="1024" 
d="M582 1309q0 49 33 80t89 31t90 -32q34 -30 34 -79t-34 -80t-89 -31t-90 31q-33 31 -33 80zM205 1309q0 49 34 80t89 31t89 -32q34 -30 34 -79t-34 -80t-89 -31t-89 31t-34 80zM948 440h-639q27 -272 295 -272q127 0 266 55l37 -184q-150 -61 -301 -62q-229 -1 -380 141
q-150 142 -150 388t123 388q123 140 321 140t306 -110q106 -110 122 -312v-172zM721 612q0 236 -195 236q-92 0 -148 -66t-69 -170h412z" />
    <glyph glyph-name="afii10099" unicode="&#x452;" horiz-adv-x="1075" 
d="M696 1274v-131h-340v-207q137 100 291 100q299 0 299 -329v-267q0 -227 -60 -352t-196 -231l-117 118q82 79 124 179t42 272v248q0 92 -36 129q-35 37 -131 37t-216 -74v-766h-206v1143h-150v131h150v117l206 36v-153h340z" />
    <glyph glyph-name="afii10100" unicode="&#x453;" horiz-adv-x="757" 
d="M150 1014h579v-176h-373v-838h-206v1014zM512 1444h291l-273 -270h-200z" />
    <glyph glyph-name="afii10101" unicode="&#x454;" horiz-adv-x="903" 
d="M469 862q-86 0 -127 -58t-49 -216h387v-166h-383q10 -152 63 -211t176 -59t250 84l41 -150q-169 -109 -355 -109q-392 0 -392 531q0 288 96 408t309 120q170 0 253 -89t87 -234l-184 -19q-4 76 -45 122t-127 46z" />
    <glyph glyph-name="afii10102" unicode="&#x455;" horiz-adv-x="894" 
d="M453 164q129 0 129 96q0 63 -123 134q-45 26 -61 36l-96 60q-81 50 -109 81q-61 69 -72 108q-10 38 -10 71q0 128 95 206t262 78t302 -69l-41 -195q-133 78 -266 78t-133 -92q0 -35 43 -68t115 -73q72 -41 117 -69q198 -128 198 -271q1 -144 -103 -220q-104 -75 -271 -75
t-318 96l34 186q147 -98 308 -98z" />
    <glyph glyph-name="afii10103" unicode="&#x456;" horiz-adv-x="503" 
d="M143 1294q0 56 36 94t97 38t99 -38q37 -38 37 -94t-37 -91q-37 -36 -99 -36t-97 36q-36 36 -36 91zM166 0v1014h219v-1014h-219z" />
    <glyph glyph-name="afii10104" unicode="&#x457;" horiz-adv-x="503" 
d="M174 0v1014h205v-1014h-205zM354 1309q0 49 34 80t89 31t89 -32q34 -30 34 -79t-34 -80t-89 -31t-89 31t-34 80zM-23 1309q0 49 34 80t89 31t89 -32q34 -30 34 -79t-34 -80t-89 -31t-89 31t-34 80z" />
    <glyph glyph-name="afii10105" unicode="&#x458;" horiz-adv-x="505" 
d="M145 1294q0 56 35 94t97 38t100 -38q37 -38 37 -94t-37 -91q-37 -36 -99 -36t-98 36q-35 36 -35 91zM166 -45v1059h219v-1051q0 -191 -73 -285t-226 -94t-252 66l62 186q80 -49 150 -49t95 37t25 131z" />
    <glyph glyph-name="afii10106" unicode="&#x459;" horiz-adv-x="1484" 
d="M885 164h139q104 0 151 45q46 45 46 147q0 193 -226 193q-53 0 -110 -10v-375zM885 1014v-305q61 12 129 12q184 0 299 -85t115 -276q0 -192 -104 -276q-103 -84 -300 -84h-346v838h-303l-17 -414q-10 -217 -85 -316t-259 -108v180q84 12 116 72t36 178q11 319 22 584
h697z" />
    <glyph glyph-name="afii10107" unicode="&#x45a;" horiz-adv-x="1521" 
d="M922 164h139q104 0 150 45t46 147q0 193 -225 193q-53 0 -110 -10v-375zM715 0v457h-359v-457h-206v1014h206v-381h359v381h207v-305q61 12 127 12q186 0 300 -85q113 -85 113 -276q0 -192 -102 -276t-299 -84h-346z" />
    <glyph glyph-name="afii10108" unicode="&#x45b;" 
d="M166 0v1147h-146v121h146v178h217v-178h170v-121h-170v-217q37 47 103 76t143 28q150 0 247 -94t97 -287v-653h-219v641q0 109 -52 158t-135 49q-82 0 -133 -56t-51 -155v-637h-217z" />
    <glyph glyph-name="afii10109" unicode="&#x45c;" horiz-adv-x="1079" 
d="M150 1014h206v-412h68l315 412h240l-356 -434q98 -18 160 -95t112 -243q50 -167 96 -242h-217q-28 45 -59 135t-41 119q-41 108 -82 146t-121 38h-115v-438h-206v1014zM606 1444h291l-272 -270h-201z" />
    <glyph glyph-name="uni045D" unicode="&#x45d;" horiz-adv-x="1103" 
d="M238 1444h290l183 -270h-201zM954 1014v-1014h-204v690l-396 -690h-204v1014h204v-715l396 715h204z" />
    <glyph glyph-name="afii10110" unicode="&#x45e;" horiz-adv-x="1136" 
d="M573 1329q106 0 109 115h186q-8 -283 -294 -283t-295 283h186q2 -115 108 -115zM973 1014v-1006q0 -208 -123 -316t-326 -108q-96 0 -200 32t-172 81l61 188q145 -111 303 -110q111 0 174 56t64 171v25q-106 -47 -222 -47q-180 0 -284 104t-105 295v635h219v-602
q0 -246 195 -246q78 0 197 41v807h219z" />
    <glyph glyph-name="afii10193" unicode="&#x45f;" horiz-adv-x="1097" 
d="M739 176v838h207v-1014h-303l-4 -293h-178l-6 293h-305v1014h206v-838h383z" />
    <glyph glyph-name="afii10146" unicode="&#x462;" horiz-adv-x="1110" 
d="M551 573h-156v-385h160q127 0 183 36t57 157q-1 121 -57 157t-187 35zM668 877h-273v-117h170q238 0 356 -90q117 -90 117 -285t-126 -290t-351 -95h-397v877h-189v137h189v311h231v-311h273v-137z" />
    <glyph glyph-name="afii10194" unicode="&#x463;" horiz-adv-x="1034" 
d="M432 164h141q104 0 151 45q46 45 46 147q0 188 -225 189q-56 0 -113 -10v-371zM-25 858v156h250v377l207 36v-413h307v-156h-307v-153q66 12 133 12q184 0 298 -83t114 -274q1 -192 -103 -276t-301 -84h-348v858h-250z" />
    <glyph glyph-name="afii10147" unicode="&#x472;" horiz-adv-x="1406" 
d="M702 1141q-168 1 -257 -103t-111 -260h737q-23 156 -112 260t-257 103zM702 184q178 0 268 116q89 116 107 284h-747q10 -106 45 -190t119 -148q84 -62 208 -62zM702 -20q-288 0 -454 187t-166 491t163 496t459 192t459 -184q162 -184 162 -503q0 -390 -274 -579
q-146 -100 -349 -100z" />
    <glyph glyph-name="afii10195" unicode="&#x473;" horiz-adv-x="995" 
d="M499 152q95 0 144 59t57 211h-405q9 -152 59 -211t145 -59zM498 862q-96 0 -146 -61t-57 -215h405q-8 154 -57 215t-145 61zM500 1036q215 0 315 -126t100 -408q0 -524 -415 -525q-207 0 -314 126q-106 126 -106 401q0 532 420 532z" />
    <glyph glyph-name="afii10148" unicode="&#x474;" horiz-adv-x="1329" 
d="M549 0l-529 1325h250l402 -1034l401 1034h236l-533 -1325h-227z" />
    <glyph glyph-name="afii10196" unicode="&#x475;" horiz-adv-x="974" 
d="M373 0l-373 1014h229l273 -768l264 768h209l-361 -1014h-241z" />
    <glyph glyph-name="afii10050" unicode="&#x490;" horiz-adv-x="985" 
d="M922 1130h-527v-1130h-207v1325h523l39 250h172v-445z" />
    <glyph glyph-name="afii10098" unicode="&#x491;" horiz-adv-x="804" 
d="M356 838v-838h-206v1014h448l6 217h162v-393h-410z" />
    <glyph glyph-name="Wgrave" unicode="&#x1e80;" horiz-adv-x="1957" 
d="M625 1755h290l183 -270h-201zM1278 0l-303 1006l-281 -1006h-282l-381 1325h250l276 -1055l305 1055h248l317 -1055l263 1055h237l-366 -1325h-283z" />
    <glyph glyph-name="wgrave" unicode="&#x1e81;" horiz-adv-x="1654" 
d="M477 1444h291l182 -270h-200zM934 1014v-649q0 -91 54 -145t129 -54t125 54t50 145v649h219v-641q1 -193 -111 -293t-291 -100t-280 122q-102 -122 -283 -122t-292 100t-111 293v641h217v-649q0 -91 50 -145t126 -54q75 0 127 54t52 145v649h219z" />
    <glyph glyph-name="Wacute" unicode="&#x1e82;" horiz-adv-x="1957" 
d="M1071 1755h291l-272 -270h-201zM1278 0l-303 1006l-281 -1006h-282l-381 1325h250l276 -1055l305 1055h248l317 -1055l263 1055h237l-366 -1325h-283z" />
    <glyph glyph-name="wacute" unicode="&#x1e83;" horiz-adv-x="1654" 
d="M893 1444h291l-273 -270h-200zM934 1014v-649q0 -91 54 -145t129 -54t125 54t50 145v649h219v-641q1 -193 -111 -293t-291 -100t-280 122q-102 -122 -283 -122t-292 100t-111 293v641h217v-649q0 -91 50 -145t126 -54q75 0 127 54t52 145v649h219z" />
    <glyph glyph-name="Wdieresis" unicode="&#x1e84;" horiz-adv-x="1957" 
d="M1044 1620q0 49 34 80t89 31t89 -31t34 -80t-34 -80t-89 -31t-89 31t-34 80zM668 1620q0 49 33 80t89 31t90 -31t34 -80t-34 -80t-89 -31t-90 31q-33 31 -33 80zM1278 0l-303 1006l-281 -1006h-282l-381 1325h250l276 -1055l305 1055h248l317 -1055l263 1055h237
l-366 -1325h-283z" />
    <glyph glyph-name="wdieresis" unicode="&#x1e85;" horiz-adv-x="1654" 
d="M893 1309q0 49 34 80t89 31t89 -32q34 -30 34 -79t-34 -80t-89 -31t-89 31t-34 80zM516 1309q0 49 34 80t89 31t89 -32q34 -30 34 -79t-34 -80t-89 -31t-89 31t-34 80zM934 1014v-649q0 -91 54 -145t129 -54t125 54t50 145v649h219v-641q1 -193 -111 -293t-291 -100
t-280 122q-102 -122 -283 -122t-292 100t-111 293v641h217v-649q0 -91 50 -145t126 -54q75 0 127 54t52 145v649h219z" />
    <glyph glyph-name="Ygrave" unicode="&#x1ef2;" horiz-adv-x="1153" 
d="M215 1755h291l182 -270h-201zM459 0v510l-459 815h256l334 -590l334 590h229l-465 -819v-506h-229z" />
    <glyph glyph-name="ygrave" unicode="&#x1ef3;" horiz-adv-x="1136" 
d="M229 1444h291l182 -270h-200zM973 1014v-1006q0 -208 -123 -316t-326 -108q-96 0 -200 32t-172 81l61 188q145 -111 303 -110q111 0 174 56t64 171v25q-106 -47 -222 -47q-180 0 -284 104t-105 295v635h219v-602q0 -246 195 -246q78 0 197 41v807h219z" />
    <glyph glyph-name="endash" unicode="&#x2013;" horiz-adv-x="1198" 
d="M141 653h916v-190h-916v190z" />
    <glyph glyph-name="emdash" unicode="&#x2014;" horiz-adv-x="1579" 
d="M141 653h1297v-190h-1297v190z" />
    <glyph glyph-name="quoteleft" unicode="&#x2018;" horiz-adv-x="471" 
d="M74 1032q0 70 35 176t90 178h200q-84 -127 -84 -321q1 -73 17 -139h-252q-6 36 -6 106z" />
    <glyph glyph-name="quoteright" unicode="&#x2019;" horiz-adv-x="471" 
d="M397 1280q0 -70 -35 -176t-90 -178h-200q84 127 84 321q-1 73 -17 139h252q6 -37 6 -106z" />
    <glyph glyph-name="quotesinglbase" unicode="&#x201a;" horiz-adv-x="471" 
d="M397 50q0 -70 -35 -176t-90 -179h-200q84 127 84 321q-1 74 -17 140h252q6 -36 6 -106z" />
    <glyph glyph-name="quotedblleft" unicode="&#x201c;" horiz-adv-x="880" 
d="M311 926h-252q-20 102 15 237t104 223h201q-71 -84 -85 -224t17 -236zM760 926h-252q-20 102 14 237q35 135 105 223h200q-70 -84 -84 -224t17 -236z" />
    <glyph glyph-name="quotedblright" unicode="&#x201d;" horiz-adv-x="880" 
d="M825 1280q-1 -70 -35 -176t-90 -178h-200q88 104 88 293q-1 85 -21 167h252q6 -37 6 -106zM377 1280q0 -70 -35 -176t-90 -178h-201q88 104 88 293q0 85 -20 167h252q6 -37 6 -106z" />
    <glyph glyph-name="quotedblbase" unicode="&#x201e;" horiz-adv-x="880" 
d="M825 50q-1 -70 -35 -176t-90 -179h-200q88 104 88 293q-1 86 -21 168h252q6 -36 6 -106zM377 50q0 -70 -35 -176t-90 -179h-201q88 104 88 293q0 86 -20 168h252q6 -36 6 -106z" />
    <glyph glyph-name="dagger" unicode="&#x2020;" horiz-adv-x="819" 
d="M731 938h-229v-455h-185v455h-229v149h229v238h185v-238h229v-149z" />
    <glyph glyph-name="daggerdbl" unicode="&#x2021;" horiz-adv-x="819" 
d="M88 819h229v168h-229v152h229v186h185v-186h229v-152h-229v-168h229v-151h-229v-185h-185v185h-229v151z" />
    <glyph glyph-name="bullet" unicode="&#x2022;" horiz-adv-x="737" 
d="M370 309q-110 1 -180 65t-69 182q0 118 68 180q69 62 181 62t178 -60q66 -62 66 -181t-66 -183q-68 -64 -178 -65z" />
    <glyph glyph-name="ellipsis" unicode="&#x2026;" horiz-adv-x="1622" 
d="M1212 122q0 68 43 106t112 38t111 -38t42 -106q0 -67 -42 -105q-42 -37 -111 -37t-112 38t-43 104zM102 122q0 68 43 106t112 38t111 -38t42 -106q0 -67 -42 -105q-42 -37 -111 -37t-112 38t-43 104zM657 122q0 68 43 106t112 38t111 -38t42 -106q0 -67 -42 -105
q-42 -37 -111 -37t-112 38t-43 104z" />
    <glyph glyph-name="perthousand" unicode="&#x2030;" horiz-adv-x="2447" 
d="M1456 340q0 109 -48 160t-103 51t-103 -51t-49 -160q0 -109 48 -160q47 -51 103 -51t104 51t48 160zM1640 340q0 -184 -96 -272t-239 -88t-240 88q-96 88 -96 272t96 272q95 88 239 88t240 -88t96 -272zM571 987q0 109 -48 160t-103 51q-56 0 -104 -51t-48 -160t48 -160
t104 -51t103 51q48 51 48 160zM756 987q0 -184 -96 -272t-240 -88q-143 0 -240 88q-96 88 -96 272q0 185 96 273t240 88t240 -88t96 -273zM1214 1325h195l-899 -1325h-195zM2202 340q0 109 -48 160t-104 51q-55 0 -103 -51q-49 -51 -49 -160t48 -160t104 -51t104 51t48 160z
M2386 340q0 -184 -96 -272t-240 -88t-240 88t-96 272t96 272t240 88t240 -88t96 -272z" />
    <glyph glyph-name="guilsinglleft" unicode="&#x2039;" horiz-adv-x="655" 
d="M385 936h233l-323 -381l323 -383h-233l-348 383z" />
    <glyph glyph-name="guilsinglright" unicode="&#x203a;" horiz-adv-x="655" 
d="M37 936h233l348 -381l-348 -383h-233l323 383z" />
    <glyph glyph-name="fraction" unicode="&#x2044;" horiz-adv-x="1093" 
d="M899 1325h195l-899 -1325h-195z" />
    <glyph glyph-name="fraction" unicode="&#x2215;" horiz-adv-x="1093" 
d="M899 1325h195l-899 -1325h-195z" />
    <glyph glyph-name="Euro" unicode="&#x20ac;" 
d="M31 420v151h131q-2 29 -2 87t2 85h-131v154h155q52 217 198 333t363 116t328 -68l-59 -199q-121 53 -277 54q-242 0 -315 -236h547l-41 -154h-535q-2 -27 -2 -85t4 -87h492l-41 -151h-418q88 -233 340 -234q172 0 293 60l53 -197q-137 -69 -349 -69t-367 114t-212 326
h-157z" />
    <glyph glyph-name="trademark" unicode="&#x2122;" horiz-adv-x="1689" 
d="M924 713h-166v612h176l196 -278l199 278h176v-612h-166v374l-141 -221h-133l-141 221v-374zM82 1325h547v-139h-193v-473h-168v473h-186v139z" />
    <glyph glyph-name="product" unicode="&#x220f;" horiz-adv-x="1415" 
d="M164 0v1325h1087v-1325h-231v1130h-625v-1130h-231z" />
    <glyph glyph-name="summation" unicode="&#x2211;" 
d="M106 1325h877v-192h-580l394 -457l-404 -483h637v-193h-924v172l429 504l-429 477v172z" />
    <glyph glyph-name="minus" unicode="&#x2212;" 
d="M113 748h899v-191h-899v191z" />
    <glyph glyph-name="radical" unicode="&#x221a;" 
d="M10 1014h357l211 -731l311 1042h207l-398 -1325h-245l-263 831h-180v183z" />
    <glyph glyph-name="infinity" unicode="&#x221e;" 
d="M842 549q26 1 57 27t31 79t-31 80t-73 27t-58 -12q-36 -25 -55 -47t-45 -48q6 -6 19 -21q13 -14 19 -20t25 -26q18 -20 32 -25q13 -4 23 -8t20 -5t36 -1zM285 762q-27 0 -58 -27t-31 -80t38 -86q37 -33 110 -14q25 6 45 28q20 21 26 26q5 5 21 23t23 23q-5 5 -19 21
t-20 21t-16 17t-23 21q-12 10 -22 13q-9 4 -19 8t-19 5t-36 1zM293 383q-127 0 -207 73q-80 74 -80 200t80 199t207 73q82 0 138 -33t132 -107q76 74 132 107t139 33q126 0 206 -73t80 -200t-80 -199t-206 -73q-82 1 -138 33t-133 106q-76 -74 -132 -106t-138 -33z" />
    <glyph glyph-name="integral" unicode="&#x222b;" horiz-adv-x="729" 
d="M389 1098v-1137q0 -189 -72 -283t-221 -94t-246 64l58 176q76 -51 150 -51t101 40q26 40 25 140v1137q0 379 326 378q123 0 213 -59l-57 -172q-63 43 -139 43t-107 -42t-31 -140z" />
    <glyph glyph-name="approxequal" unicode="&#x2248;" 
d="M756 299q-78 0 -213 50t-176 50q-82 0 -119 -106l-164 69q70 223 281 224q75 0 211 -50t176 -51q86 0 125 109l163 -70q-70 -225 -284 -225zM365 977q75 0 211 -50t176 -50q86 0 125 108l163 -70q-70 -225 -284 -225q-78 0 -213 50t-176 50q-81 1 -119 -106l-164 70
q70 223 281 223z" />
    <glyph glyph-name="notequal" unicode="&#x2260;" 
d="M113 993h516l82 195h157l-82 -195h226v-190h-307l-125 -295h432v-191h-512l-84 -198h-158l84 198h-229v191h309l125 295h-434v190z" />
    <glyph glyph-name="lessequal" unicode="&#x2264;" 
d="M113 190h899v-190h-899v190zM113 799l899 348v-207l-643 -238l643 -237v-205l-899 346v193z" />
    <glyph glyph-name="greaterequal" unicode="&#x2265;" 
d="M115 1147l899 -352v-185l-899 -350v205l643 237l-643 238v207zM113 190h899v-190h-899v190z" />
    <glyph glyph-name="lozenge" unicode="&#x25ca;" 
d="M659 1327l390 -663l-392 -664h-190l-389 664l389 663h192zM563 213l262 451l-262 450l-262 -450z" />
    <glyph glyph-name="CR" horiz-adv-x="552" 
 />
    <glyph glyph-name="th" horiz-adv-x="0" 
 />
    </font>
</defs>
</svg>
