<?xml version="1.0" standalone="no"?>
<!DOCTYPE svg PUBLIC "-//W3C//DTD SVG 1.1//EN" "http://www.w3.org/Graphics/SVG/1.1/DTD/svg11.dtd" >
<svg xmlns="http://www.w3.org/2000/svg">
<metadata>
Created by FontPrep 20130207 at Wed Jul  2 11:47:36 2014
 By Steaw
Copyright All Rights Reserved BNP Paribas Company.
</metadata>
<defs>
<font id="b194ccc071ea8bfc00dfd036dea33bc1" horiz-adv-x='1024' >
  <font-face 
    font-family="BNPPType-Bold"
    font-weight="700"
    font-stretch="normal"
    units-per-em="2048"
    panose-1="2 0 8 3 5 0 0 2 0 3"
    ascent="1638"
    descent="-410"
    x-height="1014"
    cap-height="1325"
    bbox="-160 -522 2390 2230"
    underline-thickness="102"
    underline-position="-102"
    unicode-range="U+0020-FB02"
  />
<missing-glyph horiz-adv-x="614" 
 />
    <glyph glyph-name="fi" unicode="fi" horiz-adv-x="1165" 
d="M168 0v774h-135v240h135v84q0 104 42 182q73 136 264 181q80 19 224 19t306 -44l-23 -250q-160 49 -324 49q-190 0 -198 -137v-84h575v-1014h-270v774h-305v-774h-291z" />
    <glyph glyph-name="fl" unicode="fl" horiz-adv-x="1269" 
d="M848 0v1446h291v-1446h-291zM168 0v774h-135v240h135v98q0 188 123 278t311 91q61 0 152 -15l-25 -252q-63 18 -123 19q-147 0 -147 -123v-96h258v-240h-258v-774h-291z" />
    <glyph glyph-name=".notdef" horiz-adv-x="614" 
 />
    <glyph glyph-name=".null" horiz-adv-x="0" 
 />
    <glyph glyph-name="nonmarkingreturn" horiz-adv-x="681" 
 />
    <glyph glyph-name="space" unicode=" " horiz-adv-x="552" 
 />
    <glyph glyph-name="exclam" unicode="!" horiz-adv-x="563" 
d="M281 -31q-82 0 -130 47t-49 127q0 80 48 127t131 47q82 0 130 -47t48 -127t-48 -127t-130 -47zM420 408h-279l-30 917h340z" />
    <glyph glyph-name="quotedbl" unicode="&#x22;" horiz-adv-x="880" 
d="M504 1386h323l-53 -481h-217zM51 1386h324l-53 -481h-218z" />
    <glyph glyph-name="numbersign" unicode="#" horiz-adv-x="1347" 
d="M541 793l-41 -238h293l41 238h-293zM449 1325h188l-64 -344h295l62 344h203l-64 -344h227l-32 -188h-228l-41 -238h226l-33 -190h-227l-64 -365h-203l66 365h-293l-66 -365h-188l63 365h-225l33 190h227l41 238h-227l33 188h227z" />
    <glyph glyph-name="dollar" unicode="$" 
d="M676 -207h-209v262q-184 10 -393 115l80 252q63 -41 176 -77t205 -36q164 0 163 76q0 43 -36 69q-14 9 -46 25l-299 158q-219 117 -219 307q0 121 100 209t269 111v231h209v-223q174 -12 342 -74l-62 -264q-150 82 -337 82t-187 -66q0 -20 16 -40t34 -29q17 -10 57 -31
l295 -152q199 -104 198 -295q0 -137 -100 -225t-256 -117v-268z" />
    <glyph glyph-name="percent" unicode="%" horiz-adv-x="1679" 
d="M1280 508q-45 0 -75 -40t-29 -130q0 -170 104 -170t104 170q0 90 -29 130q-30 40 -75 40zM1280 -31q-138 1 -238 97t-100 272t99 272t239 96t238 -96q100 -96 100 -272t-100 -272t-238 -97zM397 1159q-45 0 -75 -40t-29 -130q0 -170 104 -170t105 170q0 90 -30 130
t-75 40zM397 621q-139 0 -238 96t-100 272q-1 177 99 273t239 96t239 -96t99 -272q1 -176 -99 -273q-100 -96 -239 -96zM1174 1325h227l-897 -1325h-228z" />
    <glyph glyph-name="ampersand" unicode="&#x26;" horiz-adv-x="1329" 
d="M713 1018q0 40 -28 66t-73 26q-44 0 -72 -27t-28 -67q0 -80 76 -152q125 57 125 154zM950 604h277q0 -213 -72 -328l231 -237v-39h-366l-74 78q-150 -111 -377 -111t-360 111t-135 295q0 225 235 366q-117 131 -117 271t111 244t311 104t313 -97q112 -97 111 -245
q1 -217 -237 -350l137 -158q12 45 12 96zM403 387q0 -145 172 -145q134 0 191 47l-252 256q-111 -61 -111 -158z" />
    <glyph glyph-name="quotesingle" unicode="'" horiz-adv-x="471" 
d="M68 1386h333l-53 -481h-248z" />
    <glyph glyph-name="parenleft" unicode="(" horiz-adv-x="655" 
d="M94 514q0 244 74 488t213 444h262q-291 -446 -291 -918t291 -919h-262q-287 409 -287 905z" />
    <glyph glyph-name="parenright" unicode=")" horiz-adv-x="655" 
d="M561 514q0 -496 -287 -905h-262q291 446 291 918t-291 919h262q139 -200 213 -444t74 -488z" />
    <glyph glyph-name="asterisk" unicode="*" horiz-adv-x="819" 
d="M410 866l-111 -204l-207 157l156 144l-215 16l84 248l200 -117l-53 215h291l-53 -215l200 117l84 -248l-215 -16l156 -144l-207 -157z" />
    <glyph glyph-name="plus" unicode="+" 
d="M100 772h330v307h264v-307h330v-242h-330v-307h-264v307h-330v242z" />
    <glyph glyph-name="comma" unicode="," horiz-adv-x="512" 
d="M147 285h320l-215 -559h-262z" />
    <glyph glyph-name="hyphen" unicode="-" horiz-adv-x="819" 
d="M117 692h583v-272h-583v272z" />
    <glyph glyph-name="hyphen" unicode="&#xad;" horiz-adv-x="819" 
d="M117 692h583v-272h-583v272z" />
    <glyph glyph-name="period" unicode="." horiz-adv-x="512" 
d="M256 -31q-82 0 -130 47t-48 127t48 127t130 47t130 -47t48 -127t-48 -127t-130 -47z" />
    <glyph glyph-name="slash" unicode="/" horiz-adv-x="819" 
d="M557 1438h262l-559 -1532h-260z" />
    <glyph glyph-name="zero" unicode="0" 
d="M563 -33q-262 -1 -396 191t-134 504t134 504t396 192t396 -193q135 -193 135 -503t-134 -503q-134 -192 -397 -192zM563 242q205 0 205 421t-205 420t-205 -421t205 -420z" />
    <glyph glyph-name="one" unicode="1" 
d="M133 0v264h324v754l-324 -105v279l379 133h258v-1061h266v-264h-903z" />
    <glyph glyph-name="two" unicode="2" 
d="M688 948q0 135 -225 135q-78 1 -169 -23t-136 -52l-54 274q174 76 392 76t363 -92q144 -92 145 -297q0 -137 -67 -243t-196 -234l-213 -209h498v-283h-915v219l417 467q59 66 84 96q76 92 76 166z" />
    <glyph glyph-name="three" unicode="3" 
d="M502 1358q212 0 359 -94q146 -94 147 -301q0 -96 -47 -168t-125 -107q94 -37 148 -121t54 -194q0 -195 -143 -299t-358 -105q-274 0 -465 113l73 274q180 -115 373 -114q94 0 148 38q53 38 53 110t-55 108q-55 37 -150 37h-190v258h188q80 1 131 37t51 114
q0 139 -213 139q-164 0 -325 -75l-54 274q188 76 400 76z" />
    <glyph glyph-name="four" unicode="4" 
d="M659 524v508l-317 -508h317zM961 1325v-801h124v-252h-124v-272h-302v272h-622v234l514 819h410z" />
    <glyph glyph-name="five" unicode="5" 
d="M1038 420q0 -199 -145 -326t-369 -127q-272 0 -461 113l74 274q59 -40 168 -76t197 -36q215 0 215 153q0 162 -332 162q-72 0 -244 -14v782h832v-281h-549v-217l59 2q259 0 407 -105t148 -304z" />
    <glyph glyph-name="six" unicode="6" 
d="M572 242q86 0 130 51t46 130q0 79 -48 122t-146 43q-97 0 -179 -62q4 -131 57 -208q54 -76 140 -76zM588 840q211 0 346 -104t135 -301q0 -198 -128 -332q-127 -134 -361 -134t-382 177t-149 505q0 187 50 329q51 142 139 222q175 158 428 158q176 0 366 -74l-67 -274
q-147 72 -289 72t-222 -69q-81 -68 -81 -222q111 47 215 47z" />
    <glyph glyph-name="seven" unicode="7" 
d="M66 1325h974v-246l-528 -1079h-379l557 1044h-624v281z" />
    <glyph glyph-name="eight" unicode="8" 
d="M737 358q0 60 -53 102t-162 93q-133 -74 -133 -184q0 -61 49 -105t126 -43q77 0 125 39t48 98zM567 1106q-73 0 -117 -33t-44 -87q0 -106 198 -179q121 66 121 172q0 61 -43 94t-115 33zM1071 368q-1 -196 -143 -298t-362 -103t-365 105t-145 298t200 312
q-180 115 -180 298q0 182 141 280t350 98t345 -97t136 -281t-184 -294q207 -122 207 -318z" />
    <glyph glyph-name="nine" unicode="9" 
d="M463 242q119 0 187 60t87 204q-90 -53 -223 -53q-213 1 -344 117t-131 316t133 336t380 136t379 -170t132 -502t-139 -526t-422 -193q-246 0 -434 113l73 268q156 -106 322 -106zM541 1083q-82 0 -134 -47t-53 -131q0 -182 191 -182q104 0 188 59q1 301 -192 301z" />
    <glyph glyph-name="colon" unicode=":" horiz-adv-x="512" 
d="M256 696q-82 0 -130 47t-48 127t48 127t130 47t130 -47t48 -127t-48 -127t-130 -47zM256 -31q-82 0 -130 47t-48 127t48 127t130 47t130 -47t48 -127t-48 -127t-130 -47z" />
    <glyph glyph-name="semicolon" unicode=";" horiz-adv-x="512" 
d="M256 696q-82 0 -130 47t-48 127t48 127t130 47t130 -47t48 -127t-48 -127t-130 -47zM111 285h319l-215 -559h-262z" />
    <glyph glyph-name="less" unicode="&#x3c;" 
d="M100 768l924 336v-262l-594 -191l594 -190v-262l-924 336v233z" />
    <glyph glyph-name="equal" unicode="=" 
d="M100 541h924v-242h-924v242zM100 1014h924v-242h-924v242z" />
    <glyph glyph-name="greater" unicode="&#x3e;" 
d="M100 1104l924 -336v-233l-924 -336v262l594 190l-594 191v262z" />
    <glyph glyph-name="question" unicode="?" horiz-adv-x="778" 
d="M371 -31q-82 0 -130 47t-48 127t48 127t130 47t130 -47t48 -127t-48 -127t-130 -47zM342 1358q196 0 305 -84t109 -252q0 -82 -41 -161t-90 -130q-131 -136 -131 -229q0 -39 16 -94h-277q-27 66 -27 146t39 155q38 73 82 117q121 119 119 180q0 84 -116 84
q-145 0 -244 -66l-86 238q146 96 342 96z" />
    <glyph glyph-name="at" unicode="@" horiz-adv-x="1511" 
d="M1081 594v-172q0 -80 64 -80q55 0 88 75t33 179q0 198 -136 318t-378 120t-374 -148t-132 -385t144 -384t394 -147t418 96l45 -148q-207 -106 -463 -106q-174 0 -313 60t-224 160q-175 207 -175 484q0 176 75 326q76 150 236 248q161 98 351 98q361 0 533 -180
q173 -180 173 -414q0 -195 -90 -320t-250 -124q-125 0 -182 75q-74 -73 -201 -73t-223 88t-96 261t102 272t252 99t239 -74q90 -74 90 -204zM834 571q0 102 -84 103q-41 0 -70 -40t-29 -128q0 -162 103 -162q53 0 80 41v186z" />
    <glyph glyph-name="A" unicode="A" horiz-adv-x="1296" 
d="M625 938l-152 -420h299zM956 0l-96 270h-475l-94 -270h-311l518 1325h301l518 -1325h-361z" />
    <glyph glyph-name="B" unicode="B" horiz-adv-x="1206" 
d="M446 799h181q75 0 117 36t42 95t-43 95t-116 36h-181v-262zM446 557v-293h193q76 0 123 37t47 107q0 150 -184 149h-179zM133 0v1325h526q193 0 322 -91t129 -257q0 -193 -164 -283q193 -88 193 -293q0 -181 -127 -291t-375 -110h-504z" />
    <glyph glyph-name="C" unicode="C" horiz-adv-x="1177" 
d="M774 242q170 0 303 67l72 -254q-164 -86 -391 -86q-274 0 -469 157q-98 79 -156 218q-57 140 -57 322t57 320t155 217q193 155 470 155q207 0 362 -72l-53 -274q-147 72 -303 72t-253 -95q-97 -94 -101 -323q8 -424 364 -424z" />
    <glyph glyph-name="D" unicode="D" horiz-adv-x="1327" 
d="M1253 664q1 -336 -159 -500t-521 -164h-409v1325h409q360 -1 520 -163t160 -498zM928 664q0 128 -26 208q-46 143 -203 176q-65 13 -164 13h-58v-797h58q101 0 165 14t120 54q56 41 82 123t26 209z" />
    <glyph glyph-name="E" unicode="E" horiz-adv-x="1093" 
d="M133 383v942h864v-264h-551v-240h517v-264h-517v-170q0 -123 121 -123h445v-264h-451q-238 0 -333 94t-95 289z" />
    <glyph glyph-name="F" unicode="F" horiz-adv-x="1030" 
d="M133 0v942q-1 186 103 284t311 99h426v-264h-420q-106 0 -107 -123v-182h496v-264h-496v-492h-313z" />
    <glyph glyph-name="G" unicode="G" horiz-adv-x="1355" 
d="M408 674q0 -207 89 -320t251 -112q98 0 178 24v219h-236v258h547v-651q-213 -123 -514 -123q-301 1 -475 185t-174 508q0 227 98 388q187 308 608 308q248 0 424 -76l-53 -266q-180 66 -355 66q-176 0 -282 -101q-106 -100 -106 -307z" />
    <glyph glyph-name="H" unicode="H" horiz-adv-x="1454" 
d="M164 0v1325h313v-508h500v508h313v-1325h-313v545h-500v-545h-313z" />
    <glyph glyph-name="I" unicode="I" horiz-adv-x="641" 
d="M477 1325v-1325h-313v1325h313z" />
    <glyph glyph-name="J" unicode="J" horiz-adv-x="688" 
d="M121 242q121 0 121 127v956h313v-940q0 -416 -395 -416q-65 1 -131 15v268q39 -10 92 -10z" />
    <glyph glyph-name="K" unicode="K" horiz-adv-x="1271" 
d="M477 0h-313v1325h313v-516l436 516h344l-473 -549l330 -534h143v-228q-104 -45 -210 -45q-143 0 -216 123l-262 445l-92 -101v-436z" />
    <glyph glyph-name="L" unicode="L" horiz-adv-x="960" 
d="M444 1325v-938q0 -123 123 -123h379v-264h-385q-238 0 -333 94t-95 289v942h311z" />
    <glyph glyph-name="M" unicode="M" horiz-adv-x="1662" 
d="M471 0h-307v1325h278l389 -629l390 629h278v-1325h-307v756l-223 -369h-275l-223 367v-754z" />
    <glyph glyph-name="N" unicode="N" horiz-adv-x="1507" 
d="M164 0v1325h285l600 -817v817h294v-1325h-274l-610 823v-823h-295z" />
    <glyph glyph-name="O" unicode="O" horiz-adv-x="1406" 
d="M408 662q0 -154 57 -276q67 -144 237 -144t238 144q57 123 57 278t-57 274q-68 145 -238 145q-228 0 -281 -279q-13 -68 -13 -142zM1331 662q0 -301 -165 -497t-464 -196q-300 0 -464 196t-164 497q0 300 166 498t462 198t463 -198q166 -198 166 -498z" />
    <glyph glyph-name="P" unicode="P" horiz-adv-x="1220" 
d="M477 1061v-328h176q76 0 120 46t44 118t-44 118t-120 46h-176zM164 0v1325h495q225 0 353 -127t127 -300q0 -173 -127 -299t-355 -126h-180v-473h-313z" />
    <glyph glyph-name="Q" unicode="Q" horiz-adv-x="1406" 
d="M408 662q0 -154 57 -276q67 -144 237 -144t238 144q57 123 57 278t-57 274q-68 145 -238 145q-228 0 -281 -279q-13 -68 -13 -142zM1331 662q0 -236 -104 -413t-297 -245l278 -317h-393l-211 286q-254 33 -392 223t-138 478t166 486t462 198t463 -198q166 -198 166 -498z
" />
    <glyph glyph-name="R" unicode="R" horiz-adv-x="1243" 
d="M477 1061v-328h176q76 0 120 46t44 118t-44 118t-120 46h-176zM164 0v1325h495q238 0 359 -125t121 -301q0 -121 -69 -223t-191 -146l159 -288h144v-228q-104 -45 -207 -45q-158 0 -215 123l-185 381h-98v-473h-313z" />
    <glyph glyph-name="S" unicode="S" horiz-adv-x="989" 
d="M934 366q0 -200 -141 -298t-355 -98t-397 108l74 260q178 -96 335 -96t156 102q0 63 -76 117l-258 180q-203 139 -202 338q0 168 120 273q121 106 336 106t394 -82l-56 -291q-152 98 -325 98q-63 0 -103 -25q-39 -26 -39 -61q-1 -35 15 -59t32 -36q16 -13 52 -38
l254 -174q184 -124 184 -324z" />
    <glyph glyph-name="T" unicode="T" horiz-adv-x="1085" 
d="M387 0v1055h-367v270h1043v-270h-367v-1055h-309z" />
    <glyph glyph-name="U" unicode="U" horiz-adv-x="1390" 
d="M695 -31q-247 0 -405 134t-157 391v831h313v-838q0 -111 68 -179t182 -66q114 0 182 68q67 68 66 177v838h313v-831q0 -258 -157 -392q-158 -133 -405 -133z" />
    <glyph glyph-name="V" unicode="V" horiz-adv-x="1329" 
d="M492 0l-494 1325h330l352 -963l348 963h305l-499 -1325h-342z" />
    <glyph glyph-name="W" unicode="W" horiz-adv-x="1957" 
d="M1231 0l-252 858l-240 -858h-336l-383 1325h334l232 -915l262 915h303l268 -913l213 913h303l-366 -1325h-338z" />
    <glyph glyph-name="X" unicode="X" horiz-adv-x="1298" 
d="M-2 0l479 698l-428 627h369l256 -387l266 387h350l-452 -641l465 -684h-363l-295 440l-291 -440h-356z" />
    <glyph glyph-name="Y" unicode="Y" horiz-adv-x="1153" 
d="M420 0v494l-461 831h332l301 -532l289 532h313l-463 -836v-489h-311z" />
    <glyph glyph-name="Z" unicode="Z" horiz-adv-x="1120" 
d="M63 0v231l592 830h-569v264h958v-231l-585 -830h594v-264h-990z" />
    <glyph glyph-name="bracketleft" unicode="[" horiz-adv-x="655" 
d="M184 1446h439v-238h-185v-1370h185v-229h-439v1837z" />
    <glyph glyph-name="backslash" unicode="\" horiz-adv-x="819" 
d="M0 1438h262l557 -1532h-260z" />
    <glyph glyph-name="bracketright" unicode="]" horiz-adv-x="655" 
d="M33 1446h438v-1837h-438v229h184v1370h-184v238z" />
    <glyph glyph-name="asciicircum" unicode="^" 
d="M739 702l-176 359l-176 -359h-270l325 623h242l326 -623h-271z" />
    <glyph glyph-name="underscore" unicode="_" horiz-adv-x="1286" 
d="M0 -102h1286v-228h-1286v228z" />
    <glyph glyph-name="grave" unicode="`" horiz-adv-x="1024" 
d="M227 1481h359l211 -332h-267z" />
    <glyph glyph-name="a" unicode="a" horiz-adv-x="1019" 
d="M451 197q73 0 113 61t42 152q-29 2 -67 2q-188 0 -189 -123q1 -92 101 -92zM465 1044q195 0 315 -93t121 -289v-662h-283v111q-80 -141 -256 -142q-145 0 -227 83t-82 214q0 164 119 257t354 93q55 0 84 -2v33q-2 78 -48 107q-46 28 -158 28t-240 -51l-41 262
q147 51 342 51z" />
    <glyph glyph-name="b" unicode="b" horiz-adv-x="1112" 
d="M410 614v-211q0 -75 45 -123t121 -48t124 71q49 72 50 211q0 139 -50 204q-50 64 -118 64q-70 0 -121 -45t-51 -123zM410 1446v-469q70 67 238 67t284 -139q117 -139 117 -396q-1 -257 -141 -398t-347 -141t-325 116q-118 117 -117 315v1045h291z" />
    <glyph glyph-name="c" unicode="c" horiz-adv-x="917" 
d="M47 509q0 263 144 399t380 136q127 0 273 -40l-39 -265q-90 43 -193 43q-264 0 -264 -272q0 -142 73 -206t182 -64t216 45l53 -262q-133 -53 -284 -54q-231 1 -386 139t-155 401z" />
    <glyph glyph-name="d" unicode="d" horiz-adv-x="1112" 
d="M702 403v211q0 78 -51 123t-121 45t-118 -64q-50 -64 -50 -204q0 -139 50 -211t125 -72q77 0 121 49t44 123zM702 1446h291v-1045q1 -199 -117 -315t-325 -117t-347 141t-140 399t116 396t284 139t238 -67v469z" />
    <glyph glyph-name="e" unicode="e" horiz-adv-x="1024" 
d="M975 604v-201h-602q37 -174 235 -174q154 0 269 62l53 -256q-138 -66 -354 -66q-216 1 -364 141t-148 392t125 396q126 146 343 146t330 -116t113 -324zM684 608q0 188 -158 189q-68 -1 -110 -49t-43 -140h311z" />
    <glyph glyph-name="f" unicode="f" horiz-adv-x="696" 
d="M168 0v774h-135v240h135v98q0 188 123 278t311 91q61 0 152 -15l-25 -252q-63 18 -123 19q-147 0 -147 -123v-96h258v-240h-258v-774h-291z" />
    <glyph glyph-name="g" unicode="g" horiz-adv-x="1089" 
d="M680 639q0 67 -36 105t-102 38t-110 -51q-43 -51 -55 -107t-12 -116q0 -137 51 -202t135 -65t129 31v367zM971 629v-582q0 -209 -122 -339q-121 -130 -359 -130t-404 105l86 254q137 -100 307 -101q201 0 201 195q-80 -39 -168 -39q-201 0 -324 132q-122 132 -122 389
t142 394t335 137t311 -107t117 -308z" />
    <glyph glyph-name="h" unicode="h" 
d="M131 0v1446h291v-488q90 86 238 86t248 -101q99 -101 100 -290v-653h-291v623q0 160 -146 159q-150 0 -149 -159v-623h-291z" />
    <glyph glyph-name="i" unicode="i" horiz-adv-x="552" 
d="M444 1295q0 -67 -47 -111t-123 -45q-76 1 -122 45t-46 111t46 113t122 46t123 -46t47 -113zM131 0v1014h291v-1014h-291z" />
    <glyph glyph-name="j" unicode="j" horiz-adv-x="552" 
d="M282 1454q76 0 122 -46t46 -113t-46 -111t-122 -45q-76 1 -123 45q-46 44 -46 111t46 113t123 46zM131 -47v1061h291v-1067q0 -183 -95 -275t-239 -92t-240 43l39 250q68 -31 152 -31q92 0 92 111z" />
    <glyph glyph-name="k" unicode="k" horiz-adv-x="1046" 
d="M422 0h-291v1446h291v-778l278 346h326l-342 -432l365 -582h-332l-246 397l-49 -53v-344z" />
    <glyph glyph-name="l" unicode="l" horiz-adv-x="552" 
d="M131 0v1446h291v-1446h-291z" />
    <glyph glyph-name="m" unicode="m" horiz-adv-x="1667" 
d="M548 1044q175 0 286 -116q108 116 284 116t303 -110t127 -305v-629h-291v639q-1 67 -37 105t-102 38t-102 -38t-37 -105v-639h-291v639q0 67 -37 105t-103 38t-102 -38q-37 -38 -36 -105v-639h-291v629q0 197 127 306t302 109z" />
    <glyph glyph-name="n" unicode="n" horiz-adv-x="1114" 
d="M557 1044q178 0 308 -110t130 -305v-629h-290v639q0 67 -41 105t-107 38q-67 0 -107 -39t-40 -104v-639h-291v629q0 197 130 306t308 109z" />
    <glyph glyph-name="o" unicode="o" horiz-adv-x="1058" 
d="M694 507q0 275 -166 275t-166 -275t166 -276q166 1 166 276zM993 508q0 -254 -130 -396t-335 -142q-204 0 -334 142t-131 396q1 254 131 395t334 141t335 -141q130 -141 130 -395z" />
    <glyph glyph-name="p" unicode="p" horiz-adv-x="1112" 
d="M410 639v-377q45 -31 129 -31t135 65t51 181q1 116 -23 182q-44 125 -151 123q-65 0 -103 -38t-38 -105zM1024 508q0 -258 -124 -398t-322 -141q-100 0 -168 33v-393h-291v1020q0 197 129 307q128 110 314 108q186 0 324 -139t138 -397z" />
    <glyph glyph-name="q" unicode="q" horiz-adv-x="1112" 
d="M702 639q0 67 -36 105t-102 38q-68 0 -110 -52q-68 -83 -67 -223q0 -140 51 -208t134 -68t130 31v377zM528 -31q-188 -1 -314 141t-126 399t142 396t335 139t311 -108t117 -307v-1020h-291v393q-68 -33 -174 -33z" />
    <glyph glyph-name="r" unicode="r" horiz-adv-x="733" 
d="M119 0v1014h276v-174q49 86 134 145t196 59v-303q-139 -1 -227 -75t-88 -248v-418h-291z" />
    <glyph glyph-name="s" unicode="s" horiz-adv-x="894" 
d="M827 295q-1 -158 -115 -242t-308 -84t-343 97l58 249q160 -94 303 -94q104 0 104 62q0 17 -8 27l-14 16q-6 6 -18 13t-19 12t-25 13t-27 13q-9 4 -29 14t-32 15q-154 72 -218 138t-64 185q0 164 124 240q124 75 301 75t314 -59l-53 -262q-136 68 -262 68t-125 -66
q-1 -23 23 -39t92 -45t100 -43q133 -66 187 -130t54 -173z" />
    <glyph glyph-name="t" unicode="t" horiz-adv-x="731" 
d="M500 -31q-152 0 -252 85t-101 263v457h-135v240h135v229l293 31v-260h240v-240h-240v-442q0 -100 131 -101q56 1 117 15v-246q-90 -31 -188 -31z" />
    <glyph glyph-name="u" unicode="u" horiz-adv-x="1093" 
d="M547 -31q-176 0 -303 110t-127 306v629h291v-639q0 -68 36 -106t103 -38t103 38t36 106v639h291v-629q0 -197 -127 -307t-303 -109z" />
    <glyph glyph-name="v" unicode="v" horiz-adv-x="974" 
d="M336 0l-336 1014h309l199 -715l184 715h283l-293 -1014h-346z" />
    <glyph glyph-name="w" unicode="w" horiz-adv-x="1654" 
d="M541 -31q-176 0 -303 110t-127 306v629h290v-639q0 -68 37 -106t103 -38q65 0 103 38t38 106v639h291v-639q0 -68 38 -106q37 -38 103 -38t103 38t36 106v639h291v-629q0 -197 -127 -307t-305 -109q-178 0 -285 117q-110 -117 -286 -117z" />
    <glyph glyph-name="x" unicode="x" horiz-adv-x="1015" 
d="M-6 0l336 526l-320 488h338l176 -283l160 283h336l-324 -498l326 -516h-338l-182 319l-168 -319h-340z" />
    <glyph glyph-name="y" unicode="y" horiz-adv-x="1136" 
d="M131 389v625h291v-606q0 -176 158 -177q63 0 120 25v758h293v-967q-1 -211 -117 -340t-354 -129t-403 105l86 254q137 -101 312 -101t181 174q-74 -31 -163 -30q-182 0 -293 108t-111 301z" />
    <glyph glyph-name="z" unicode="z" horiz-adv-x="1613" 
d="M74 0v199l409 561h-397v254h772v-205l-397 -555h413v-254h-800z" />
    <glyph glyph-name="braceleft" unicode="{" horiz-adv-x="655" 
d="M526 -195q61 0 99 11v-222q-59 -14 -125 -14q-160 0 -253 89t-93 274q0 73 11 189t11 168t-38 79t-126 31v213q88 5 126 31t38 79t-11 167t-11 185q0 185 93 275t253 90q55 0 125 -12v-224q-37 10 -99 11q-123 0 -123 -129l21 -357q0 -98 -36 -149t-116 -74
q80 -23 116 -74t36 -149l-21 -359q0 -70 31 -100t92 -29z" />
    <glyph glyph-name="bar" unicode="|" horiz-adv-x="526" 
d="M127 1638h272v-2048h-272v2048z" />
    <glyph glyph-name="braceright" unicode="}" horiz-adv-x="655" 
d="M479 300l23 -357q0 -183 -93 -273t-253 -90q-66 0 -125 14v222q37 -10 98 -11q123 0 123 129l-21 359q0 98 36 149t116 74q-80 23 -116 74t-36 149l21 357q0 70 -31 100t-92 29q-61 0 -98 -11v224q70 12 125 12q160 0 253 -89t93 -276q0 -71 -12 -185t-11 -167
q0 -53 38 -79t126 -31v-213q-88 -4 -126 -31t-38 -79z" />
    <glyph glyph-name="asciitilde" unicode="~" 
d="M733 483q-75 0 -191 49q-116 50 -153 50q-72 1 -110 -109l-211 86q39 127 110 194q72 67 207 66q69 0 189 -49t160 -49q76 0 114 108l211 -86q-80 -260 -326 -260z" />
    <glyph glyph-name="uni00A0" unicode="&#xa0;" horiz-adv-x="348" 
 />
    <glyph glyph-name="exclamdown" unicode="&#xa1;" horiz-adv-x="563" 
d="M287 1044q82 0 130 -47t48 -127t-48 -127t-130 -47t-130 47t-48 127t48 127t130 47zM147 606h279l31 -917h-340z" />
    <glyph glyph-name="cent" unicode="&#xa2;" 
d="M117 538q0 200 91 328t253 176v283h205v-254q135 0 286 -41l-41 -264q-92 43 -200 43q-279 0 -279 -271t277 -272q106 0 219 45l55 -262q-139 -53 -299 -53h-18v-248h-205v283q-158 53 -251 180t-93 327z" />
    <glyph glyph-name="sterling" unicode="&#xa3;" 
d="M221 778v135q0 185 126 315q125 130 353 130t361 -80l-55 -272q-143 78 -283 77q-88 0 -138 -43t-50 -120v-142h413v-209h-413v-94q0 -133 -66 -209h569v-266h-940v219q70 49 97 109t26 153v88h-158v209h158z" />
    <glyph glyph-name="yen" unicode="&#xa5;" horiz-adv-x="1153" 
d="M66 528v209h245l-311 588h332l260 -512l248 512h313l-311 -588h245v-209h-356v-528h-311v528h-354z" />
    <glyph glyph-name="brokenbar" unicode="&#xa6;" horiz-adv-x="526" 
d="M127 1638h272v-821h-272v821zM127 412h272v-822h-272v822z" />
    <glyph glyph-name="section" unicode="&#xa7;" horiz-adv-x="1024" 
d="M381 717q0 -53 70 -94l139 -88q84 10 84 77q0 41 -70 86l-135 86q-88 -8 -88 -67zM893 156q0 -178 -123 -266t-305 -89q-244 0 -414 127l74 260q188 -125 346 -125q125 0 125 76q0 43 -72 88l-268 170q-190 123 -190 292t176 249q-100 104 -101 229q-1 162 105 255
q106 94 300 94t390 -91l-53 -284q-53 55 -143 89t-165 34q-117 0 -116 -76q0 -51 67 -94l277 -174q170 -104 170 -284t-158 -263q78 -76 78 -217z" />
    <glyph glyph-name="dieresis" unicode="&#xa8;" horiz-adv-x="1024" 
d="M565 1315q0 63 44 103t116 40t116 -40t44 -103t-44 -103t-116 -41q-72 1 -116 41t-44 103zM137 1315q0 63 44 103t116 40t116 -40t44 -103t-44 -103t-116 -41q-72 1 -116 41t-44 103z" />
    <glyph glyph-name="copyright" unicode="&#xa9;" horiz-adv-x="1507" 
d="M395 659q0 139 65 233q66 94 154 131q88 36 216 36t210 -58l-41 -180q-76 37 -167 37t-141 -49t-50 -149t53 -150q54 -49 144 -49t172 41l51 -174q-109 -68 -233 -68t-214 36t-154 130t-65 233zM1311 664q0 264 -156 420q-155 156 -401 157q-246 0 -402 -157
q-156 -156 -156 -420t156 -421t402 -157t402 157t155 421zM1425 664q0 -314 -188 -504t-483 -190q-296 0 -484 188q-188 190 -188 506t188 504q188 190 484 190t483 -190q188 -190 188 -504z" />
    <glyph glyph-name="ordfeminine" unicode="&#xaa;" horiz-adv-x="675" 
d="M303 909q70 0 76 105q-121 0 -121 -60q0 -45 45 -45zM571 1159v-373h-178l-2 50q-47 -64 -134 -64t-137 48t-50 126q0 182 303 182v17q0 57 -93 57t-153 -35l-29 158q98 33 213 33q260 0 260 -199z" />
    <glyph glyph-name="guillemotleft" unicode="&#xab;" horiz-adv-x="1228" 
d="M885 946h317l-291 -391l289 -393h-315l-314 393zM338 946h317l-290 -391l288 -393h-315l-313 393z" />
    <glyph glyph-name="logicalnot" unicode="&#xac;" 
d="M102 977h924v-645h-242v403h-682v242z" />
    <glyph glyph-name="registered" unicode="&#xae;" horiz-adv-x="1024" 
d="M512 1358q205 0 331 -125t126 -330t-126 -331t-331 -126t-331 126t-126 331t126 330t331 125zM512 1251q-156 0 -251 -96t-95 -253t95 -253t251 -96t251 96t95 253t-95 253t-251 96zM473 1030v-106h29q55 0 55 57q0 49 -51 49h-33zM317 1130h213q84 0 140 -37
q55 -38 55 -110t-78 -117l47 -82h47v-92q-43 -12 -84 -12q-82 0 -116 74l-37 77h-31v-141h-156v440z" />
    <glyph glyph-name="macron" unicode="&#xaf;" horiz-adv-x="1024" 
d="M219 1434h584v-224h-584v224z" />
    <glyph glyph-name="macron" unicode="&#x2c9;" horiz-adv-x="1024" 
d="M219 1434h584v-224h-584v224z" />
    <glyph glyph-name="degree" unicode="&#xb0;" horiz-adv-x="675" 
d="M338 1358q110 0 186 -77t76 -185t-77 -186q-77 -76 -185 -76t-186 76q-76 76 -76 186t76 186t186 76zM338 1225q-55 0 -88 -37t-33 -92t33 -92t88 -37t88 37t33 92t-33 92t-88 37z" />
    <glyph glyph-name="plusminus" unicode="&#xb1;" 
d="M102 242h924v-242h-924v242zM102 823h330v305h264v-305h330v-241h-330v-306h-264v306h-330v241z" />
    <glyph glyph-name="twosuperior" unicode="&#xb2;" horiz-adv-x="716" 
d="M393 1114q0 62 -93 62t-163 -48l-51 172q90 58 228 58t224 -56q85 -56 85 -176t-150 -256l-90 -84h254v-180h-559v133q239 252 268 281q47 47 47 94z" />
    <glyph glyph-name="threesuperior" unicode="&#xb3;" horiz-adv-x="716" 
d="M310 1358q148 0 232 -56q83 -56 83 -162t-90 -159q106 -57 106 -171t-88 -171t-226 -57t-274 69l49 178q111 -67 211 -67t101 61q0 61 -88 62h-107v164h92q88 0 88 63q0 64 -101 64t-175 -54l-57 172q96 64 244 64z" />
    <glyph glyph-name="acute" unicode="&#xb4;" horiz-adv-x="1024" 
d="M440 1481h357l-301 -332h-269z" />
    <glyph glyph-name="mu" unicode="&#xb5;" 
d="M991 385q0 -193 -99 -305q-98 -112 -250 -111q-152 0 -220 64v-424h-291v1405h291v-654q4 -61 42 -95t102 -34t99 38q36 38 35 106v639h291v-629z" />
    <glyph glyph-name="mu" unicode="&#x3bc;" 
d="M991 385q0 -193 -99 -305q-98 -112 -250 -111q-152 0 -220 64v-424h-291v1405h291v-654q4 -61 42 -95t102 -34t99 38q36 38 35 106v639h291v-629z" />
    <glyph glyph-name="paragraph" unicode="&#xb6;" horiz-adv-x="1290" 
d="M895 0v1325h231v-1325h-231zM782 1325v-1325h-231v473h-37q-225 0 -343 125t-118 301t118 301t341 125h270z" />
    <glyph glyph-name="periodcentered" unicode="&#xb7;" horiz-adv-x="512" 
d="M258 393q-82 0 -130 47t-48 127t48 127t130 47t130 -47t48 -127t-48 -127t-130 -47z" />
    <glyph glyph-name="periodcentered" unicode="&#x2219;" horiz-adv-x="512" 
d="M258 393q-82 0 -130 47t-48 127t48 127t130 47t130 -47t48 -127t-48 -127t-130 -47z" />
    <glyph glyph-name="cedilla" unicode="&#xb8;" horiz-adv-x="1024" 
d="M470 -522q-120 0 -206 49l53 164q57 -35 107 -35t77 15q26 15 25 40q0 57 -116 58q-45 0 -76 -11l76 242h235l-33 -113q145 -39 146 -184q0 -113 -84 -169t-204 -56z" />
    <glyph glyph-name="onesuperior" unicode="&#xb9;" horiz-adv-x="716" 
d="M82 588v168h178v364q-125 -37 -178 -51v176l225 80h176v-569h152v-168h-553z" />
    <glyph glyph-name="ordmasculine" unicode="&#xba;" horiz-adv-x="675" 
d="M336 913q76 1 76 149t-76 148t-76 -148t76 -149zM623 1063q0 -137 -82 -217t-205 -80t-205 80t-82 217t82 216t205 79t205 -79t82 -216z" />
    <glyph glyph-name="guillemotright" unicode="&#xbb;" horiz-adv-x="1228" 
d="M571 946h318l313 -391l-313 -393h-316l289 393zM25 946h317l313 -391l-313 -393h-315l288 393z" />
    <glyph glyph-name="onequarter" unicode="&#xbc;" horiz-adv-x="1638" 
d="M88 588v168h178v364q-125 -37 -178 -51v176l225 80h176v-569h152v-168h-553zM1196 1325h227l-897 -1325h-227zM1274 330v186l-113 -186h113zM1493 772v-442h82v-166h-82v-164h-219v164h-338v131l287 477h270z" />
    <glyph glyph-name="onehalf" unicode="&#xbd;" horiz-adv-x="1638" 
d="M1339 520q0 62 -92 62t-164 -47l-51 172q90 57 228 57t224 -56q85 -56 85 -175t-150 -257l-90 -83h254v-181h-559v133l240 252q6 5 21 21t20 21q34 43 34 81zM88 588v168h178v364q-125 -37 -178 -51v176l225 80h176v-569h152v-168h-553zM1196 1325h227l-897 -1325h-227z
" />
    <glyph glyph-name="threequarters" unicode="&#xbe;" horiz-adv-x="1638" 
d="M362 1358q148 0 231 -56t83 -162t-90 -159q106 -57 106 -171t-88 -171t-226 -57t-274 69l50 178q111 -67 211 -67t100 61t-88 62h-107v164h92q88 0 89 63q1 64 -101 64t-176 -54l-57 172q97 64 245 64zM1190 1325h227l-897 -1325h-227zM1255 330v186q-75 -118 -114 -186
h114zM1473 772v-442h81v-166h-81v-164h-218v164h-340v131l287 477h271z" />
    <glyph glyph-name="questiondown" unicode="&#xbf;" horiz-adv-x="655" 
d="M385 1044q82 0 130 -47t48 -127t-48 -127t-130 -47t-130 47t-48 127t48 127t130 47zM414 -344q-196 0 -305 84t-109 252q0 82 41 161t90 130q131 136 131 229q0 39 -16 94h276q27 -66 27 -146t-38 -155q-38 -74 -82 -118q-120 -120 -120 -179q0 -84 117 -84q145 0 244 66
l86 -238q-146 -96 -342 -96z" />
    <glyph glyph-name="Agrave" unicode="&#xc0;" horiz-adv-x="1296" 
d="M209 1792h358l211 -332h-266zM625 938l-152 -420h299zM956 0l-96 270h-475l-94 -270h-311l518 1325h301l518 -1325h-361z" />
    <glyph glyph-name="Aacute" unicode="&#xc1;" horiz-adv-x="1296" 
d="M686 1792h356l-301 -332h-268zM625 938l-152 -420h299zM956 0l-96 270h-475l-94 -270h-311l518 1325h301l518 -1325h-361z" />
    <glyph glyph-name="Acircumflex" unicode="&#xc2;" horiz-adv-x="1296" 
d="M516 1792h262l264 -332h-266l-129 139l-129 -139h-266zM625 938l-152 -420h299zM956 0l-96 270h-475l-94 -270h-311l518 1325h301l518 -1325h-361z" />
    <glyph glyph-name="Atilde" unicode="&#xc3;" horiz-adv-x="1296" 
d="M530 1794q56 0 138 -43t102 -43q36 0 35 92h184q0 -143 -52 -234t-149 -91q-66 0 -150 51t-99 51q-49 0 -50 -92h-184q0 143 56 226t169 83zM625 938l-152 -420h299zM956 0l-96 270h-475l-94 -270h-311l518 1325h301l518 -1325h-361z" />
    <glyph glyph-name="Adieresis" unicode="&#xc4;" horiz-adv-x="1296" 
d="M702 1626q0 64 44 104t116 40t116 -40t44 -104t-44 -103q-44 -40 -116 -40t-116 40t-44 103zM274 1626q0 64 44 104t116 40t116 -40t44 -104t-44 -103q-44 -40 -116 -40t-116 40t-44 103zM625 938l-152 -420h299zM956 0l-96 270h-475l-94 -270h-311l518 1325h301
l518 -1325h-361z" />
    <glyph glyph-name="Aring" unicode="&#xc5;" horiz-adv-x="1296" 
d="M647 1554q31 0 55 23t23 63q0 40 -24 62q-25 20 -55 20t-54 -20t-23 -62q-1 -42 23 -64t55 -22zM926 1638q0 -90 -77 -146t-203 -56t-202 56t-76 147t76 148q76 56 202 56q126 1 203 -57t77 -148zM625 938l-152 -420h299zM956 0l-96 270h-475l-94 -270h-311l518 1325h301
l518 -1325h-361z" />
    <glyph glyph-name="AE" unicode="&#xc6;" horiz-adv-x="1945" 
d="M985 539v518l-313 -518h313zM1849 1325v-264h-551v-240h517v-264h-517v-170q0 -123 121 -123h445v-264h-451q-215 0 -312 77t-114 234h-452l-189 -311h-309l815 1325h997z" />
    <glyph glyph-name="Ccedilla" unicode="&#xc7;" horiz-adv-x="1177" 
d="M774 242q170 0 303 67l72 -254q-133 -72 -315 -84l-25 -84q145 -39 145 -184q0 -113 -84 -169t-204 -56t-205 49l53 164q58 -35 108 -35q102 0 101 56q0 56 -117 57q-45 0 -76 -11l70 226q-231 43 -378 211q-146 168 -146 471q0 182 57 320t155 217q193 155 470 155
q207 0 362 -72l-53 -274q-147 72 -303 72t-253 -95q-97 -94 -101 -323q8 -424 364 -424z" />
    <glyph glyph-name="Egrave" unicode="&#xc8;" horiz-adv-x="1093" 
d="M190 1792h359l211 -332h-266zM133 383v942h864v-264h-551v-240h517v-264h-517v-170q0 -123 121 -123h445v-264h-451q-238 0 -333 94t-95 289z" />
    <glyph glyph-name="Eacute" unicode="&#xc9;" horiz-adv-x="1093" 
d="M584 1792h356l-301 -332h-268zM133 383v942h864v-264h-551v-240h517v-264h-517v-170q0 -123 121 -123h445v-264h-451q-238 0 -333 94t-95 289z" />
    <glyph glyph-name="Ecircumflex" unicode="&#xca;" horiz-adv-x="1093" 
d="M434 1792h262l265 -332h-267l-129 139l-129 -139h-266zM133 383v942h864v-264h-551v-240h517v-264h-517v-170q0 -123 121 -123h445v-264h-451q-238 0 -333 94t-95 289z" />
    <glyph glyph-name="Edieresis" unicode="&#xcb;" horiz-adv-x="1093" 
d="M637 1626q0 64 44 104t116 40q71 0 115 -40t44 -104t-44 -103q-44 -40 -116 -40t-115 40q-44 40 -44 103zM209 1626q0 64 44 104t116 40q71 0 115 -40t44 -104t-44 -103q-44 -40 -116 -40t-115 40q-44 40 -44 103zM133 383v942h864v-264h-551v-240h517v-264h-517v-170
q0 -123 121 -123h445v-264h-451q-238 0 -333 94t-95 289z" />
    <glyph glyph-name="Igrave" unicode="&#xcc;" horiz-adv-x="641" 
d="M-109 1792h359l211 -332h-266zM477 1325v-1325h-313v1325h313z" />
    <glyph glyph-name="Iacute" unicode="&#xcd;" horiz-adv-x="641" 
d="M389 1792h356l-301 -332h-268zM477 1325v-1325h-313v1325h313z" />
    <glyph glyph-name="Icircumflex" unicode="&#xce;" horiz-adv-x="641" 
d="M190 1792h263l264 -332h-266l-129 139l-129 -139h-267zM477 1325v-1325h-313v1325h313z" />
    <glyph glyph-name="Idieresis" unicode="&#xcf;" horiz-adv-x="641" 
d="M375 1626q0 64 44 104t116 40q71 0 115 -40t44 -104t-44 -103q-44 -40 -116 -40t-115 40q-44 40 -44 103zM-53 1626q0 64 44 104q43 40 115 40t116 -40t44 -104t-44 -103q-44 -40 -116 -40t-116 40t-43 103zM477 1325v-1325h-313v1325h313z" />
    <glyph glyph-name="Eth" unicode="&#xd0;" horiz-adv-x="1327" 
d="M928 664q0 128 -26 208q-46 143 -203 176q-65 13 -164 13h-58v-287h244v-231h-244v-279h58q101 0 165 14t120 54q56 41 82 123t26 209zM8 543v231h156v551h409q361 0 521 -163q160 -162 160 -498t-160 -500t-521 -164h-409v543h-156z" />
    <glyph glyph-name="Ntilde" unicode="&#xd1;" horiz-adv-x="1507" 
d="M637 1794q57 0 138 -43t101 -43q36 0 35 92h185q0 -143 -52 -234t-149 -91q-66 0 -151 51t-99 51q-49 0 -49 -92h-184q0 143 56 226t169 83zM164 0v1325h285l600 -817v817h294v-1325h-274l-610 823v-823h-295z" />
    <glyph glyph-name="Ograve" unicode="&#xd2;" horiz-adv-x="1406" 
d="M274 1792h359l211 -332h-266zM408 662q0 -154 57 -276q67 -144 237 -144t238 144q57 123 57 278t-57 274q-68 145 -238 145q-228 0 -281 -279q-13 -68 -13 -142zM1331 662q0 -301 -165 -497t-464 -196q-300 0 -464 196t-164 497q0 300 166 498t462 198t463 -198
q166 -198 166 -498z" />
    <glyph glyph-name="Oacute" unicode="&#xd3;" horiz-adv-x="1406" 
d="M791 1792h356l-301 -332h-268zM408 662q0 -154 57 -276q67 -144 237 -144t238 144q57 123 57 278t-57 274q-68 145 -238 145q-228 0 -281 -279q-13 -68 -13 -142zM1331 662q0 -301 -165 -497t-464 -196q-300 0 -464 196t-164 497q0 300 166 498t462 198t463 -198
q166 -198 166 -498z" />
    <glyph glyph-name="Ocircumflex" unicode="&#xd4;" horiz-adv-x="1406" 
d="M571 1792h263l264 -332h-267l-129 139l-129 -139h-266zM408 662q0 -154 57 -276q67 -144 237 -144t238 144q57 123 57 278t-57 274q-68 145 -238 145q-228 0 -281 -279q-13 -68 -13 -142zM1331 662q0 -301 -165 -497t-464 -196q-300 0 -464 196t-164 497q0 300 166 498
t462 198t463 -198q166 -198 166 -498z" />
    <glyph glyph-name="Otilde" unicode="&#xd5;" horiz-adv-x="1406" 
d="M586 1794q57 0 138 -43q80 -43 100 -43q36 0 36 92h184q0 -143 -52 -234t-148 -91q-66 0 -151 51t-99 51q-49 0 -49 -92h-185q0 143 56 226t170 83zM408 662q0 -154 57 -276q67 -144 237 -144t238 144q57 123 57 278t-57 274q-68 145 -238 145q-228 0 -281 -279
q-13 -68 -13 -142zM1331 662q0 -301 -165 -497t-464 -196q-300 0 -464 196t-164 497q0 300 166 498t462 198t463 -198q166 -198 166 -498z" />
    <glyph glyph-name="Odieresis" unicode="&#xd6;" horiz-adv-x="1406" 
d="M758 1626q0 64 44 104t116 40t116 -40t43 -104q0 -64 -44 -103q-43 -40 -115 -40t-116 40t-44 103zM330 1626q0 64 44 104t116 40t115 -40q44 -40 44 -104t-44 -103q-44 -40 -116 -40q-71 0 -115 40t-44 103zM408 662q0 -154 57 -276q67 -144 237 -144t238 144
q57 123 57 278t-57 274q-68 145 -238 145q-228 0 -281 -279q-13 -68 -13 -142zM1331 662q0 -301 -165 -497t-464 -196q-300 0 -464 196t-164 497q0 300 166 498t462 198t463 -198q166 -198 166 -498z" />
    <glyph glyph-name="multiply" unicode="&#xd7;" 
d="M379 649l-266 269l182 182l266 -269l268 269l183 -182l-269 -269l269 -266l-183 -182l-268 266l-266 -266l-182 182z" />
    <glyph glyph-name="Oslash" unicode="&#xd8;" horiz-adv-x="1406" 
d="M997 684q0 96 -30 190l-463 -548q74 -84 198 -84q170 0 238 144q57 123 57 298zM408 634q0 -102 30 -188l463 551q-76 86 -199 86q-86 0 -146 -40q-148 -99 -148 -409zM1331 655q0 -294 -165 -490t-464 -196q-231 0 -391 127l-151 -180l-99 84l158 188q-145 186 -145 480
t166 492t462 198q231 0 394 -129l151 180l99 -84l-160 -190q145 -186 145 -480z" />
    <glyph glyph-name="Ugrave" unicode="&#xd9;" horiz-adv-x="1390" 
d="M305 1792h359l210 -332h-266zM695 -31q-247 0 -405 134t-157 391v831h313v-838q0 -111 68 -179t182 -66q114 0 182 68q67 68 66 177v838h313v-831q0 -258 -157 -392q-158 -133 -405 -133z" />
    <glyph glyph-name="Uacute" unicode="&#xda;" horiz-adv-x="1390" 
d="M743 1792h357l-301 -332h-269zM695 -31q-247 0 -405 134t-157 391v831h313v-838q0 -111 68 -179t182 -66q114 0 182 68q67 68 66 177v838h313v-831q0 -258 -157 -392q-158 -133 -405 -133z" />
    <glyph glyph-name="Ucircumflex" unicode="&#xdb;" horiz-adv-x="1390" 
d="M563 1792h262l265 -332h-267l-129 139l-129 -139h-266zM695 -31q-247 0 -405 134t-157 391v831h313v-838q0 -111 68 -179t182 -66q114 0 182 68q67 68 66 177v838h313v-831q0 -258 -157 -392q-158 -133 -405 -133z" />
    <glyph glyph-name="Udieresis" unicode="&#xdc;" horiz-adv-x="1390" 
d="M750 1626q0 64 44 104t116 40t115 -40q44 -40 44 -104t-44 -103q-44 -40 -116 -40q-71 0 -115 40t-44 103zM322 1626q0 64 44 104t116 40t115 -40q44 -40 44 -104t-44 -103q-44 -40 -116 -40q-71 0 -115 40t-44 103zM695 -31q-247 0 -405 134t-157 391v831h313v-838
q0 -111 68 -179t182 -66q114 0 182 68q67 68 66 177v838h313v-831q0 -258 -157 -392q-158 -133 -405 -133z" />
    <glyph glyph-name="Yacute" unicode="&#xdd;" horiz-adv-x="1153" 
d="M649 1792h357l-301 -332h-269zM420 0v494l-461 831h332l301 -532l289 532h313l-463 -836v-489h-311z" />
    <glyph glyph-name="Thorn" unicode="&#xde;" horiz-adv-x="1220" 
d="M477 831v-327h176q76 0 120 46t44 118t-44 118t-120 45h-176zM164 0v1325h313v-229h182q225 0 353 -127t127 -300q0 -173 -127 -299t-355 -126h-180v-244h-313z" />
    <glyph glyph-name="germandbls" unicode="&#xdf;" horiz-adv-x="1095" 
d="M139 1055q0 191 115 289t292 98t288 -94t110 -244q0 -80 -35 -153t-69 -129t-35 -90q0 -34 40 -77t88 -86t88 -119t40 -159q0 -145 -89 -233t-251 -89q-115 0 -223 43l45 246q80 -39 159 -39t78 57q0 68 -121 165q-45 36 -82 104q-38 69 -38 153t63 206q64 122 64 180
t-33 86t-86 28q-131 0 -131 -129v-1069h-277v1055z" />
    <glyph glyph-name="agrave" unicode="&#xe0;" horiz-adv-x="1019" 
d="M113 1481h358l211 -332h-266zM451 197q73 0 113 61t42 152q-29 2 -67 2q-188 0 -189 -123q1 -92 101 -92zM465 1044q195 0 315 -93t121 -289v-662h-283v111q-80 -141 -256 -142q-145 0 -227 83t-82 214q0 164 119 257t354 93q55 0 84 -2v33q-2 78 -48 107q-46 28 -158 28
t-240 -51l-41 262q147 51 342 51z" />
    <glyph glyph-name="aacute" unicode="&#xe1;" horiz-adv-x="1019" 
d="M563 1481h357l-302 -332h-268zM451 197q73 0 113 61t42 152q-29 2 -67 2q-188 0 -189 -123q1 -92 101 -92zM465 1044q195 0 315 -93t121 -289v-662h-283v111q-80 -141 -256 -142q-145 0 -227 83t-82 214q0 164 119 257t354 93q55 0 84 -2v33q-2 78 -48 107
q-46 28 -158 28t-240 -51l-41 262q147 51 342 51z" />
    <glyph glyph-name="acircumflex" unicode="&#xe2;" horiz-adv-x="1019" 
d="M379 1481h262l264 -332h-266l-129 139l-129 -139h-266zM451 197q73 0 113 61t42 152q-29 2 -67 2q-188 0 -189 -123q1 -92 101 -92zM465 1044q195 0 315 -93t121 -289v-662h-283v111q-80 -141 -256 -142q-145 0 -227 83t-82 214q0 164 119 257t354 93q55 0 84 -2v33
q-2 78 -48 107q-46 28 -158 28t-240 -51l-41 262q147 51 342 51z" />
    <glyph glyph-name="atilde" unicode="&#xe3;" horiz-adv-x="1019" 
d="M393 1483q57 0 138 -43t101 -43q20 1 28 23t8 69h184q0 -143 -52 -235t-149 -91q-67 0 -151 51t-99 52q-49 0 -49 -92h-184q0 143 56 226t169 83zM451 197q73 0 113 61t42 152q-29 2 -67 2q-188 0 -189 -123q1 -92 101 -92zM465 1044q195 0 315 -93t121 -289v-662h-283
v111q-80 -141 -256 -142q-145 0 -227 83t-82 214q0 164 119 257t354 93q55 0 84 -2v33q-2 78 -48 107q-46 28 -158 28t-240 -51l-41 262q147 51 342 51z" />
    <glyph glyph-name="adieresis" unicode="&#xe4;" horiz-adv-x="1019" 
d="M565 1315q0 63 44 103t116 40t116 -40t44 -103t-44 -103t-116 -41q-72 1 -116 41t-44 103zM137 1315q0 63 44 103t116 40t116 -40t44 -103t-44 -103t-116 -41q-72 1 -116 41t-44 103zM451 197q73 0 113 61t42 152q-29 2 -67 2q-188 0 -189 -123q1 -92 101 -92zM465 1044
q195 0 315 -93t121 -289v-662h-283v111q-80 -141 -256 -142q-145 0 -227 83t-82 214q0 164 119 257t354 93q55 0 84 -2v33q-2 78 -48 107q-46 28 -158 28t-240 -51l-41 262q147 51 342 51z" />
    <glyph glyph-name="aring" unicode="&#xe5;" horiz-adv-x="1019" 
d="M510 1243q30 0 54 23q24 24 24 64t-24 60t-54 21q-30 0 -54 -20q-24 -19 -24 -61t24 -64t54 -23zM788 1327q0 -90 -76 -146q-76 -57 -203 -57q-126 0 -202 56t-76 148t76 148t202 56t203 -57q76 -58 76 -148zM451 197q73 0 113 61t42 152q-29 2 -67 2q-188 0 -189 -123
q1 -92 101 -92zM465 1044q195 0 315 -93t121 -289v-662h-283v111q-80 -141 -256 -142q-145 0 -227 83t-82 214q0 164 119 257t354 93q55 0 84 -2v33q-2 78 -48 107q-46 28 -158 28t-240 -51l-41 262q147 51 342 51z" />
    <glyph glyph-name="ae" unicode="&#xe6;" horiz-adv-x="1552" 
d="M1212 608q0 188 -157 189q-68 -1 -110 -49t-44 -140h311zM451 197q73 0 113 61t42 152q-29 2 -67 2q-188 0 -189 -123q1 -92 101 -92zM1053 1044q225 0 338 -116t112 -324v-201h-594q39 -176 242 -176q131 0 268 64l54 -256q-164 -66 -334 -66q-281 0 -416 187
q-109 -186 -344 -187q-156 0 -241 81q-85 80 -85 230t119 243t354 93q55 0 84 -2v33q-2 78 -48 107q-46 28 -158 28t-240 -51l-41 262q147 51 346 51t315 -98q111 98 269 98z" />
    <glyph glyph-name="ccedilla" unicode="&#xe7;" horiz-adv-x="917" 
d="M47 508q0 264 144 400t380 136q127 0 273 -40l-39 -265q-90 43 -193 43q-264 0 -264 -272q0 -142 73 -206t182 -64t216 45l53 -262q-133 -53 -284 -54h-4l-23 -82q145 -39 146 -184q0 -113 -84 -169t-204 -56t-206 49l53 164q58 -35 108 -35t76 15t25 40q0 57 -117 58
q-45 0 -75 -11l79 250q-143 54 -229 182t-86 318z" />
    <glyph glyph-name="egrave" unicode="&#xe8;" horiz-adv-x="1024" 
d="M152 1481h358l211 -332h-266zM975 604v-201h-602q37 -174 235 -174q154 0 269 62l53 -256q-138 -66 -354 -66q-216 1 -364 141t-148 392t125 396q126 146 343 146t330 -116t113 -324zM684 608q0 188 -158 189q-68 -1 -110 -49t-43 -140h311z" />
    <glyph glyph-name="eacute" unicode="&#xe9;" horiz-adv-x="1024" 
d="M606 1481h357l-301 -332h-269zM975 604v-201h-602q37 -174 235 -174q154 0 269 62l53 -256q-138 -66 -354 -66q-216 1 -364 141t-148 392t125 396q126 146 343 146t330 -116t113 -324zM684 608q0 188 -158 189q-68 -1 -110 -49t-43 -140h311z" />
    <glyph glyph-name="ecircumflex" unicode="&#xea;" horiz-adv-x="1024" 
d="M383 1481h262l264 -332h-266l-129 139l-129 -139h-266zM975 604v-201h-602q37 -174 235 -174q154 0 269 62l53 -256q-138 -66 -354 -66q-216 1 -364 141t-148 392t125 396q126 146 343 146t330 -116t113 -324zM684 608q0 188 -158 189q-68 -1 -110 -49t-43 -140h311z" />
    <glyph glyph-name="edieresis" unicode="&#xeb;" horiz-adv-x="1024" 
d="M584 1315q0 63 44 103t116 40t115 -40q44 -40 44 -103t-44 -103t-116 -41q-71 1 -115 41t-44 103zM156 1315q0 63 44 103t116 40t115 -40q44 -40 44 -103t-44 -103t-116 -41q-71 1 -115 41t-44 103zM975 604v-201h-602q37 -174 235 -174q154 0 269 62l53 -256
q-138 -66 -354 -66q-216 1 -364 141t-148 392t125 396q126 146 343 146t330 -116t113 -324zM684 608q0 188 -158 189q-68 -1 -110 -49t-43 -140h311z" />
    <glyph glyph-name="igrave" unicode="&#xec;" horiz-adv-x="552" 
d="M-156 1481h359l211 -332h-267zM131 0v1014h291v-1014h-291z" />
    <glyph glyph-name="iacute" unicode="&#xed;" horiz-adv-x="552" 
d="M356 1481h357l-301 -332h-269zM131 0v1014h291v-1014h-291z" />
    <glyph glyph-name="icircumflex" unicode="&#xee;" horiz-adv-x="552" 
d="M145 1481h263l264 -332h-266l-130 139l-129 -139h-266zM131 0v1014h291v-1014h-291z" />
    <glyph glyph-name="idieresis" unicode="&#xef;" horiz-adv-x="552" 
d="M332 1315q0 63 44 103t116 40t116 -40t43 -103q0 -63 -44 -103q-43 -40 -115 -41q-72 1 -116 41t-44 103zM-96 1315q0 63 44 103t116 40t115 -40q44 -40 44 -103t-44 -103t-116 -41q-71 1 -115 41t-44 103zM131 0v1014h291v-1014h-291z" />
    <glyph glyph-name="eth" unicode="&#xf0;" horiz-adv-x="1058" 
d="M360 477q0 -250 168 -250t168 248t-166 248q-92 -1 -131 -61t-39 -185zM991 539q0 -252 -125 -411t-340 -159t-336 134q-120 134 -120 376t117 370q118 128 321 128q53 0 104 -15t72 -36q-39 117 -72 164l-329 -62v217l215 35l-119 166h293q9 -13 76 -113q164 33 274 58
v-215l-158 -33q127 -297 127 -604z" />
    <glyph glyph-name="ntilde" unicode="&#xf1;" horiz-adv-x="1114" 
d="M440 1483q56 0 138 -43t102 -43q36 0 35 92h184q0 -143 -52 -235t-149 -91q-66 0 -150 51t-99 52q-49 0 -50 -92h-184q0 143 56 226t169 83zM557 1044q178 0 308 -110t130 -305v-629h-290v639q0 67 -41 105t-107 38q-67 0 -107 -39t-40 -104v-639h-291v629q0 197 130 306
t308 109z" />
    <glyph glyph-name="ograve" unicode="&#xf2;" horiz-adv-x="1058" 
d="M129 1481h358l211 -332h-266zM694 507q0 275 -166 275t-166 -275t166 -276q166 1 166 276zM993 508q0 -254 -130 -396t-335 -142q-204 0 -334 142t-131 396q1 254 131 395t334 141t335 -141q130 -141 130 -395z" />
    <glyph glyph-name="oacute" unicode="&#xf3;" horiz-adv-x="1058" 
d="M588 1481h356l-301 -332h-268zM694 507q0 275 -166 275t-166 -275t166 -276q166 1 166 276zM993 508q0 -254 -130 -396t-335 -142q-204 0 -334 142t-131 396q1 254 131 395t334 141t335 -141q130 -141 130 -395z" />
    <glyph glyph-name="ocircumflex" unicode="&#xf4;" horiz-adv-x="1058" 
d="M397 1481h262l265 -332h-267l-129 139l-129 -139h-266zM694 507q0 275 -166 275t-166 -275t166 -276q166 1 166 276zM993 508q0 -254 -130 -396t-335 -142q-204 0 -334 142t-131 396q1 254 131 395t334 141t335 -141q130 -141 130 -395z" />
    <glyph glyph-name="otilde" unicode="&#xf5;" horiz-adv-x="1058" 
d="M412 1483q57 0 138 -43q80 -43 100 -43q36 0 36 92h184q0 -143 -52 -235t-148 -91q-66 0 -151 51t-99 52q-49 0 -49 -92h-185q0 143 56 226t170 83zM694 507q0 275 -166 275t-166 -275t166 -276q166 1 166 276zM993 508q0 -254 -130 -396t-335 -142q-204 0 -334 142
t-131 396q1 254 131 395t334 141t335 -141q130 -141 130 -395z" />
    <glyph glyph-name="odieresis" unicode="&#xf6;" horiz-adv-x="1058" 
d="M584 1315q0 63 44 103t116 40t115 -40q44 -40 44 -103t-44 -103t-116 -41q-71 1 -115 41t-44 103zM156 1315q0 63 44 103t116 40t115 -40q44 -40 44 -103t-44 -103t-116 -41q-71 1 -115 41t-44 103zM694 507q0 275 -166 275t-166 -275t166 -276q166 1 166 276zM993 508
q0 -254 -130 -396t-335 -142q-204 0 -334 142t-131 396q1 254 131 395t334 141t335 -141q130 -141 130 -395z" />
    <glyph glyph-name="divide" unicode="&#xf7;" 
d="M100 772h924v-242h-924v242zM395 272q0 72 45 111t121 39t121 -39t45 -111t-45 -110t-121 -39q-76 1 -121 39t-45 110zM393 1032q0 72 45 111t121 39t121 -39t45 -111t-45 -110t-121 -39q-76 1 -121 39t-45 110z" />
    <glyph glyph-name="oslash" unicode="&#xf8;" horiz-adv-x="1058" 
d="M362 508q0 -59 5 -84l270 313q-39 45 -109 45q-166 0 -166 -274zM694 508q0 33 -4 82l-272 -314q41 -45 110 -45q166 1 166 277zM993 508q0 -254 -130 -396q-131 -142 -319 -142t-306 98l-136 -164l-100 96l148 170q-86 133 -87 338q1 254 131 395t318 141t305 -98
l131 154l107 -86l-148 -172q86 -139 86 -334z" />
    <glyph glyph-name="ugrave" unicode="&#xf9;" horiz-adv-x="1093" 
d="M143 1481h359l211 -332h-267zM547 -31q-176 0 -303 110t-127 306v629h291v-639q0 -68 36 -106t103 -38t103 38t36 106v639h291v-629q0 -197 -127 -307t-303 -109z" />
    <glyph glyph-name="uacute" unicode="&#xfa;" horiz-adv-x="1093" 
d="M625 1481h356l-301 -332h-268zM547 -31q-176 0 -303 110t-127 306v629h291v-639q0 -68 36 -106t103 -38t103 38t36 106v639h291v-629q0 -197 -127 -307t-303 -109z" />
    <glyph glyph-name="ucircumflex" unicode="&#xfb;" horiz-adv-x="1093" 
d="M416 1481h262l264 -332h-266l-129 139l-129 -139h-266zM547 -31q-176 0 -303 110t-127 306v629h291v-639q0 -68 36 -106t103 -38t103 38t36 106v639h291v-629q0 -197 -127 -307t-303 -109z" />
    <glyph glyph-name="udieresis" unicode="&#xfc;" horiz-adv-x="1093" 
d="M600 1315q0 63 44 103t116 40t116 -40t44 -103t-44 -103t-116 -41q-72 1 -116 41t-44 103zM172 1315q0 63 44 103t116 40t116 -40t44 -103t-44 -103t-116 -41q-72 1 -116 41t-44 103zM547 -31q-176 0 -303 110t-127 306v629h291v-639q0 -68 36 -106t103 -38t103 38
t36 106v639h291v-629q0 -197 -127 -307t-303 -109z" />
    <glyph glyph-name="yacute" unicode="&#xfd;" horiz-adv-x="1136" 
d="M623 1481h356l-301 -332h-268zM131 389v625h291v-606q0 -176 158 -177q63 0 120 25v758h293v-967q-1 -211 -117 -340t-354 -129t-403 105l86 254q137 -101 312 -101t181 174q-74 -31 -163 -30q-182 0 -293 108t-111 301z" />
    <glyph glyph-name="thorn" unicode="&#xfe;" horiz-adv-x="1124" 
d="M422 639v-377q45 -31 129 -31t135 65t51 179q0 310 -174 307q-65 0 -103 -38t-38 -105zM1036 511q0 -261 -124 -401t-322 -141q-100 0 -168 33v-393h-291v1837h291v-473q78 72 205 71q185 0 297 -136t112 -397z" />
    <glyph glyph-name="ydieresis" unicode="&#xff;" horiz-adv-x="1136" 
d="M623 1315q0 63 44 103q43 40 115 40t116 -40t44 -103t-44 -103t-116 -41q-72 1 -116 41t-43 103zM195 1315q0 63 44 103q43 40 115 40t116 -40t44 -103t-44 -103t-116 -41q-72 1 -116 41t-43 103zM131 389v625h291v-606q0 -176 158 -177q63 0 120 25v758h293v-967
q-1 -211 -117 -340t-354 -129t-403 105l86 254q137 -101 312 -101t181 174q-74 -31 -163 -30q-182 0 -293 108t-111 301z" />
    <glyph glyph-name="Amacron" unicode="&#x100;" horiz-adv-x="1296" 
d="M356 1745h584v-223h-584v223zM625 938l-152 -420h299zM956 0l-96 270h-475l-94 -270h-311l518 1325h301l518 -1325h-361z" />
    <glyph glyph-name="amacron" unicode="&#x101;" horiz-adv-x="1019" 
d="M219 1434h584v-224h-584v224zM451 197q73 0 113 61t42 152q-29 2 -67 2q-188 0 -189 -123q1 -92 101 -92zM465 1044q195 0 315 -93t121 -289v-662h-283v111q-80 -141 -256 -142q-145 0 -227 83t-82 214q0 164 119 257t354 93q55 0 84 -2v33q-2 78 -48 107q-46 28 -158 28
t-240 -51l-41 262q147 51 342 51z" />
    <glyph glyph-name="Abreve" unicode="&#x102;" horiz-adv-x="1296" 
d="M647 1630q49 0 82 42t25 120h213q-11 -342 -321 -342t-318 342h211q-5 -78 27 -120t81 -42zM625 938l-152 -420h299zM956 0l-96 270h-475l-94 -270h-311l518 1325h301l518 -1325h-361z" />
    <glyph glyph-name="abreve" unicode="&#x103;" horiz-adv-x="1019" 
d="M510 1319q49 0 82 42t24 120h213q-11 -342 -321 -342t-318 342h211q-6 -78 27 -120t82 -42zM451 197q73 0 113 61t42 152q-29 2 -67 2q-188 0 -189 -123q1 -92 101 -92zM465 1044q195 0 315 -93t121 -289v-662h-283v111q-80 -141 -256 -142q-145 0 -227 83t-82 214
q0 164 119 257t354 93q55 0 84 -2v33q-2 78 -48 107q-46 28 -158 28t-240 -51l-41 262q147 51 342 51z" />
    <glyph glyph-name="Aogonek" unicode="&#x104;" horiz-adv-x="1296" 
d="M625 938l-152 -420h299zM1130 -156q0 -59 66 -59q45 0 84 20l37 -190q-80 -37 -182 -37t-174 49t-72 156q0 68 42 130t97 87h-72l-96 270h-475l-94 -270h-311l518 1325h301l518 -1325h-64q-123 -72 -123 -156z" />
    <glyph glyph-name="aogonek" unicode="&#x105;" horiz-adv-x="1019" 
d="M451 197q73 0 113 61t42 152q-29 2 -67 2q-188 0 -189 -123q1 -92 101 -92zM618 0v111q-80 -141 -256 -142q-145 0 -227 83t-82 214q0 164 119 257t354 93q55 0 84 -2v33q0 78 -48 107q-48 28 -160 28t-238 -51l-41 262q147 51 342 51t315 -93t121 -289v-662
q-123 -72 -123 -156q0 -59 66 -59q45 0 84 20l37 -190q-81 -37 -183 -37t-174 49t-71 156q0 68 42 130t97 87h-58z" />
    <glyph glyph-name="Cacute" unicode="&#x106;" horiz-adv-x="1177" 
d="M811 1792h356l-301 -332h-268zM774 242q170 0 303 67l72 -254q-164 -86 -391 -86q-274 0 -469 157q-98 79 -156 218q-57 140 -57 322t57 320t155 217q193 155 470 155q207 0 362 -72l-53 -274q-147 72 -303 72t-253 -95q-97 -94 -101 -323q8 -424 364 -424z" />
    <glyph glyph-name="cacute" unicode="&#x107;" horiz-adv-x="917" 
d="M616 1481h357l-301 -332h-269zM47 509q0 263 144 399t380 136q127 0 273 -40l-39 -265q-90 43 -193 43q-264 0 -264 -272q0 -142 73 -206t182 -64t216 45l53 -262q-133 -53 -284 -54q-231 1 -386 139t-155 401z" />
    <glyph glyph-name="Ccircumflex" unicode="&#x108;" horiz-adv-x="1177" 
d="M586 1792h262l264 -332h-266l-129 139l-129 -139h-266zM774 242q170 0 303 67l72 -254q-164 -86 -391 -86q-274 0 -469 157q-98 79 -156 218q-57 140 -57 322t57 320t155 217q193 155 470 155q207 0 362 -72l-53 -274q-147 72 -303 72t-253 -95q-97 -94 -101 -323
q8 -424 364 -424z" />
    <glyph glyph-name="ccircumflex" unicode="&#x109;" horiz-adv-x="917" 
d="M412 1481h262l264 -332h-266l-129 139l-129 -139h-267zM47 509q0 263 144 399t380 136q127 0 273 -40l-39 -265q-90 43 -193 43q-264 0 -264 -272q0 -142 73 -206t182 -64t216 45l53 -262q-133 -53 -284 -54q-231 1 -386 139t-155 401z" />
    <glyph glyph-name="Cdotaccent" unicode="&#x10a;" horiz-adv-x="1177" 
d="M575 1626q1 64 45 104t116 40t115 -40q44 -40 44 -104t-44 -103q-44 -40 -116 -40t-116 40t-44 103zM774 242q170 0 303 67l72 -254q-164 -86 -391 -86q-274 0 -469 157q-98 79 -156 218q-57 140 -57 322t57 320t155 217q193 155 470 155q207 0 362 -72l-53 -274
q-147 72 -303 72t-253 -95q-97 -94 -101 -323q8 -424 364 -424z" />
    <glyph glyph-name="cdotaccent" unicode="&#x10b;" horiz-adv-x="917" 
d="M391 1315q0 63 44 103t116 40t116 -40t44 -103t-44 -103t-116 -41q-72 1 -116 41t-44 103zM47 509q0 263 144 399t380 136q127 0 273 -40l-39 -265q-90 43 -193 43q-264 0 -264 -272q0 -142 73 -206t182 -64t216 45l53 -262q-133 -53 -284 -54q-231 1 -386 139t-155 401z
" />
    <glyph glyph-name="Ccaron" unicode="&#x10c;" horiz-adv-x="1177" 
d="M854 1460h-262l-264 332h266l129 -139l129 139h266zM774 242q170 0 303 67l72 -254q-164 -86 -391 -86q-274 0 -469 157q-98 79 -156 218q-57 140 -57 322t57 320t155 217q193 155 470 155q207 0 362 -72l-53 -274q-147 72 -303 72t-253 -95q-97 -94 -101 -323
q8 -424 364 -424z" />
    <glyph glyph-name="ccaron" unicode="&#x10d;" horiz-adv-x="917" 
d="M659 1149h-262l-264 332h266l129 -140l129 140h267zM47 509q0 263 144 399t380 136q127 0 273 -40l-39 -265q-90 43 -193 43q-264 0 -264 -272q0 -142 73 -206t182 -64t216 45l53 -262q-133 -53 -284 -54q-231 1 -386 139t-155 401z" />
    <glyph glyph-name="Dcaron" unicode="&#x10e;" horiz-adv-x="1327" 
d="M733 1460h-262l-264 332h266l129 -139l129 139h266zM1253 664q1 -336 -159 -500t-521 -164h-409v1325h409q360 -1 520 -163t160 -498zM928 664q0 128 -26 208q-46 143 -203 176q-65 13 -164 13h-58v-797h58q101 0 165 14t120 54q56 41 82 123t26 209z" />
    <glyph glyph-name="dcaron" unicode="&#x10f;" horiz-adv-x="1349" 
d="M702 403v211q0 78 -51 123t-121 45t-118 -64q-50 -64 -50 -204q0 -139 50 -211t125 -72q77 0 121 49t44 123zM702 1446h291v-1045q1 -199 -117 -315t-325 -117t-347 141t-140 399t116 396t284 139t238 -67v469zM1366 1268q0 -190 -123 -363h-225q102 127 102 285
q0 79 -20 196h254q12 -61 12 -118z" />
    <glyph glyph-name="Dcroat" unicode="&#x110;" horiz-adv-x="1327" 
d="M293 1745h584v-223h-584v223zM1253 664q1 -336 -159 -500t-521 -164h-409v1325h409q360 -1 520 -163t160 -498zM928 664q0 128 -26 208q-46 143 -203 176q-65 13 -164 13h-58v-797h58q101 0 165 14t120 54q56 41 82 123t26 209z" />
    <glyph glyph-name="dcroat" unicode="&#x111;" horiz-adv-x="1112" 
d="M702 403v211q0 78 -51 123t-121 45t-118 -64q-50 -64 -50 -204q0 -139 50 -211t125 -72q77 0 121 49t44 123zM702 1290v156h291v-156h156v-133h-156v-756q1 -199 -117 -315t-325 -117t-347 141t-140 399t116 396q117 139 285 139t237 -67v180h-311v133h311z" />
    <glyph glyph-name="Emacron" unicode="&#x112;" horiz-adv-x="1093" 
d="M281 1745h583v-223h-583v223zM133 383v942h864v-264h-551v-240h517v-264h-517v-170q0 -123 121 -123h445v-264h-451q-238 0 -333 94t-95 289z" />
    <glyph glyph-name="emacron" unicode="&#x113;" horiz-adv-x="1024" 
d="M231 1434h584v-224h-584v224zM975 604v-201h-602q37 -174 235 -174q154 0 269 62l53 -256q-138 -66 -354 -66q-216 1 -364 141t-148 392t125 396q126 146 343 146t330 -116t113 -324zM684 608q0 188 -158 189q-68 -1 -110 -49t-43 -140h311z" />
    <glyph glyph-name="Ebreve" unicode="&#x114;" horiz-adv-x="1093" 
d="M574 1630q48 0 81 42t25 120h213q-11 -342 -321 -342t-318 342h211q-6 -78 27 -120q34 -42 82 -42zM133 383v942h864v-264h-551v-240h517v-264h-517v-170q0 -123 121 -123h445v-264h-451q-238 0 -333 94t-95 289z" />
    <glyph glyph-name="ebreve" unicode="&#x115;" horiz-adv-x="1024" 
d="M526 1319q49 0 82 42t25 120h213q-10 -342 -320 -342t-319 342h211q-6 -78 26 -120t82 -42zM975 604v-201h-602q37 -174 235 -174q154 0 269 62l53 -256q-138 -66 -354 -66q-216 1 -364 141t-148 392t125 396q126 146 343 146t330 -116t113 -324zM684 608q0 188 -158 189
q-68 -1 -110 -49t-43 -140h311z" />
    <glyph glyph-name="Edotaccent" unicode="&#x116;" horiz-adv-x="1093" 
d="M414 1626q0 64 44 104t116 40t115 -40q44 -40 44 -104t-44 -103q-44 -40 -116 -40q-71 0 -115 40t-44 103zM133 383v942h864v-264h-551v-240h517v-264h-517v-170q0 -123 121 -123h445v-264h-451q-238 0 -333 94t-95 289z" />
    <glyph glyph-name="edotaccent" unicode="&#x117;" horiz-adv-x="1024" 
d="M383 1315q0 63 44 103t116 40q71 0 115 -40t44 -103t-44 -103t-116 -41q-72 1 -115 41q-44 40 -44 103zM975 604v-201h-602q37 -174 235 -174q154 0 269 62l53 -256q-138 -66 -354 -66q-216 1 -364 141t-148 392t125 396q126 146 343 146t330 -116t113 -324zM684 608
q0 188 -158 189q-68 -1 -110 -49t-43 -140h311z" />
    <glyph glyph-name="Eogonek" unicode="&#x118;" horiz-adv-x="1093" 
d="M561 0q-238 0 -333 94t-95 289v942h864v-264h-551v-240h517v-264h-517v-170q0 -123 121 -123h445v-264q-123 -72 -123 -156q0 -59 65 -59q45 0 84 20l37 -190q-80 -37 -182 -37t-174 49t-72 156q0 68 42 130t97 87h-225z" />
    <glyph glyph-name="eogonek" unicode="&#x119;" horiz-adv-x="1024" 
d="M684 608q0 188 -158 189q-68 -1 -110 -49t-43 -140h311zM975 604v-201h-602q37 -174 235 -174q154 0 269 62l53 -256q-55 -17 -93 -35t-79 -60t-41 -98t65 -57q45 0 84 20l37 -190q-80 -37 -182 -37t-174 49t-72 157t92 185q-225 9 -364 149t-139 388t125 392
q126 146 343 146t330 -116t113 -324z" />
    <glyph glyph-name="Ecaron" unicode="&#x11a;" horiz-adv-x="1093" 
d="M717 1460h-262l-265 332h267l129 -139l129 139h266zM133 383v942h864v-264h-551v-240h517v-264h-517v-170q0 -123 121 -123h445v-264h-451q-238 0 -333 94t-95 289z" />
    <glyph glyph-name="ecaron" unicode="&#x11b;" horiz-adv-x="1024" 
d="M664 1149h-263l-264 332h266l129 -140l130 140h266zM975 604v-201h-602q37 -174 235 -174q154 0 269 62l53 -256q-138 -66 -354 -66q-216 1 -364 141t-148 392t125 396q126 146 343 146t330 -116t113 -324zM684 608q0 188 -158 189q-68 -1 -110 -49t-43 -140h311z" />
    <glyph glyph-name="Gcircumflex" unicode="&#x11c;" horiz-adv-x="1355" 
d="M608 1792h262l265 -332h-267l-129 139l-129 -139h-266zM408 674q0 -207 89 -320t251 -112q98 0 178 24v219h-236v258h547v-651q-213 -123 -514 -123q-301 1 -475 185t-174 508q0 227 98 388q187 308 608 308q248 0 424 -76l-53 -266q-180 66 -355 66q-176 0 -282 -101
q-106 -100 -106 -307z" />
    <glyph glyph-name="gcircumflex" unicode="&#x11d;" horiz-adv-x="1089" 
d="M414 1481h262l264 -332h-266l-129 139l-129 -139h-266zM680 639q0 67 -36 105t-102 38t-110 -51q-43 -51 -55 -107t-12 -116q0 -137 51 -202t135 -65t129 31v367zM971 629v-582q0 -209 -122 -339q-121 -130 -359 -130t-404 105l86 254q137 -100 307 -101q201 0 201 195
q-80 -39 -168 -39q-201 0 -324 132q-122 132 -122 389t142 394t335 137t311 -107t117 -308z" />
    <glyph glyph-name="Gbreve" unicode="&#x11e;" horiz-adv-x="1355" 
d="M762 1630q49 0 82 42t24 120h213q-11 -342 -321 -342t-318 342h211q-6 -78 27 -120t82 -42zM408 674q0 -207 89 -320t251 -112q98 0 178 24v219h-236v258h547v-651q-213 -123 -514 -123q-301 1 -475 185t-174 508q0 227 98 388q187 308 608 308q248 0 424 -76l-53 -266
q-180 66 -355 66q-176 0 -282 -101q-106 -100 -106 -307z" />
    <glyph glyph-name="gbreve" unicode="&#x11f;" horiz-adv-x="1089" 
d="M545 1319q49 0 82 42t24 120h213q-10 -342 -320 -342t-319 342h211q-6 -78 27 -120t82 -42zM680 639q0 67 -36 105t-102 38t-110 -51q-43 -51 -55 -107t-12 -116q0 -137 51 -202t135 -65t129 31v367zM971 629v-582q0 -209 -122 -339q-121 -130 -359 -130t-404 105l86 254
q137 -100 307 -101q201 0 201 195q-80 -39 -168 -39q-201 0 -324 132q-122 132 -122 389t142 394t335 137t311 -107t117 -308z" />
    <glyph glyph-name="Gdotaccent" unicode="&#x120;" horiz-adv-x="1355" 
d="M598 1626q0 64 44 104t116 40t116 -40t44 -104t-44 -103q-44 -40 -116 -40t-116 40t-44 103zM408 674q0 -207 89 -320t251 -112q98 0 178 24v219h-236v258h547v-651q-213 -123 -514 -123q-301 1 -475 185t-174 508q0 227 98 388q187 308 608 308q248 0 424 -76l-53 -266
q-180 66 -355 66q-176 0 -282 -101q-106 -100 -106 -307z" />
    <glyph glyph-name="gdotaccent" unicode="&#x121;" horiz-adv-x="1089" 
d="M385 1315q0 63 44 103t116 40q71 0 115 -40t44 -103t-44 -103t-116 -41q-72 1 -115 41q-44 40 -44 103zM680 639q0 67 -36 105t-102 38t-110 -51q-43 -51 -55 -107t-12 -116q0 -137 51 -202t135 -65t129 31v367zM971 629v-582q0 -209 -122 -339q-121 -130 -359 -130
t-404 105l86 254q137 -100 307 -101q201 0 201 195q-80 -39 -168 -39q-201 0 -324 132q-122 132 -122 389t142 394t335 137t311 -107t117 -308z" />
    <glyph glyph-name="Gcommaaccent" unicode="&#x122;" horiz-adv-x="1355" 
d="M408 674q0 -207 89 -320t251 -112q98 0 178 24v219h-236v258h547v-651q-213 -123 -514 -123q-301 1 -475 185t-174 508q0 227 98 388q187 308 608 308q248 0 424 -76l-53 -266q-180 66 -355 66q-176 0 -282 -101q-106 -100 -106 -307zM604 -109h320l-168 -397h-262z" />
    <glyph glyph-name="gcommaaccent" unicode="&#x123;" horiz-adv-x="1089" 
d="M367 1335q0 188 122 363h287q-102 -127 -102 -285q0 -79 20 -196h-315q-12 61 -12 118zM680 639q0 67 -36 105t-102 38t-110 -51q-43 -51 -55 -107t-12 -116q0 -137 51 -202t135 -65t129 31v367zM971 629v-582q0 -209 -122 -339q-121 -130 -359 -130t-404 105l86 254
q137 -100 307 -101q201 0 201 195q-80 -39 -168 -39q-201 0 -324 132q-122 132 -122 389t142 394t335 137t311 -107t117 -308z" />
    <glyph glyph-name="Hcircumflex" unicode="&#x124;" horiz-adv-x="1454" 
d="M596 1792h262l264 -332h-266l-129 139l-129 -139h-266zM164 0v1325h313v-508h500v508h313v-1325h-313v545h-500v-545h-313z" />
    <glyph glyph-name="hcircumflex" unicode="&#x125;" 
d="M145 1864h263l264 -332h-266l-130 139l-129 -139h-266zM131 0v1446h291v-488q90 86 238 86t248 -101q99 -101 100 -290v-653h-291v623q0 160 -146 159q-150 0 -149 -159v-623h-291z" />
    <glyph glyph-name="Hbar" unicode="&#x126;" horiz-adv-x="1454" 
d="M434 1745h584v-223h-584v223zM164 0v1325h313v-508h500v508h313v-1325h-313v545h-500v-545h-313z" />
    <glyph glyph-name="hbar" unicode="&#x127;" 
d="M131 0v1141h-162v145h162v160h291v-160h321v-145h-321v-183q90 86 238 86t248 -101q99 -101 100 -290v-653h-291v623q0 160 -146 159q-150 0 -149 -159v-623h-291z" />
    <glyph glyph-name="Itilde" unicode="&#x128;" horiz-adv-x="641" 
d="M205 1794q57 0 138 -43t101 -43q36 0 35 92h185q0 -143 -52 -234t-149 -91q-66 0 -151 51t-99 51q-49 0 -49 -92h-184q0 143 56 226t169 83zM477 1325v-1325h-313v1325h313z" />
    <glyph glyph-name="itilde" unicode="&#x129;" horiz-adv-x="552" 
d="M160 1483q57 0 138 -43q80 -43 100 -43q36 0 36 92h184q0 -143 -52 -235t-148 -91q-66 0 -151 51t-99 52q-49 0 -49 -92h-185q0 143 56 226t170 83zM131 0v1014h291v-1014h-291z" />
    <glyph glyph-name="Imacron" unicode="&#x12a;" horiz-adv-x="641" 
d="M29 1745h583v-223h-583v223zM477 1325v-1325h-313v1325h313z" />
    <glyph glyph-name="imacron" unicode="&#x12b;" horiz-adv-x="552" 
d="M-14 1434h583v-224h-583v224zM131 0v1014h291v-1014h-291z" />
    <glyph glyph-name="Ibreve" unicode="&#x12c;" horiz-adv-x="641" 
d="M322 1630q50 0 82 42t24 120h213q-11 -342 -321 -342t-318 342h211q-6 -78 27 -120t82 -42zM477 1325v-1325h-313v1325h313z" />
    <glyph glyph-name="ibreve" unicode="&#x12d;" horiz-adv-x="552" 
d="M276 1319q48 0 82 42q33 42 25 120h213q-10 -342 -320 -342t-319 342h211q-6 -78 27 -120t81 -42zM131 0v1014h291v-1014h-291z" />
    <glyph glyph-name="Iogonek" unicode="&#x12e;" horiz-adv-x="641" 
d="M164 0v1325h313v-1325h-47q-123 -72 -123 -156q0 -59 66 -59q45 0 84 20l37 -190q-80 -37 -182 -37t-175 49q-72 49 -71 156q0 68 42 130t97 87h-41z" />
    <glyph glyph-name="iogonek" unicode="&#x12f;" horiz-adv-x="552" 
d="M131 0v1014h291v-1014h-25q-123 -72 -123 -156q0 -59 66 -59q45 0 84 20l37 -190q-80 -37 -182 -37t-175 49q-72 49 -71 156q0 68 42 130t97 87h-41zM444 1295q0 -67 -47 -111t-123 -45q-76 1 -122 45t-46 111t46 113t122 46t123 -46t47 -113z" />
    <glyph glyph-name="Idotaccent" unicode="&#x130;" horiz-adv-x="641" 
d="M162 1626q0 64 44 104t116 40t116 -40t43 -104q0 -64 -44 -103q-43 -40 -115 -40t-116 40t-44 103zM477 1325v-1325h-313v1325h313z" />
    <glyph glyph-name="dotlessi" unicode="&#x131;" horiz-adv-x="552" 
d="M131 0v1014h291v-1014h-291z" />
    <glyph glyph-name="Jcircumflex" unicode="&#x134;" horiz-adv-x="688" 
d="M260 1792h262l264 -332h-266l-129 139l-129 -139h-266zM121 242q121 0 121 127v956h313v-940q0 -416 -395 -416q-65 1 -131 15v268q39 -10 92 -10z" />
    <glyph glyph-name="jcircumflex" unicode="&#x135;" horiz-adv-x="552" 
d="M145 1481h263l264 -332h-266l-130 139l-129 -139h-266zM131 -47v1061h291v-1067q0 -183 -95 -275t-239 -92t-240 43l39 250q68 -31 152 -31q92 0 92 111z" />
    <glyph glyph-name="Kcommaaccent" unicode="&#x136;" horiz-adv-x="1271" 
d="M477 0h-313v1325h313v-516l436 516h344l-473 -549l330 -534h143v-228q-104 -45 -210 -45q-143 0 -216 123l-262 445l-92 -101v-436zM537 -109h319l-168 -397h-262z" />
    <glyph glyph-name="kcommaaccent" unicode="&#x137;" horiz-adv-x="1046" 
d="M422 0h-291v1446h291v-778l278 346h326l-342 -432l365 -582h-332l-246 397l-49 -53v-344zM416 -109h319l-168 -397h-262z" />
    <glyph glyph-name="Lacute" unicode="&#x139;" horiz-adv-x="960" 
d="M375 1792h356l-301 -332h-268zM444 1325v-938q0 -123 123 -123h379v-264h-385q-238 0 -333 94t-95 289v942h311z" />
    <glyph glyph-name="lacute" unicode="&#x13a;" horiz-adv-x="552" 
d="M354 1868h357l-301 -332h-269zM131 0v1446h291v-1446h-291z" />
    <glyph glyph-name="Lcommaaccent" unicode="&#x13b;" horiz-adv-x="960" 
d="M444 1325v-938q0 -123 123 -123h379v-264h-385q-238 0 -333 94t-95 289v942h311zM444 -109h320l-168 -397h-262z" />
    <glyph glyph-name="lcommaaccent" unicode="&#x13c;" horiz-adv-x="552" 
d="M131 0v1446h291v-1446h-291zM127 -109h319l-167 -397h-263z" />
    <glyph glyph-name="Lcaron" unicode="&#x13d;" horiz-adv-x="960" 
d="M903 1206q0 -190 -123 -362h-286q102 127 102 284q-1 80 -21 197h316q12 -61 12 -119zM444 1325v-938q0 -123 123 -123h379v-264h-385q-238 0 -333 94t-95 289v942h311z" />
    <glyph glyph-name="lcaron" unicode="&#x13e;" horiz-adv-x="778" 
d="M131 0v1446h291v-1446h-291zM532 1386h254q12 -61 13 -118q0 -190 -123 -363h-225q102 127 102 285q-1 79 -21 196z" />
    <glyph glyph-name="Lslash" unicode="&#x141;" horiz-adv-x="960" 
d="M133 1325h311v-485l312 63v-198l-312 -64v-254q0 -123 123 -123h379v-264h-385q-238 0 -333 94t-95 289v195l-133 -27v199l133 26v549z" />
    <glyph glyph-name="lslash" unicode="&#x142;" horiz-adv-x="552" 
d="M131 1446h291v-469l145 82v-260l-145 -82v-717h-291v553l-143 -80v260l143 80v633z" />
    <glyph glyph-name="Nacute" unicode="&#x143;" horiz-adv-x="1507" 
d="M819 1792h357l-302 -332h-268zM164 0v1325h285l600 -817v817h294v-1325h-274l-610 823v-823h-295z" />
    <glyph glyph-name="nacute" unicode="&#x144;" horiz-adv-x="1114" 
d="M625 1481h356l-301 -332h-268zM557 1044q178 0 308 -110t130 -305v-629h-290v639q0 67 -41 105t-107 38q-67 0 -107 -39t-40 -104v-639h-291v629q0 197 130 306t308 109z" />
    <glyph glyph-name="Ncommaaccent" unicode="&#x145;" horiz-adv-x="1507" 
d="M164 0v1325h285l600 -817v817h294v-1325h-274l-610 823v-823h-295zM604 -109h320l-168 -397h-262z" />
    <glyph glyph-name="ncommaaccent" unicode="&#x146;" horiz-adv-x="1114" 
d="M557 1044q178 0 308 -110t130 -305v-629h-290v639q0 67 -41 105t-107 38q-67 0 -107 -39t-40 -104v-639h-291v629q0 197 130 306t308 109zM401 -109h320l-168 -397h-262z" />
    <glyph glyph-name="Ncaron" unicode="&#x147;" horiz-adv-x="1507" 
d="M885 1460h-262l-265 332h267l129 -139l129 139h266zM164 0v1325h285l600 -817v817h294v-1325h-274l-610 823v-823h-295z" />
    <glyph glyph-name="ncaron" unicode="&#x148;" horiz-adv-x="1114" 
d="M688 1149h-262l-264 332h266l129 -140l129 140h266zM557 1044q178 0 308 -110t130 -305v-629h-290v639q0 67 -41 105t-107 38q-67 0 -107 -39t-40 -104v-639h-291v629q0 197 130 306t308 109z" />
    <glyph glyph-name="Eng" unicode="&#x14a;" horiz-adv-x="1507" 
d="M164 0v1325h285l600 -817v817h294v-1331q0 -416 -376 -416q-66 0 -131 14v269q39 -10 92 -11q121 0 121 127v50l-590 796v-823h-295z" />
    <glyph glyph-name="eng" unicode="&#x14b;" horiz-adv-x="1114" 
d="M705 -47v686q0 67 -41 105t-107 38q-67 0 -107 -39t-40 -104v-639h-291v629q0 197 130 307t308 108q178 0 308 -110t130 -305v-682q0 -183 -95 -275q-96 -92 -240 -92t-238 43l39 250q68 -31 151 -31q93 0 93 111z" />
    <glyph glyph-name="Omacron" unicode="&#x14c;" horiz-adv-x="1406" 
d="M412 1745h583v-223h-583v223zM408 662q0 -154 57 -276q67 -144 237 -144t238 144q57 123 57 278t-57 274q-68 145 -238 145q-228 0 -281 -279q-13 -68 -13 -142zM1331 662q0 -301 -165 -497t-464 -196q-300 0 -464 196t-164 497q0 300 166 498t462 198t463 -198
q166 -198 166 -498z" />
    <glyph glyph-name="omacron" unicode="&#x14d;" horiz-adv-x="1058" 
d="M238 1434h583v-224h-583v224zM694 507q0 275 -166 275t-166 -275t166 -276q166 1 166 276zM993 508q0 -254 -130 -396t-335 -142q-204 0 -334 142t-131 396q1 254 131 395t334 141t335 -141q130 -141 130 -395z" />
    <glyph glyph-name="Obreve" unicode="&#x14e;" horiz-adv-x="1406" 
d="M702 1630q48 0 82 42q33 42 25 120h213q-10 -342 -320 -342t-319 342h211q-6 -78 27 -120t81 -42zM408 662q0 -154 57 -276q67 -144 237 -144t238 144q57 123 57 278t-57 274q-68 145 -238 145q-228 0 -281 -279q-13 -68 -13 -142zM1331 662q0 -301 -165 -497t-464 -196
q-300 0 -464 196t-164 497q0 300 166 498t462 198t463 -198q166 -198 166 -498z" />
    <glyph glyph-name="obreve" unicode="&#x14f;" horiz-adv-x="1058" 
d="M528 1319q49 0 82 42t25 120h213q-10 -342 -320 -342t-319 342h211q-6 -78 26 -120t82 -42zM694 507q0 275 -166 275t-166 -275t166 -276q166 1 166 276zM993 508q0 -254 -130 -396t-335 -142q-204 0 -334 142t-131 396q1 254 131 395t334 141t335 -141
q130 -141 130 -395z" />
    <glyph glyph-name="Ohungarumlaut" unicode="&#x150;" horiz-adv-x="1406" 
d="M831 1792h295l-161 -332h-226zM436 1792h285l-78 -332h-211zM408 662q0 -154 57 -276q67 -144 237 -144t238 144q57 123 57 278t-57 274q-68 145 -238 145q-228 0 -281 -279q-13 -68 -13 -142zM1331 662q0 -301 -165 -497t-464 -196q-300 0 -464 196t-164 497
q0 300 166 498t462 198t463 -198q166 -198 166 -498z" />
    <glyph glyph-name="ohungarumlaut" unicode="&#x151;" horiz-adv-x="1058" 
d="M676 1481h295l-162 -332h-225zM281 1481h284l-78 -332h-211zM694 507q0 275 -166 275t-166 -275t166 -276q166 1 166 276zM993 508q0 -254 -130 -396t-335 -142q-204 0 -334 142t-131 396q1 254 131 395t334 141t335 -141q130 -141 130 -395z" />
    <glyph glyph-name="OE" unicode="&#x152;" horiz-adv-x="2000" 
d="M465 937q-57 -123 -57 -277t57 -273q31 -65 91 -105t146 -40q228 0 282 278q13 68 13 140q0 155 -57 277q-68 146 -238 146q-86 0 -146 -40t-91 -106zM702 -31q-292 0 -460 193q-168 192 -168 496t166 502t462 198q217 0 336 -119v86h867v-264h-553v-240h518v-264h-518
v-170q0 -123 123 -123h444v-264h-451q-291 0 -372 147q-57 -82 -161 -130t-233 -48z" />
    <glyph glyph-name="oe" unicode="&#x153;" horiz-adv-x="1658" 
d="M1319 608q0 188 -158 189q-67 -1 -109 -49t-44 -140h311zM694 507q0 275 -166 275t-166 -275t166 -276q166 1 166 276zM1159 1044q225 0 338 -116t113 -324v-201h-594q39 -176 241 -176q131 0 269 64l53 -256q-164 -66 -330 -66q-246 0 -389 152q-117 -152 -327 -152
q-209 1 -339 143t-131 396q1 254 131 395t334 141t322 -139q49 59 130 99t179 40z" />
    <glyph glyph-name="Racute" unicode="&#x154;" horiz-adv-x="1243" 
d="M631 1792h356l-301 -332h-268zM477 1061v-328h176q76 0 120 46t44 118t-44 118t-120 46h-176zM164 0v1325h495q238 0 359 -125t121 -301q0 -121 -69 -223t-191 -146l159 -288h144v-228q-104 -45 -207 -45q-158 0 -215 123l-185 381h-98v-473h-313z" />
    <glyph glyph-name="racute" unicode="&#x155;" horiz-adv-x="733" 
d="M358 1481h357l-301 -332h-269zM119 0v1014h276v-174q49 86 134 145t196 59v-303q-139 -1 -227 -75t-88 -248v-418h-291z" />
    <glyph glyph-name="Rcommaaccent" unicode="&#x156;" horiz-adv-x="1243" 
d="M477 1061v-328h176q76 0 120 46t44 118t-44 118t-120 46h-176zM164 0v1325h495q238 0 359 -125t121 -301q0 -121 -69 -223t-191 -146l159 -288h144v-228q-104 -45 -207 -45q-158 0 -215 123l-185 381h-98v-473h-313zM463 -109h319l-168 -397h-262z" />
    <glyph glyph-name="rcommaaccent" unicode="&#x157;" horiz-adv-x="733" 
d="M119 0v1014h276v-174q49 86 134 145t196 59v-303q-139 -1 -227 -75t-88 -248v-418h-291zM115 -109h319l-168 -397h-262z" />
    <glyph glyph-name="Rcaron" unicode="&#x158;" horiz-adv-x="1243" 
d="M707 1460h-263l-264 332h266l129 -139l130 139h266zM477 1061v-328h176q76 0 120 46t44 118t-44 118t-120 46h-176zM164 0v1325h495q238 0 359 -125t121 -301q0 -121 -69 -223t-191 -146l159 -288h144v-228q-104 -45 -207 -45q-158 0 -215 123l-185 381h-98v-473h-313z
" />
    <glyph glyph-name="rcaron" unicode="&#x159;" horiz-adv-x="733" 
d="M397 1149h-262l-264 332h266l129 -140l129 140h267zM119 0v1014h276v-174q49 86 134 145t196 59v-303q-139 -1 -227 -75t-88 -248v-418h-291z" />
    <glyph glyph-name="Sacute" unicode="&#x15a;" horiz-adv-x="993" 
d="M582 1792h356l-301 -332h-268zM934 366q0 -200 -141 -298t-355 -98t-397 108l74 260q178 -96 335 -96t156 102q0 63 -76 117l-258 180q-203 139 -202 338q0 168 120 273q121 106 336 106t394 -82l-56 -291q-152 98 -325 98q-63 0 -103 -25q-39 -26 -39 -61q-1 -35 15 -59
t32 -36q16 -13 52 -38l254 -174q184 -124 184 -324z" />
    <glyph glyph-name="sacute" unicode="&#x15b;" horiz-adv-x="894" 
d="M553 1481h356l-301 -332h-268zM827 295q-1 -158 -115 -242t-308 -84t-343 97l58 249q160 -94 303 -94q104 0 104 62q0 17 -8 27l-14 16q-6 6 -18 13t-19 12t-25 13t-27 13q-9 4 -29 14t-32 15q-154 72 -218 138t-64 185q0 164 124 240q124 75 301 75t314 -59l-53 -262
q-136 68 -262 68t-125 -66q-1 -23 23 -39t92 -45t100 -43q133 -66 187 -130t54 -173z" />
    <glyph glyph-name="Scircumflex" unicode="&#x15c;" horiz-adv-x="989" 
d="M381 1792h262l264 -332h-266l-129 139l-129 -139h-266zM934 366q0 -200 -141 -298t-355 -98t-397 108l74 260q178 -96 335 -96t156 102q0 63 -76 117l-258 180q-203 139 -202 338q0 168 120 273q121 106 336 106t394 -82l-56 -291q-152 98 -325 98q-63 0 -103 -25
q-39 -26 -39 -61q-1 -35 15 -59t32 -36q16 -13 52 -38l254 -174q184 -124 184 -324z" />
    <glyph glyph-name="scircumflex" unicode="&#x15d;" horiz-adv-x="894" 
d="M317 1481h263l264 -332h-266l-129 139l-130 -139h-266zM827 295q-1 -158 -115 -242t-308 -84t-343 97l58 249q160 -94 303 -94q104 0 104 62q0 17 -8 27l-14 16q-6 6 -18 13t-19 12t-25 13t-27 13q-9 4 -29 14t-32 15q-154 72 -218 138t-64 185q0 164 124 240
q124 75 301 75t314 -59l-53 -262q-136 68 -262 68t-125 -66q-1 -23 23 -39t92 -45t100 -43q133 -66 187 -130t54 -173z" />
    <glyph glyph-name="Scedilla" unicode="&#x15e;" horiz-adv-x="989" 
d="M934 365q0 -165 -98 -261t-258 -122l-27 -95q145 -39 145 -184q0 -113 -84 -169t-204 -56t-205 49l53 164q58 -35 108 -35q102 0 101 56q0 56 -117 57q-45 0 -76 -11l68 217q-166 20 -299 103l74 260q178 -96 335 -96t156 102q0 63 -76 117l-258 180q-203 139 -202 338
q0 168 120 273q121 106 336 106t394 -82l-56 -291q-152 98 -325 98q-63 0 -103 -25q-39 -26 -39 -61q-1 -35 15 -59t32 -36q16 -13 52 -38l254 -174q184 -124 184 -325z" />
    <glyph glyph-name="Scedilla" unicode="&#xf6c1;" horiz-adv-x="989" 
d="M934 365q0 -165 -98 -261t-258 -122l-27 -95q145 -39 145 -184q0 -113 -84 -169t-204 -56t-205 49l53 164q58 -35 108 -35q102 0 101 56q0 56 -117 57q-45 0 -76 -11l68 217q-166 20 -299 103l74 260q178 -96 335 -96t156 102q0 63 -76 117l-258 180q-203 139 -202 338
q0 168 120 273q121 106 336 106t394 -82l-56 -291q-152 98 -325 98q-63 0 -103 -25q-39 -26 -39 -61q-1 -35 15 -59t32 -36q16 -13 52 -38l254 -174q184 -124 184 -325z" />
    <glyph glyph-name="scedilla" unicode="&#x15f;" horiz-adv-x="894" 
d="M827 284q0 -120 -81 -201t-218 -103l-26 -93q145 -39 145 -184q0 -113 -84 -169t-204 -56t-205 49l53 164q57 -35 107 -35q102 0 102 56t-117 57q-45 0 -76 -11l70 224q-139 25 -232 84l58 249q160 -94 303 -94q104 0 104 62q0 17 -8 27l-14 16q-6 6 -18 13t-19 12
t-25 13t-27 13q-9 4 -29 14t-32 15q-154 72 -218 138t-64 185q0 164 124 240q124 75 301 75t314 -59l-53 -262q-136 68 -262 68t-125 -66q-1 -23 23 -39t92 -45t100 -43q133 -66 187 -130t54 -184z" />
    <glyph glyph-name="scedilla" unicode="&#xf6c2;" horiz-adv-x="894" 
d="M827 284q0 -120 -81 -201t-218 -103l-26 -93q145 -39 145 -184q0 -113 -84 -169t-204 -56t-205 49l53 164q57 -35 107 -35q102 0 102 56t-117 57q-45 0 -76 -11l70 224q-139 25 -232 84l58 249q160 -94 303 -94q104 0 104 62q0 17 -8 27l-14 16q-6 6 -18 13t-19 12
t-25 13t-27 13q-9 4 -29 14t-32 15q-154 72 -218 138t-64 185q0 164 124 240q124 75 301 75t314 -59l-53 -262q-136 68 -262 68t-125 -66q-1 -23 23 -39t92 -45t100 -43q133 -66 187 -130t54 -184z" />
    <glyph glyph-name="Scaron" unicode="&#x160;" horiz-adv-x="989" 
d="M647 1460h-262l-264 332h266l129 -139l129 139h266zM934 366q0 -200 -141 -298t-355 -98t-397 108l74 260q178 -96 335 -96t156 102q0 63 -76 117l-258 180q-203 139 -202 338q0 168 120 273q121 106 336 106t394 -82l-56 -291q-152 98 -325 98q-63 0 -103 -25
q-39 -26 -39 -61q-1 -35 15 -59t32 -36q16 -13 52 -38l254 -174q184 -124 184 -324z" />
    <glyph glyph-name="scaron" unicode="&#x161;" horiz-adv-x="894" 
d="M580 1149h-263l-264 332h266l130 -140l129 140h266zM827 295q-1 -158 -115 -242t-308 -84t-343 97l58 249q160 -94 303 -94q104 0 104 62q0 17 -8 27l-14 16q-6 6 -18 13t-19 12t-25 13t-27 13q-9 4 -29 14t-32 15q-154 72 -218 138t-64 185q0 164 124 240q124 75 301 75
t314 -59l-53 -262q-136 68 -262 68t-125 -66q-1 -23 23 -39t92 -45t100 -43q133 -66 187 -130t54 -173z" />
    <glyph glyph-name="Tcommaaccent" unicode="&#x162;" horiz-adv-x="1085" 
d="M387 0v1055h-367v270h1043v-270h-367v-1055h-309zM385 -109h320l-168 -397h-263z" />
    <glyph glyph-name="Tcommaaccent" unicode="&#x21a;" horiz-adv-x="1085" 
d="M387 0v1055h-367v270h1043v-270h-367v-1055h-309zM385 -109h320l-168 -397h-263z" />
    <glyph glyph-name="tcommaaccent" unicode="&#x163;" horiz-adv-x="731" 
d="M500 -31q-152 0 -252 85t-101 263v457h-135v240h135v229l293 31v-260h240v-240h-240v-442q0 -100 131 -101q56 1 117 15v-246q-90 -31 -188 -31zM285 -109h319l-168 -397h-262z" />
    <glyph glyph-name="tcommaaccent" unicode="&#x21b;" horiz-adv-x="731" 
d="M500 -31q-152 0 -252 85t-101 263v457h-135v240h135v229l293 31v-260h240v-240h-240v-442q0 -100 131 -101q56 1 117 15v-246q-90 -31 -188 -31zM285 -109h319l-168 -397h-262z" />
    <glyph glyph-name="Tcaron" unicode="&#x164;" horiz-adv-x="1085" 
d="M674 1460h-262l-265 332h267l129 -139l129 139h266zM387 0v1055h-367v270h1043v-270h-367v-1055h-309z" />
    <glyph glyph-name="tcaron" unicode="&#x165;" horiz-adv-x="753" 
d="M893 1405q0 -190 -123 -363h-287q102 127 103 285q-1 80 -21 197h316q12 -61 12 -119zM500 -31q-152 0 -252 85t-101 263v457h-135v240h135v229l293 31v-260h240v-240h-240v-442q0 -100 131 -101q56 1 117 15v-246q-90 -31 -188 -31z" />
    <glyph glyph-name="Tbar" unicode="&#x166;" horiz-adv-x="1030" 
d="M33 1325h966v-272h-333v-326h270v-256h-270v-471h-301v471h-269v256h269v326h-332v272z" />
    <glyph glyph-name="tbar" unicode="&#x167;" horiz-adv-x="731" 
d="M500 -31q-152 0 -252 85t-101 263v132h-120v192h120v133h-135v240h135v229l293 31v-260h240v-240h-240v-133h193v-192h-193v-117q0 -100 131 -101q56 1 117 15v-246q-90 -31 -188 -31z" />
    <glyph glyph-name="Utilde" unicode="&#x168;" horiz-adv-x="1390" 
d="M578 1794q57 0 138 -43q80 -43 100 -43q36 0 36 92h184q0 -143 -52 -234t-148 -91q-66 0 -151 51t-99 51q-49 0 -49 -92h-185q0 143 56 226t170 83zM695 -31q-247 0 -405 134t-157 391v831h313v-838q0 -111 68 -179t182 -66q114 0 182 68q67 68 66 177v838h313v-831
q0 -258 -157 -392q-158 -133 -405 -133z" />
    <glyph glyph-name="utilde" unicode="&#x169;" horiz-adv-x="1093" 
d="M430 1483q57 0 138 -43q80 -43 100 -43q35 0 37 92h184q0 -143 -52 -235t-149 -91q-66 0 -150 51t-100 52q-49 0 -49 -92h-184q0 143 56 226t169 83zM547 -31q-176 0 -303 110t-127 306v629h291v-639q0 -68 36 -106t103 -38t103 38t36 106v639h291v-629q0 -197 -127 -307
t-303 -109z" />
    <glyph glyph-name="Umacron" unicode="&#x16a;" horiz-adv-x="1390" 
d="M403 1745h584v-223h-584v223zM695 -31q-247 0 -405 134t-157 391v831h313v-838q0 -111 68 -179t182 -66q114 0 182 68q67 68 66 177v838h313v-831q0 -258 -157 -392q-158 -133 -405 -133z" />
    <glyph glyph-name="umacron" unicode="&#x16b;" horiz-adv-x="1093" 
d="M254 1434h584v-224h-584v224zM547 -31q-176 0 -303 110t-127 306v629h291v-639q0 -68 36 -106t103 -38t103 38t36 106v639h291v-629q0 -197 -127 -307t-303 -109z" />
    <glyph glyph-name="Ubreve" unicode="&#x16c;" horiz-adv-x="1390" 
d="M694 1630q49 0 82 42t25 120h213q-10 -342 -320 -342t-319 342h211q-6 -78 26 -120t82 -42zM695 -31q-247 0 -405 134t-157 391v831h313v-838q0 -111 68 -179t182 -66q114 0 182 68q67 68 66 177v838h313v-831q0 -258 -157 -392q-158 -133 -405 -133z" />
    <glyph glyph-name="ubreve" unicode="&#x16d;" horiz-adv-x="1093" 
d="M547 1319q49 0 82 42t24 120h213q-10 -342 -320 -342t-319 342h211q-6 -78 27 -120t82 -42zM547 -31q-176 0 -303 110t-127 306v629h291v-639q0 -68 36 -106t103 -38t103 38t36 106v639h291v-629q0 -197 -127 -307t-303 -109z" />
    <glyph glyph-name="Uring" unicode="&#x16e;" horiz-adv-x="1390" 
d="M694 1554q31 0 55 23q23 23 23 63t-23 62q-24 20 -55 20q-30 0 -54 -20t-24 -62t24 -64t54 -22zM973 1638q0 -90 -77 -146t-203 -56q-125 0 -201 56t-76 147t76 147t202 57t202 -57q77 -58 77 -148zM695 -31q-247 0 -405 134t-157 391v831h313v-838q0 -111 68 -179
t182 -66q114 0 182 68q67 68 66 177v838h313v-831q0 -258 -157 -392q-158 -133 -405 -133z" />
    <glyph glyph-name="uring" unicode="&#x16f;" horiz-adv-x="1093" 
d="M547 1243q31 0 55 23q24 24 23 64q0 40 -24 60q-25 20 -55 21q-30 0 -54 -20q-24 -19 -23 -61q-1 -42 23 -64t55 -23zM825 1327q-1 -90 -77 -146q-76 -57 -202 -57t-202 56t-76 148t76 148t202 56t203 -57q76 -58 76 -148zM547 -31q-176 0 -303 110t-127 306v629h291
v-639q0 -68 36 -106t103 -38t103 38t36 106v639h291v-629q0 -197 -127 -307t-303 -109z" />
    <glyph glyph-name="Uhungarumlaut" unicode="&#x170;" horiz-adv-x="1390" 
d="M836 1792h294l-161 -332h-226zM440 1792h285l-78 -332h-211zM695 -31q-247 0 -405 134t-157 391v831h313v-838q0 -111 68 -179t182 -66q114 0 182 68q67 68 66 177v838h313v-831q0 -258 -157 -392q-158 -133 -405 -133z" />
    <glyph glyph-name="uhungarumlaut" unicode="&#x171;" horiz-adv-x="1093" 
d="M678 1481h295l-162 -332h-225zM283 1481h284l-78 -332h-210zM547 -31q-176 0 -303 110t-127 306v629h291v-639q0 -68 36 -106t103 -38t103 38t36 106v639h291v-629q0 -197 -127 -307t-303 -109z" />
    <glyph glyph-name="Uogonek" unicode="&#x172;" horiz-adv-x="1390" 
d="M1257 1325v-831q0 -225 -122 -357q-123 -131 -326 -160q-88 -63 -88 -133q0 -59 65 -59q45 0 84 20l37 -190q-80 -37 -182 -37t-174 49t-72 156q0 55 30 108t73 86q-203 29 -326 160t-123 357v831h313v-838q0 -111 68 -179t182 -66q114 0 182 68q67 68 66 177v838h313z
" />
    <glyph glyph-name="uogonek" unicode="&#x173;" horiz-adv-x="1093" 
d="M977 385q0 -154 -79 -255t-206 -138q-106 -72 -106 -148q0 -59 65 -59q45 0 84 20l37 -190q-80 -37 -182 -37t-174 49t-72 156q0 55 30 108t72 89q-143 29 -236 133t-93 272v629h291v-639q0 -68 36 -106t103 -38t103 38t36 106v639h291v-629z" />
    <glyph glyph-name="Wcircumflex" unicode="&#x174;" horiz-adv-x="1957" 
d="M848 1792h262l264 -332h-266l-129 139l-129 -139h-266zM1231 0l-252 858l-240 -858h-336l-383 1325h334l232 -915l262 915h303l268 -913l213 913h303l-366 -1325h-338z" />
    <glyph glyph-name="wcircumflex" unicode="&#x175;" horiz-adv-x="1654" 
d="M696 1481h262l265 -332h-267l-129 139l-129 -139h-266zM541 -31q-176 0 -303 110t-127 306v629h290v-639q0 -68 37 -106t103 -38q65 0 103 38t38 106v639h291v-639q0 -68 38 -106q37 -38 103 -38t103 38t36 106v639h291v-629q0 -197 -127 -307t-305 -109q-178 0 -285 117
q-110 -117 -286 -117z" />
    <glyph glyph-name="Ycircumflex" unicode="&#x176;" horiz-adv-x="1153" 
d="M444 1792h263l264 -332h-266l-130 139l-129 -139h-266zM420 0v494l-461 831h332l301 -532l289 532h313l-463 -836v-489h-311z" />
    <glyph glyph-name="ycircumflex" unicode="&#x177;" horiz-adv-x="1136" 
d="M436 1481h262l265 -332h-267l-129 139l-129 -139h-266zM131 389v625h291v-606q0 -176 158 -177q63 0 120 25v758h293v-967q-1 -211 -117 -340t-354 -129t-403 105l86 254q137 -101 312 -101t181 174q-74 -31 -163 -30q-182 0 -293 108t-111 301z" />
    <glyph glyph-name="Ydieresis" unicode="&#x178;" horiz-adv-x="1153" 
d="M631 1626q0 64 44 104t116 40q71 0 115 -40t44 -104t-44 -103q-44 -40 -116 -40t-115 40q-44 40 -44 103zM203 1626q0 64 44 104q43 40 115 40t116 -40t44 -104t-44 -103q-44 -40 -116 -40t-116 40t-43 103zM420 0v494l-461 831h332l301 -532l289 532h313l-463 -836v-489
h-311z" />
    <glyph glyph-name="Zacute" unicode="&#x179;" horiz-adv-x="1120" 
d="M614 1792h357l-301 -332h-269zM63 0v231l592 830h-569v264h958v-231l-585 -830h594v-264h-990z" />
    <glyph glyph-name="zacute" unicode="&#x17a;" horiz-adv-x="942" 
d="M502 1481h356l-301 -332h-268zM74 0v199l409 561h-397v254h772v-205l-397 -555h413v-254h-800z" />
    <glyph glyph-name="Zdotaccent" unicode="&#x17b;" horiz-adv-x="1120" 
d="M416 1626q0 64 44 104t116 40t115 -40q44 -40 44 -104t-44 -103q-44 -40 -116 -40q-71 0 -115 40t-44 103zM63 0v231l592 830h-569v264h958v-231l-585 -830h594v-264h-990z" />
    <glyph glyph-name="zdotaccent" unicode="&#x17c;" horiz-adv-x="942" 
d="M311 1315q0 63 44 103t116 40t116 -40t44 -103t-44 -103t-116 -41q-72 1 -116 41t-44 103zM74 0v199l409 561h-397v254h772v-205l-397 -555h413v-254h-800z" />
    <glyph glyph-name="Zcaron" unicode="&#x17d;" horiz-adv-x="1120" 
d="M707 1460h-263l-264 332h266l129 -139l130 139h266zM63 0v231l592 830h-569v264h958v-231l-585 -830h594v-264h-990z" />
    <glyph glyph-name="zcaron" unicode="&#x17e;" horiz-adv-x="942" 
d="M602 1149h-262l-264 332h266l129 -140l129 140h266zM74 0v199l409 561h-397v254h772v-205l-397 -555h413v-254h-800z" />
    <glyph glyph-name="longs" unicode="&#x17f;" horiz-adv-x="606" 
d="M160 -43v819h-123v238h123v63q0 193 112 287q114 94 278 94t269 -39l-51 -239q-88 32 -158 32q-146 -1 -145 -122v-1180q0 -156 -82 -234t-207 -78t-233 52l30 237q74 -25 105 -24q82 0 82 94z" />
    <glyph glyph-name="florin" unicode="&#x192;" 
d="M701 1358q227 0 360 -80l-55 -272q-143 78 -283 77q-88 0 -138 -43t-50 -120v-183h413v-209h-413v-528h-314v528h-158v209h158v176q0 186 126 316q127 129 354 129z" />
    <glyph glyph-name="Aringacute" unicode="&#x1fa;" horiz-adv-x="1296" 
d="M725 2230h356l-301 -332h-268zM647 1554q31 0 55 23t23 63q0 40 -24 62q-25 20 -55 20t-54 -20t-23 -62q-1 -42 23 -64t55 -22zM926 1638q0 -90 -77 -146t-203 -56t-202 56t-76 147t76 148q76 56 202 56q126 1 203 -57t77 -148zM625 938l-152 -420h299zM956 0l-96 270
h-475l-94 -270h-311l518 1325h301l518 -1325h-361z" />
    <glyph glyph-name="aringacute" unicode="&#x1fb;" horiz-adv-x="1019" 
d="M588 1911h356l-301 -332h-268zM510 1243q30 0 54 23q24 24 24 64t-24 60t-54 21q-30 0 -54 -20q-24 -19 -24 -61t24 -64t54 -23zM788 1327q0 -90 -76 -146q-76 -57 -203 -57q-126 0 -202 56t-76 148t76 148t202 56t203 -57q76 -58 76 -148zM451 197q73 0 113 61t42 152
q-29 2 -67 2q-188 0 -189 -123q1 -92 101 -92zM465 1044q195 0 315 -93t121 -289v-662h-283v111q-80 -141 -256 -142q-145 0 -227 83t-82 214q0 164 119 257t354 93q55 0 84 -2v33q-2 78 -48 107q-46 28 -158 28t-240 -51l-41 262q147 51 342 51z" />
    <glyph glyph-name="AEacute" unicode="&#x1fc;" horiz-adv-x="1945" 
d="M1343 1792h357l-301 -332h-269zM985 539v518l-313 -518h313zM1849 1325v-264h-551v-240h517v-264h-517v-170q0 -123 121 -123h445v-264h-451q-215 0 -312 77t-114 234h-452l-189 -311h-309l815 1325h997z" />
    <glyph glyph-name="aeacute" unicode="&#x1fd;" horiz-adv-x="1552" 
d="M836 1481h356l-301 -332h-268zM1212 608q0 188 -157 189q-68 -1 -110 -49t-44 -140h311zM451 197q73 0 113 61t42 152q-29 2 -67 2q-188 0 -189 -123q1 -92 101 -92zM1053 1044q225 0 338 -116t112 -324v-201h-594q39 -176 242 -176q131 0 268 64l54 -256
q-164 -66 -334 -66q-281 0 -416 187q-109 -186 -344 -187q-156 0 -241 81q-85 80 -85 230t119 243t354 93q55 0 84 -2v33q-2 78 -48 107q-46 28 -158 28t-240 -51l-41 262q147 51 346 51t315 -98q111 98 269 98z" />
    <glyph glyph-name="Oslashacute" unicode="&#x1fe;" horiz-adv-x="1406" 
d="M997 684q0 96 -30 190l-463 -548q74 -84 198 -84q170 0 238 144q57 123 57 298zM408 634q0 -102 30 -188l463 551q-76 86 -199 86q-86 0 -146 -40q-148 -99 -148 -409zM1331 655q0 -294 -165 -490t-464 -196q-231 0 -391 127l-151 -180l-99 84l158 188q-145 186 -145 480
t166 492t462 198q231 0 394 -129l151 180l99 -84l-160 -190q145 -186 145 -480zM799 1792h356l-301 -332h-268z" />
    <glyph glyph-name="oslashacute" unicode="&#x1ff;" horiz-adv-x="1058" 
d="M362 508q0 -59 5 -84l270 313q-39 45 -109 45q-166 0 -166 -274zM694 508q0 33 -4 82l-272 -314q41 -45 110 -45q166 1 166 277zM993 508q0 -254 -130 -396q-131 -142 -319 -142t-306 98l-136 -164l-100 96l148 170q-86 133 -87 338q1 254 131 395t318 141t305 -98
l131 154l107 -86l-148 -172q86 -139 86 -334zM598 1481h356l-301 -332h-268z" />
    <glyph glyph-name="Scommaaccent" unicode="&#x218;" horiz-adv-x="989" 
d="M934 366q0 -200 -141 -298t-355 -98t-397 108l74 260q178 -96 335 -96t156 102q0 63 -76 117l-258 180q-203 139 -202 338q0 168 120 273q121 106 336 106t394 -82l-56 -291q-152 98 -325 98q-63 0 -103 -25q-39 -26 -39 -61q-1 -35 15 -59t32 -36q16 -13 52 -38
l254 -174q184 -124 184 -324zM322 -109h319l-168 -397h-262z" />
    <glyph glyph-name="scommaaccent" unicode="&#x219;" horiz-adv-x="894" 
d="M827 295q-1 -158 -115 -242t-308 -84t-343 97l58 249q160 -94 303 -94q104 0 104 62q0 17 -8 27l-14 16q-6 6 -18 13t-19 12t-25 13t-27 13q-9 4 -29 14t-32 15q-154 72 -218 138t-64 185q0 164 124 240q124 75 301 75t314 -59l-53 -262q-136 68 -262 68t-125 -66
q-1 -23 23 -39t92 -45t100 -43q133 -66 187 -130t54 -173zM295 -109h319l-168 -397h-262z" />
    <glyph glyph-name="circumflex" unicode="&#x2c6;" horiz-adv-x="1024" 
d="M381 1481h262l264 -332h-266l-129 139l-129 -139h-266z" />
    <glyph glyph-name="caron" unicode="&#x2c7;" horiz-adv-x="1024" 
d="M643 1149h-262l-264 332h266l129 -140l129 140h266z" />
    <glyph glyph-name="breve" unicode="&#x2d8;" horiz-adv-x="1024" 
d="M512 1319q49 0 82 42t24 120h213q-10 -342 -320 -342t-318 342h210q-6 -78 27 -120t82 -42z" />
    <glyph glyph-name="dotaccent" unicode="&#x2d9;" horiz-adv-x="1024" 
d="M352 1315q0 63 44 103t116 40t116 -40t44 -103t-44 -103t-116 -41q-72 1 -116 41t-44 103z" />
    <glyph glyph-name="ring" unicode="&#x2da;" horiz-adv-x="1024" 
d="M512 1243q30 0 54 23q24 24 24 64t-24 60t-54 21q-30 0 -54 -20q-24 -19 -24 -61t24 -64t54 -23zM791 1327q0 -90 -77 -146q-77 -57 -203 -57t-202 56t-76 148t76 148t202 56t203 -58t77 -147z" />
    <glyph glyph-name="ogonek" unicode="&#x2db;" horiz-adv-x="1024" 
d="M539 -156q0 -59 65 -59q45 0 84 20l37 -190q-80 -37 -182 -37t-174 49t-72 156q0 68 42 130t97 87h226q-123 -72 -123 -156z" />
    <glyph glyph-name="tilde" unicode="&#x2dc;" horiz-adv-x="1024" 
d="M395 1483q57 0 139 -43t100 -43q36 0 36 92h184q0 -143 -52 -235t-149 -91q-67 0 -151 51t-99 52q-49 0 -49 -92h-184q0 143 56 226t169 83z" />
    <glyph glyph-name="hungarumlaut" unicode="&#x2dd;" horiz-adv-x="1024" 
d="M563 1481h295l-162 -332h-225zM168 1481h285l-78 -332h-211z" />
    <glyph glyph-name="Delta" unicode="&#x394;" 
d="M778 215l-215 844l-215 -844h430zM20 0l388 1364h311l387 -1364h-1086z" />
    <glyph glyph-name="Delta" unicode="&#x2206;" 
d="M778 215l-215 844l-215 -844h430zM20 0l388 1364h311l387 -1364h-1086z" />
    <glyph glyph-name="Omega" unicode="&#x3a9;" horiz-adv-x="1290" 
d="M635 1358q268 0 432 -162t164 -471q1 -154 -63 -285t-152 -215h201v-225h-531v219q125 66 212 200q87 133 87 325t-96 292t-254 100t-253 -100t-95 -292t86 -325q86 -134 213 -200v-219h-531v225h199q-88 86 -152 216q-63 130 -63 284q0 309 164 471t432 162z" />
    <glyph glyph-name="Omega" unicode="&#x2126;" horiz-adv-x="1290" 
d="M635 1358q268 0 432 -162t164 -471q1 -154 -63 -285t-152 -215h201v-225h-531v219q125 66 212 200q87 133 87 325t-96 292t-254 100t-253 -100t-95 -292t86 -325q86 -134 213 -200v-219h-531v225h199q-88 86 -152 216q-63 130 -63 284q0 309 164 471t432 162z" />
    <glyph glyph-name="pi" unicode="&#x3c0;" 
d="M23 1014h1085v-256h-143v-492q0 -35 39 -35t65 17l47 -230q-92 -49 -198 -49q-236 0 -236 258v531h-229v-758h-283v758h-147v256z" />
    <glyph glyph-name="uni0400" unicode="&#x400;" horiz-adv-x="1093" 
d="M193 1788h358l211 -332h-266zM133 383v942h864v-264h-551v-240h517v-264h-517v-170q0 -123 121 -123h445v-264h-451q-238 0 -333 94t-95 289z" />
    <glyph glyph-name="afii10023" unicode="&#x401;" horiz-adv-x="1093" 
d="M618 1620q0 63 44 103t116 40t116 -40t44 -103t-44 -103t-116 -40t-116 40t-44 103zM190 1620q0 63 44 103t116 40t116 -40t44 -103t-44 -103t-116 -40t-116 40t-44 103zM133 383v942h864v-264h-551v-240h517v-264h-517v-170q0 -123 121 -123h445v-264h-451
q-238 0 -333 94t-95 289z" />
    <glyph glyph-name="afii10051" unicode="&#x402;" horiz-adv-x="1398" 
d="M41 1325h1079v-250h-446v-264q125 47 252 47q219 0 310 -110t91 -359v-51q0 -215 -70 -337t-225 -216l-153 170q79 65 113 151t34 230v43q0 207 -168 207q-100 0 -184 -45v-541h-299v1075h-334v250z" />
    <glyph glyph-name="afii10052" unicode="&#x403;" horiz-adv-x="970" 
d="M164 1325h745v-270h-444v-1055h-301v1325zM547 1792h356l-301 -332h-268z" />
    <glyph glyph-name="afii10053" unicode="&#x404;" horiz-adv-x="1122" 
d="M827 768v-244h-436q23 -154 95 -216t203 -62q130 0 312 98l33 -258q-209 -117 -403 -117q-557 0 -557 703q0 352 133 519t399 167q209 0 326 -115t119 -338l-291 -26q-6 203 -156 202q-106 0 -158 -74q-51 -75 -61 -239h442z" />
    <glyph glyph-name="afii10054" unicode="&#x405;" horiz-adv-x="989" 
d="M934 366q0 -200 -141 -298t-355 -98t-397 108l74 260q178 -96 335 -96t156 102q0 63 -76 117l-258 180q-203 139 -202 338q0 168 120 273q121 106 336 106t394 -82l-56 -291q-152 98 -325 98q-63 0 -103 -25q-39 -26 -39 -61q-1 -35 15 -59t32 -36q16 -13 52 -38
l254 -174q184 -124 184 -324z" />
    <glyph glyph-name="afii10055" unicode="&#x406;" horiz-adv-x="641" 
d="M477 1325v-1325h-313v1325h313z" />
    <glyph glyph-name="afii10056" unicode="&#x407;" horiz-adv-x="641" 
d="M373 1620q0 63 44 103q43 40 115 40t116 -40t44 -103t-44 -103t-116 -40t-116 40t-43 103zM-55 1620q0 63 44 103q43 40 115 40t116 -40t44 -103t-44 -103t-116 -40t-116 40t-43 103zM477 1325v-1325h-313v1325h313z" />
    <glyph glyph-name="afii10057" unicode="&#x408;" horiz-adv-x="688" 
d="M121 242q121 0 121 127v956h313v-940q0 -416 -395 -416q-65 1 -131 15v268q39 -10 92 -10z" />
    <glyph glyph-name="afii10058" unicode="&#x409;" horiz-adv-x="1804" 
d="M1133 250h92q104 0 153 46t49 159t-54 155t-161 43q-18 0 -79 -6v-397zM831 0v1055h-251l-27 -504q-4 -103 -10 -163t-30 -143q-25 -83 -63 -130t-110 -81t-174 -34h-94v274h57q69 0 93 56t28 190l41 805h842v-426q59 8 129 8q216 1 338 -111t122 -343t-120 -342
t-379 -111h-392z" />
    <glyph glyph-name="afii10059" unicode="&#x40a;" horiz-adv-x="1798" 
d="M1126 250h93q104 0 153 46t49 159t-54 155t-161 43q-19 0 -80 -6v-397zM825 0v555h-360v-555h-301v1325h301v-481h360v481h301v-426q59 8 129 8q215 1 338 -111t123 -343t-121 -342t-378 -111h-392z" />
    <glyph glyph-name="afii10060" unicode="&#x40b;" horiz-adv-x="1445" 
d="M41 1325h1053v-250h-420v-264q125 47 252 47q221 0 311 -112t90 -359v-387h-301v371q0 115 -37 165t-134 50t-181 -45v-541h-299v1075h-334v250z" />
    <glyph glyph-name="afii10061" unicode="&#x40c;" horiz-adv-x="1198" 
d="M164 1325h301v-530h27l360 530h326l-414 -573q70 -14 110 -56t66 -116l90 -261q53 -164 154 -319h-350q-43 62 -64 128q-22 67 -61 196t-47 140q-9 12 -20 28t-20 20t-28 12t-70 11h-59v-535h-301v1325zM670 1792h356l-301 -332h-268z" />
    <glyph glyph-name="uni040D" unicode="&#x40d;" horiz-adv-x="1507" 
d="M387 1788h358l211 -332h-266zM164 1325h295v-823l610 823h274v-1325h-294v817l-600 -817h-285v1325z" />
    <glyph glyph-name="afii10062" unicode="&#x40e;" horiz-adv-x="1042" 
d="M106 0v250q131 0 182 26q50 27 85 109l16 41l-430 899h332l266 -569l240 569h286l-368 -926q-45 -113 -86 -179q-97 -157 -276 -197q-99 -23 -247 -23zM580 1624q49 0 82 42t24 120h213q-11 -342 -321 -342t-318 342h211q-6 -78 27 -120t82 -42z" />
    <glyph glyph-name="afii10145" unicode="&#x40f;" horiz-adv-x="1345" 
d="M164 0v1325h299v-1038h420v1038h299v-1325h-371l-10 -291h-258l-11 291h-368z" />
    <glyph glyph-name="afii10017" unicode="&#x410;" horiz-adv-x="1296" 
d="M625 938l-152 -420h299zM956 0l-96 270h-475l-94 -270h-311l518 1325h301l518 -1325h-361z" />
    <glyph glyph-name="afii10018" unicode="&#x411;" horiz-adv-x="1138" 
d="M465 250h104q102 0 146 41q43 41 43 145t-48 142t-135 38t-110 -8v-358zM569 0h-405v1325h778v-270h-477v-211q47 10 123 10q229 0 347 -95t118 -319t-114 -332t-370 -108z" />
    <glyph glyph-name="afii10019" unicode="&#x412;" horiz-adv-x="1236" 
d="M477 799h180q74 0 117 36t43 95t-43 95t-117 36h-180v-262zM477 557v-293h193q76 0 123 37t47 107q0 150 -185 149h-178zM164 0v1325h526q193 0 322 -91t129 -257q0 -193 -164 -283q193 -88 192 -293q0 -181 -127 -291t-374 -110h-504z" />
    <glyph glyph-name="afii10020" unicode="&#x413;" horiz-adv-x="966" 
d="M164 1325h745v-270h-444v-1055h-301v1325z" />
    <glyph glyph-name="afii10021" unicode="&#x414;" horiz-adv-x="1282" 
d="M549 1073v-172q0 -428 -84 -631h377v803h-293zM262 905v420h879v-1055h98l-18 -561h-248l-33 291h-575l-33 -291h-250l-16 561h102q94 197 94 635z" />
    <glyph glyph-name="afii10022" unicode="&#x415;" horiz-adv-x="1093" 
d="M133 383v942h864v-264h-551v-240h517v-264h-517v-170q0 -123 121 -123h445v-264h-451q-238 0 -333 94t-95 289z" />
    <glyph glyph-name="afii10024" unicode="&#x416;" horiz-adv-x="1781" 
d="M739 1325h301v-530h29l358 530h326l-412 -573q70 -14 110 -56t67 -116l90 -261q53 -164 153 -319h-350q-61 89 -132 342q-31 109 -39 121q-9 11 -20 29q-10 18 -20 21t-28 13t-70 9h-62v-535h-301v535h-59q-46 1 -67 -9t-30 -14q-38 -17 -82 -169q-76 -263 -130 -343
h-351q100 156 154 319l90 261q25 76 66 116t110 56l-413 573h325l361 -530h26v530z" />
    <glyph glyph-name="afii10025" unicode="&#x417;" 
d="M502 1358q212 0 359 -94q146 -94 147 -301q0 -96 -47 -168t-125 -107q94 -37 148 -121t54 -194q0 -195 -143 -299t-358 -105q-274 0 -465 113l73 274q180 -115 373 -114q94 0 148 38q53 38 53 110t-55 108q-55 37 -150 37h-190v258h188q80 1 131 37t51 114
q0 139 -213 139q-164 0 -325 -75l-54 274q188 76 400 76z" />
    <glyph glyph-name="afii10026" unicode="&#x418;" horiz-adv-x="1507" 
d="M164 0v1325h295v-823l610 823h274v-1325h-294v817l-600 -817h-285z" />
    <glyph glyph-name="afii10027" unicode="&#x419;" horiz-adv-x="1507" 
d="M784 1647q49 0 82 42t25 119h213q-10 -342 -320 -342t-319 342h211q-6 -78 26 -120t82 -41zM164 1325h295v-823l610 823h274v-1325h-294v817l-600 -817h-285v1325z" />
    <glyph glyph-name="afii10028" unicode="&#x41a;" horiz-adv-x="1198" 
d="M164 1325h301v-530h27l360 530h326l-414 -573q70 -14 110 -56t66 -116l90 -261q53 -164 154 -319h-350q-43 62 -64 128q-22 67 -61 196t-47 140q-9 12 -20 28t-20 20t-28 12t-70 11h-59v-535h-301v1325z" />
    <glyph glyph-name="afii10029" unicode="&#x41b;" horiz-adv-x="1298" 
d="M1135 1325v-1325h-301v1055h-252l-29 -533q-4 -96 -11 -155t-31 -137q-25 -78 -63 -122t-110 -76t-172 -32h-94v270h57q71 0 95 58t28 192l41 805h842z" />
    <glyph glyph-name="afii10030" unicode="&#x41c;" horiz-adv-x="1662" 
d="M471 0h-307v1325h278l389 -629l390 629h278v-1325h-307v756l-223 -369h-275l-223 367v-754z" />
    <glyph glyph-name="afii10031" unicode="&#x41d;" horiz-adv-x="1454" 
d="M164 0v1325h313v-508h500v508h313v-1325h-313v545h-500v-545h-313z" />
    <glyph glyph-name="afii10032" unicode="&#x41e;" horiz-adv-x="1406" 
d="M408 662q0 -154 57 -276q67 -144 237 -144t238 144q57 123 57 278t-57 274q-68 145 -238 145q-228 0 -281 -279q-13 -68 -13 -142zM1331 662q0 -301 -165 -497t-464 -196q-300 0 -464 196t-164 497q0 300 166 498t462 198t463 -198q166 -198 166 -498z" />
    <glyph glyph-name="afii10033" unicode="&#x41f;" horiz-adv-x="1345" 
d="M164 1325h1018v-1325h-299v1055h-418v-1055h-301v1325z" />
    <glyph glyph-name="afii10034" unicode="&#x420;" horiz-adv-x="1220" 
d="M477 1061v-328h176q76 0 120 46t44 118t-44 118t-120 46h-176zM164 0v1325h495q225 0 353 -127t127 -300q0 -173 -127 -299t-355 -126h-180v-473h-313z" />
    <glyph glyph-name="afii10035" unicode="&#x421;" horiz-adv-x="1177" 
d="M774 242q170 0 303 67l72 -254q-164 -86 -391 -86q-274 0 -469 157q-98 79 -156 218q-57 140 -57 322t57 320t155 217q193 155 470 155q207 0 362 -72l-53 -274q-147 72 -303 72t-253 -95q-97 -94 -101 -323q8 -424 364 -424z" />
    <glyph glyph-name="afii10036" unicode="&#x422;" horiz-adv-x="1085" 
d="M387 0v1055h-367v270h1043v-270h-367v-1055h-309z" />
    <glyph glyph-name="afii10037" unicode="&#x423;" horiz-adv-x="1210" 
d="M195 0v250q131 0 181 26t85 109l16 41l-430 899h332l266 -569l240 569h286l-368 -926q-45 -113 -86 -179q-97 -157 -276 -197q-99 -23 -246 -23z" />
    <glyph glyph-name="afii10038" unicode="&#x424;" horiz-adv-x="1406" 
d="M1030 662q0 160 -56 234t-161 101v-671q104 27 161 101q56 75 56 235zM375 661q0 -161 57 -236t160 -99v671q-102 -25 -160 -100t-57 -236zM74 659q0 273 138 415t380 161v115h221v-117q242 -19 380 -161t138 -412t-138 -412q-138 -141 -380 -160v-115h-221v115
q-242 18 -380 158t-138 413z" />
    <glyph glyph-name="afii10039" unicode="&#x425;" horiz-adv-x="1366" 
d="M31 0l479 698l-428 627h369l256 -387l266 387h350l-453 -641l465 -684h-362l-295 440l-291 -440h-356z" />
    <glyph glyph-name="afii10040" unicode="&#x426;" horiz-adv-x="1351" 
d="M164 0v1325h301v-1055h418v1055h299v-1055h137l-16 -561h-232l-29 291h-878z" />
    <glyph glyph-name="afii10041" unicode="&#x427;" horiz-adv-x="1273" 
d="M811 0v494q-106 -43 -211 -43q-477 0 -477 493v381h299v-373q0 -223 196 -223q113 0 193 41v555h299v-1325h-299z" />
    <glyph glyph-name="afii10042" unicode="&#x428;" horiz-adv-x="1869" 
d="M1706 0h-1542v1325h301v-1055h317v1055h301v-1055h322v1055h301v-1325z" />
    <glyph glyph-name="afii10043" unicode="&#x429;" horiz-adv-x="1873" 
d="M164 0v1325h301v-1055h317v1055h301v-1055h322v1055h301v-1055h135l-12 -561h-236l-30 291h-1399z" />
    <glyph glyph-name="afii10044" unicode="&#x42a;" horiz-adv-x="1228" 
d="M555 250h94q102 0 152 46q49 46 49 159t-54 155t-161 43q-12 0 -80 -6v-397zM33 1055v270h522v-426q59 8 131 8q215 1 338 -111t123 -343t-121 -342t-379 -111h-391v1055h-223z" />
    <glyph glyph-name="afii10045" unicode="&#x42b;" horiz-adv-x="1683" 
d="M164 0v1325h301v-426q57 8 127 8q215 1 338 -111t123 -343t-120 -342t-378 -111h-391zM465 250h92q104 0 154 46q49 46 49 159t-55 155t-162 43q-23 0 -78 -6v-397zM1219 1325h301v-1325h-301v1325z" />
    <glyph glyph-name="afii10046" unicode="&#x42c;" horiz-adv-x="1134" 
d="M164 0v1325h301v-426q57 8 127 8q215 1 338 -111t123 -343t-120 -342t-378 -111h-391zM465 250h92q104 0 154 46q49 46 49 159t-55 155t-162 43q-23 0 -78 -6v-397z" />
    <glyph glyph-name="afii10047" unicode="&#x42d;" horiz-adv-x="1134" 
d="M545 1358q262 0 388 -165t126 -521q0 -702 -559 -703q-203 0 -400 113l33 258q171 -94 307 -94t208 62t95 216h-438v244h445q-10 170 -54 242t-137 72q-177 -1 -186 -195l-291 26q2 221 126 333t337 112z" />
    <glyph glyph-name="afii10048" unicode="&#x42e;" horiz-adv-x="1812" 
d="M1202 1081q-236 1 -236 -417t236 -418q109 0 163 92t54 326t-54 326t-163 91zM1216 1358q230 0 375 -168t145 -529t-144 -527q-146 -166 -376 -165q-230 0 -369 132q-140 132 -171 413h-211v-514h-301v1325h301v-524h209q29 287 171 422q141 135 371 135z" />
    <glyph glyph-name="afii10049" unicode="&#x42f;" horiz-adv-x="1181" 
d="M614 741h103v328h-105q-98 0 -141 -39t-43 -127t47 -125t139 -37zM612 1325h406v-1325h-301v489h-49q-45 0 -71 -8q-25 -8 -47 -40q-22 -33 -31 -57t-61 -184t-71 -200h-344q51 79 75 144q23 65 66 196t79 186t95 78q-244 63 -243 311q0 229 130 319t367 91z" />
    <glyph glyph-name="afii10065" unicode="&#x430;" horiz-adv-x="1019" 
d="M451 197q73 0 113 61t42 152q-29 2 -67 2q-188 0 -189 -123q1 -92 101 -92zM465 1044q195 0 315 -93t121 -289v-662h-283v111q-80 -141 -256 -142q-145 0 -227 83t-82 214q0 164 119 257t354 93q55 0 84 -2v33q-2 78 -48 107q-46 28 -158 28t-240 -51l-41 262
q147 51 342 51z" />
    <glyph glyph-name="afii10066" unicode="&#x431;" horiz-adv-x="1046" 
d="M523 780q-77 0 -111 -59t-35 -219q0 -160 36 -230q37 -70 111 -70t111 70t37 229t-36 219t-113 60zM597 1014q200 0 292 -126t92 -389t-120 -397t-339 -133q-459 0 -459 686q1 255 49 401t138 225t199 109t259 44t201 24v-237q-81 -19 -191 -27t-182 -24t-124 -60
q-90 -82 -97 -231q82 135 282 135z" />
    <glyph glyph-name="afii10067" unicode="&#x432;" horiz-adv-x="1079" 
d="M131 1014h393q230 0 336 -54t107 -206q0 -180 -195 -236q113 -18 172 -72t60 -155q0 -159 -110 -225t-364 -66h-399v1014zM434 823v-221h94q125 0 125 115q0 63 -32 85q-33 22 -103 21h-84zM434 420v-230h96q80 0 111 29t31 90t-30 86t-112 25h-96z" />
    <glyph glyph-name="afii10068" unicode="&#x433;" horiz-adv-x="802" 
d="M131 1014h625v-258h-322v-756h-303v1014z" />
    <glyph glyph-name="afii10069" unicode="&#x434;" horiz-adv-x="1165" 
d="M713 256v522h-197l-10 -200q-6 -217 -57 -322h264zM1018 1014v-758h104l-10 -510h-244l-12 254h-518l-12 -254h-246l-6 510h94q68 109 78 328l18 430h754z" />
    <glyph glyph-name="afii10070" unicode="&#x435;" horiz-adv-x="1024" 
d="M975 604v-201h-602q37 -174 235 -174q154 0 269 62l53 -256q-138 -66 -354 -66q-216 1 -364 141t-148 392t125 396q126 146 343 146t330 -116t113 -324zM684 608q0 188 -158 189q-68 -1 -110 -49t-43 -140h311z" />
    <glyph glyph-name="afii10072" unicode="&#x436;" horiz-adv-x="1568" 
d="M936 393v-393h-303v393h-66q-61 1 -88 -27t-65 -163t-68 -203h-326q53 100 144 362q31 92 73 146t121 74l-331 432h348l227 -393h31v393h303v-393h33l227 393h348l-334 -432q80 -20 121 -72t76 -148q78 -236 141 -362h-325q-29 66 -68 202t-65 164q-27 28 -86 27h-68z
" />
    <glyph glyph-name="afii10073" unicode="&#x437;" horiz-adv-x="948" 
d="M864 743q0 -98 -55 -160t-139 -85q90 -16 149 -72t60 -158q0 -150 -110 -224t-292 -75q-250 0 -407 92l28 222q52 -37 142 -62t166 -24q147 0 147 102q0 94 -133 94h-184v199h192q68 0 100 35t31 88q0 53 -31 79t-75 25q-119 0 -119 -129q-230 21 -266 27q0 160 99 244
t288 83q409 0 409 -301z" />
    <glyph glyph-name="afii10074" unicode="&#x438;" horiz-adv-x="1146" 
d="M1016 1014v-1014h-305v545l-277 -545h-303v1014h303v-590l277 590h305z" />
    <glyph glyph-name="afii10075" unicode="&#x439;" horiz-adv-x="1146" 
d="M1016 1014v-1014h-305v545l-277 -545h-303v1014h303v-590l277 590h305zM604 1319q49 0 82 42t25 120h213q-10 -342 -320 -342t-319 342h211q-6 -78 26 -120t82 -42z" />
    <glyph glyph-name="afii10076" unicode="&#x43a;" horiz-adv-x="1103" 
d="M131 1014h303v-391h39l246 391h346l-330 -432q92 -20 136 -84q45 -64 103 -242t99 -256h-328q-29 57 -96 254q-31 80 -60 110q-30 30 -87 29h-68v-393h-303v1014z" />
    <glyph glyph-name="afii10077" unicode="&#x43b;" horiz-adv-x="1110" 
d="M979 1014v-1014h-305v756h-211l-19 -363q-10 -221 -105 -305t-308 -88v258q71 8 103 47t36 150l23 559h786z" />
    <glyph glyph-name="afii10078" unicode="&#x43c;" horiz-adv-x="1474" 
d="M866 78h-258l-184 561l-57 -639h-285l98 1014h338l221 -639l217 639h336l101 -1014h-287l-57 637z" />
    <glyph glyph-name="afii10079" unicode="&#x43d;" horiz-adv-x="1130" 
d="M694 0v393h-260v-393h-303v1014h303v-367h260v367h305v-1014h-305z" />
    <glyph glyph-name="afii10080" unicode="&#x43e;" horiz-adv-x="1058" 
d="M694 507q0 275 -166 275t-166 -275t166 -276q166 1 166 276zM993 508q0 -254 -130 -396t-335 -142q-204 0 -334 142t-131 396q1 254 131 395t334 141t335 -141q130 -141 130 -395z" />
    <glyph glyph-name="afii10081" unicode="&#x43f;" horiz-adv-x="1130" 
d="M694 0v756h-260v-756h-303v1014h868v-1014h-305z" />
    <glyph glyph-name="afii10082" unicode="&#x440;" horiz-adv-x="1112" 
d="M410 639v-377q45 -31 129 -31t135 65t51 181q1 116 -23 182q-44 125 -151 123q-65 0 -103 -38t-38 -105zM1024 508q0 -258 -124 -398t-322 -141q-100 0 -168 33v-393h-291v1020q0 197 129 307q128 110 314 108q186 0 324 -139t138 -397z" />
    <glyph glyph-name="afii10083" unicode="&#x441;" horiz-adv-x="917" 
d="M47 509q0 263 144 399t380 136q127 0 273 -40l-39 -265q-90 43 -193 43q-264 0 -264 -272q0 -142 73 -206t182 -64t216 45l53 -262q-133 -53 -284 -54q-231 1 -386 139t-155 401z" />
    <glyph glyph-name="afii10084" unicode="&#x442;" horiz-adv-x="911" 
d="M41 1014h829v-258h-262v-756h-305v756h-262v258z" />
    <glyph glyph-name="afii10085" unicode="&#x443;" horiz-adv-x="1136" 
d="M131 389v625h291v-606q0 -176 158 -177q63 0 120 25v758h293v-967q-1 -211 -117 -340t-354 -129t-403 105l86 254q137 -101 312 -101t181 174q-74 -31 -163 -30q-182 0 -293 108t-111 301z" />
    <glyph glyph-name="afii10086" unicode="&#x444;" horiz-adv-x="1452" 
d="M1077 505q0 142 -54 212t-163 88v-600q109 18 163 88t54 212zM373 505q0 -142 54 -212t163 -88v600q-109 -18 -163 -88t-54 -212zM860 -436h-270v418q-526 47 -527 522q0 477 527 528v348h270v-348q526 -51 526 -527t-526 -523v-418z" />
    <glyph glyph-name="afii10087" unicode="&#x445;" horiz-adv-x="1048" 
d="M10 0l336 526l-319 488h338l176 -283l159 283h336l-323 -498l325 -516h-338l-182 319l-168 -319h-340z" />
    <glyph glyph-name="afii10088" unicode="&#x446;" horiz-adv-x="1130" 
d="M694 250v764h305v-764h101l-13 -541h-245l-8 291h-703v1014h303v-764h260z" />
    <glyph glyph-name="afii10089" unicode="&#x447;" horiz-adv-x="1089" 
d="M653 0v362q-143 -68 -268 -67q-295 0 -295 321v398h303v-303q0 -115 125 -115q61 0 135 31v387h305v-1014h-305z" />
    <glyph glyph-name="afii10090" unicode="&#x448;" horiz-adv-x="1628" 
d="M1192 250v764h305v-1014h-1366v1014h303v-764h228v764h305v-764h225z" />
    <glyph glyph-name="afii10091" unicode="&#x449;" horiz-adv-x="1628" 
d="M1192 250v764h305v-764h100l-10 -541h-244l-14 291h-1198v1014h303v-764h228v764h305v-764h225z" />
    <glyph glyph-name="afii10092" unicode="&#x44a;" horiz-adv-x="1112" 
d="M537 223h92q77 0 111 33t34 109q0 145 -162 145q-38 0 -75 -6v-281zM629 0h-396v756h-202v258h506v-277q43 8 106 8q428 0 428 -370q1 -209 -117 -292t-325 -83z" />
    <glyph glyph-name="afii10093" unicode="&#x44b;" horiz-adv-x="1521" 
d="M434 223h90q78 0 113 33t35 109q0 145 -162 145q-39 0 -76 -6v-281zM524 0h-393v1014h303v-277q41 8 107 8q430 0 430 -370q0 -209 -119 -292t-328 -83zM1085 1014h306v-1014h-306v1014z" />
    <glyph glyph-name="afii10094" unicode="&#x44c;" horiz-adv-x="1011" 
d="M434 223h90q78 0 113 33t35 109q0 145 -162 145q-39 0 -76 -6v-281zM524 0h-393v1014h303v-277q41 8 107 8q430 0 430 -370q0 -209 -119 -292t-328 -83z" />
    <glyph glyph-name="afii10095" unicode="&#x44d;" horiz-adv-x="946" 
d="M436 1044q231 0 338 -121q106 -122 106 -409t-110 -416q-111 -129 -328 -129q-110 0 -190 28t-180 83l28 223q137 -98 281 -98q162 0 176 182h-373v213h379q-6 115 -35 159t-88 44q-100 0 -104 -127l-264 22q0 162 88 254t276 92z" />
    <glyph glyph-name="afii10096" unicode="&#x44e;" horiz-adv-x="1546" 
d="M1024 809q-76 0 -112 -70q-36 -69 -36 -233t36 -233t112 -69t111 70q35 68 35 231t-36 233q-34 70 -110 71zM1026 1044q455 0 455 -542q0 -266 -119 -400t-336 -133q-403 0 -453 424h-139v-393h-303v1014h303v-367h141q60 397 451 397z" />
    <glyph glyph-name="afii10097" unicode="&#x44f;" horiz-adv-x="1083" 
d="M647 569v244h-98q-72 0 -104 -28t-31 -89q0 -127 135 -127h98zM113 698q0 178 113 247q114 69 313 69h413v-1014h-305v365h-86q-53 0 -75 -35t-46 -123q-43 -133 -80 -207h-329q61 92 125 268q42 149 114 172q-68 28 -112 92t-45 166z" />
    <glyph glyph-name="uni0450" unicode="&#x450;" horiz-adv-x="1024" 
d="M137 1481h359l211 -332h-267zM975 604v-201h-602q37 -174 235 -174q154 0 269 62l53 -256q-138 -66 -354 -66q-216 1 -364 141t-148 392t125 396q126 146 343 146t330 -116t113 -324zM684 608q0 188 -158 189q-68 -1 -110 -49t-43 -140h311z" />
    <glyph glyph-name="afii10071" unicode="&#x451;" horiz-adv-x="1024" 
d="M569 1315q0 63 44 103t116 40t116 -40t44 -103t-44 -103t-116 -41q-72 1 -116 41t-44 103zM141 1315q0 63 44 103t116 40t116 -40t44 -103t-44 -103t-116 -41q-72 1 -116 41t-44 103zM975 604v-201h-602q37 -174 235 -174q154 0 269 62l53 -256q-138 -66 -354 -66
q-216 1 -364 141t-148 392t125 396q126 146 343 146t330 -116t113 -324zM684 608q0 188 -158 189q-68 -1 -110 -49t-43 -140h311z" />
    <glyph glyph-name="afii10099" unicode="&#x452;" horiz-adv-x="1118" 
d="M1020 721v-354q0 -385 -295 -566l-160 168q152 129 152 373v285q0 113 -125 112q-57 0 -135 -28v-711h-305v1139h-152v145h152v96l305 37v-133h315v-145h-315v-183q131 88 270 88q293 1 293 -323z" />
    <glyph glyph-name="afii10100" unicode="&#x453;" horiz-adv-x="806" 
d="M131 1014h625v-258h-322v-756h-303v1014zM481 1481h357l-301 -332h-269z" />
    <glyph glyph-name="afii10101" unicode="&#x454;" horiz-adv-x="944" 
d="M508 1044q188 0 276 -92t88 -254l-264 -22q-4 127 -104 127q-59 0 -88 -44t-35 -159h379v-213h-373q14 -182 176 -182q143 0 281 98l28 -223q-100 -55 -181 -83t-189 -28q-217 0 -328 129t-111 416q0 286 107 408t338 122z" />
    <glyph glyph-name="afii10102" unicode="&#x455;" horiz-adv-x="888" 
d="M827 295q-1 -158 -115 -242t-308 -84t-343 97l58 249q160 -94 303 -94q104 0 104 62q0 17 -8 27l-14 16q-6 6 -18 13t-19 12t-25 13t-27 13q-9 4 -29 14t-32 15q-154 72 -218 138t-64 185q0 164 124 240q124 75 301 75t314 -59l-53 -262q-136 68 -262 68t-125 -66
q-1 -23 23 -39t92 -45t100 -43q133 -66 187 -130t54 -173z" />
    <glyph glyph-name="afii10103" unicode="&#x456;" horiz-adv-x="552" 
d="M444 1295q0 -67 -47 -111t-123 -45q-76 1 -122 45t-46 111t46 113t122 46t123 -46t47 -113zM131 0v1014h291v-1014h-291z" />
    <glyph glyph-name="afii10104" unicode="&#x457;" horiz-adv-x="552" 
d="M131 0v1014h291v-1014h-291zM362 1315q0 63 44 103t116 40t116 -40t44 -103t-44 -103t-116 -41q-72 1 -116 41t-44 103zM-66 1315q0 63 44 103t116 40t116 -40t44 -103t-44 -103t-116 -41q-72 1 -116 41t-44 103z" />
    <glyph glyph-name="afii10105" unicode="&#x458;" horiz-adv-x="552" 
d="M282 1454q76 0 122 -46t46 -113t-46 -111t-122 -45q-76 1 -123 45q-46 44 -46 111t46 113t123 46zM131 -47v1061h291v-1067q0 -183 -95 -275t-239 -92t-240 43l39 250q68 -31 152 -31q92 0 92 111z" />
    <glyph glyph-name="afii10106" unicode="&#x459;" horiz-adv-x="1546" 
d="M971 223h88q79 0 113 33t34 109q0 145 -162 145q-36 0 -73 -6v-281zM971 1014v-277q43 8 106 8q428 0 428 -370q0 -209 -119 -292t-327 -83h-393v756h-203l-19 -363q-10 -221 -105 -305t-308 -88v258q71 8 103 47t36 150l23 559h778z" />
    <glyph glyph-name="afii10107" unicode="&#x45a;" horiz-adv-x="1558" 
d="M983 223h90q78 0 112 33t34 109q0 145 -162 145q-37 0 -74 -6v-281zM678 0v393h-244v-393h-303v1014h303v-363h244v363h305v-277q43 8 107 8q428 0 428 -370q0 -209 -118 -292t-327 -83h-395z" />
    <glyph glyph-name="afii10108" unicode="&#x45b;" 
d="M131 0v1141h-162v145h162v160h291v-160h321v-145h-321v-183q90 86 238 86t248 -101q99 -101 100 -290v-653h-291v623q0 160 -146 159q-150 0 -149 -159v-623h-291z" />
    <glyph glyph-name="afii10109" unicode="&#x45c;" horiz-adv-x="1103" 
d="M131 1014h303v-391h39l246 391h346l-330 -432q92 -20 136 -84q45 -64 103 -242t99 -256h-328q-29 57 -96 254q-31 80 -60 110q-30 30 -87 29h-68v-393h-303v1014zM618 1481h357l-301 -332h-268z" />
    <glyph glyph-name="uni045D" unicode="&#x45d;" horiz-adv-x="1146" 
d="M156 1481h358l211 -332h-266zM1016 1014v-1014h-305v545l-277 -545h-303v1014h303v-590l277 590h305z" />
    <glyph glyph-name="afii10110" unicode="&#x45e;" horiz-adv-x="1136" 
d="M561 1319q49 0 82 42t25 120h213q-11 -342 -321 -342t-318 342h211q-5 -78 27 -120t81 -42zM131 389v625h291v-606q0 -176 158 -177q63 0 120 25v758h293v-967q-1 -211 -117 -340t-354 -129t-403 105l86 254q137 -101 312 -101t181 174q-74 -31 -163 -30q-182 0 -293 108
t-111 301z" />
    <glyph glyph-name="afii10193" unicode="&#x45f;" horiz-adv-x="1130" 
d="M694 250v764h305v-1014h-299l-18 -291h-233l-15 291h-303v1014h303v-764h260z" />
    <glyph glyph-name="afii10146" unicode="&#x462;" horiz-adv-x="1210" 
d="M559 252h103q94 0 133 36t39 132t-46 130t-120 34q-72 0 -109 -4v-328zM662 0h-404v1012h-258v192h258v121h301v-121h352v-192h-352v-193l70 2q256 0 378 -85q121 -85 121 -307t-109 -326q-110 -103 -357 -103z" />
    <glyph glyph-name="afii10194" unicode="&#x463;" horiz-adv-x="1052" 
d="M475 223h92q76 0 111 34t35 108q0 145 -162 145q-39 0 -76 -6v-281zM0 899v207h172v274l303 37v-311h311v-207h-311v-162q43 8 109 8q428 0 428 -370q0 -209 -118 -292t-327 -83h-395v899h-172z" />
    <glyph glyph-name="afii10147" unicode="&#x472;" horiz-adv-x="1220" 
d="M608 1081q-195 0 -227 -284h440q-16 156 -69 220q-54 64 -144 64zM608 246q94 0 148 65q53 66 65 226h-440q28 -291 227 -291zM609 1358q243 0 389 -168t146 -529t-146 -527t-391 -165q-245 0 -389 166q-144 167 -144 527t146 528t389 168z" />
    <glyph glyph-name="afii10195" unicode="&#x473;" horiz-adv-x="1042" 
d="M520 205q61 0 96 45t46 149h-285q22 -194 143 -194zM520 803q-63 0 -98 -47t-47 -154h287q-17 201 -142 201zM520 1044q457 0 457 -535q0 -271 -119 -405t-338 -135q-457 -1 -457 537t457 538z" />
    <glyph glyph-name="afii10148" unicode="&#x474;" horiz-adv-x="1355" 
d="M504 0l-494 1325h330l352 -963l348 963h306l-500 -1325h-342z" />
    <glyph glyph-name="afii10196" unicode="&#x475;" horiz-adv-x="995" 
d="M346 0l-336 1014h309l199 -715l184 715h283l-293 -1014h-346z" />
    <glyph glyph-name="afii10050" unicode="&#x490;" horiz-adv-x="1038" 
d="M164 1325h532l33 268h248v-538h-512v-1055h-301v1325z" />
    <glyph glyph-name="afii10098" unicode="&#x491;" horiz-adv-x="845" 
d="M434 756v-756h-303v1014h430l10 209h224v-467h-361z" />
    <glyph glyph-name="Wgrave" unicode="&#x1e80;" horiz-adv-x="1957" 
d="M575 1792h359l211 -332h-266zM1231 0l-252 858l-240 -858h-336l-383 1325h334l232 -915l262 915h303l268 -913l213 913h303l-366 -1325h-338z" />
    <glyph glyph-name="wgrave" unicode="&#x1e81;" horiz-adv-x="1654" 
d="M389 1481h359l210 -332h-266zM541 -31q-176 0 -303 110t-127 306v629h290v-639q0 -68 37 -106t103 -38q65 0 103 38t38 106v639h291v-639q0 -68 38 -106q37 -38 103 -38t103 38t36 106v639h291v-629q0 -197 -127 -307t-305 -109q-178 0 -285 117q-110 -117 -286 -117z
" />
    <glyph glyph-name="Wacute" unicode="&#x1e82;" horiz-adv-x="1957" 
d="M1073 1792h357l-302 -332h-268zM1231 0l-252 858l-240 -858h-336l-383 1325h334l232 -915l262 915h303l268 -913l213 913h303l-366 -1325h-338z" />
    <glyph glyph-name="wacute" unicode="&#x1e83;" horiz-adv-x="1654" 
d="M897 1481h356l-301 -332h-268zM541 -31q-176 0 -303 110t-127 306v629h290v-639q0 -68 37 -106t103 -38q65 0 103 38t38 106v639h291v-639q0 -68 38 -106q37 -38 103 -38t103 38t36 106v639h291v-629q0 -197 -127 -307t-305 -109q-178 0 -285 117q-110 -117 -286 -117z
" />
    <glyph glyph-name="Wdieresis" unicode="&#x1e84;" horiz-adv-x="1957" 
d="M1032 1626q0 64 44 104t116 40t116 -40t44 -104t-44 -103q-44 -40 -116 -40t-116 40t-44 103zM604 1626q0 64 44 104t116 40t116 -40t44 -104t-44 -103q-44 -40 -116 -40t-116 40t-44 103zM1231 0l-252 858l-240 -858h-336l-383 1325h334l232 -915l262 915h303l268 -913
l213 913h303l-366 -1325h-338z" />
    <glyph glyph-name="wdieresis" unicode="&#x1e85;" horiz-adv-x="1654" 
d="M881 1315q0 63 44 103q43 40 115 40t116 -40t44 -103t-44 -103t-116 -41q-72 1 -116 41t-43 103zM453 1315q0 63 44 103q43 40 115 40t116 -40t44 -103t-44 -103t-116 -41q-72 1 -116 41t-43 103zM541 -31q-176 0 -303 110t-127 306v629h290v-639q0 -68 37 -106t103 -38
q65 0 103 38t38 106v639h291v-639q0 -68 38 -106q37 -38 103 -38t103 38t36 106v639h291v-629q0 -197 -127 -307t-305 -109q-178 0 -285 117q-110 -117 -286 -117z" />
    <glyph glyph-name="Ygrave" unicode="&#x1ef2;" horiz-adv-x="1153" 
d="M176 1792h359l210 -332h-266zM420 0v494l-461 831h332l301 -532l289 532h313l-463 -836v-489h-311z" />
    <glyph glyph-name="ygrave" unicode="&#x1ef3;" horiz-adv-x="1136" 
d="M147 1481h359l211 -332h-266zM131 389v625h291v-606q0 -176 158 -177q63 0 120 25v758h293v-967q-1 -211 -117 -340t-354 -129t-403 105l86 254q137 -101 312 -101t181 174q-74 -31 -163 -30q-182 0 -293 108t-111 301z" />
    <glyph glyph-name="endash" unicode="&#x2013;" horiz-adv-x="1198" 
d="M117 688h962v-260h-962v260z" />
    <glyph glyph-name="emdash" unicode="&#x2014;" horiz-adv-x="1579" 
d="M117 688h1345v-260h-1345v260z" />
    <glyph glyph-name="quoteleft" unicode="&#x2018;" horiz-adv-x="471" 
d="M31 1024q0 188 123 362h286q-102 -127 -102 -284q0 -80 20 -197h-315q-12 61 -12 119z" />
    <glyph glyph-name="quoteright" unicode="&#x2019;" horiz-adv-x="471" 
d="M440 1268q0 -190 -123 -363h-286q102 127 102 285q0 79 -20 196h315q12 -61 12 -118z" />
    <glyph glyph-name="quotesinglbase" unicode="&#x201a;" horiz-adv-x="471" 
d="M440 31q0 -190 -123 -363h-286q102 127 102 285q0 80 -20 197h315q12 -61 12 -119z" />
    <glyph glyph-name="quotedblleft" unicode="&#x201c;" horiz-adv-x="880" 
d="M475 1024q0 188 123 362h287q-102 -127 -103 -284q1 -80 21 -197h-316q-12 61 -12 119zM-2 985q0 176 160 401h286q-133 -164 -133 -354q1 -55 11 -127h-316q-8 35 -8 80z" />
    <glyph glyph-name="quotedblright" unicode="&#x201d;" horiz-adv-x="880" 
d="M100 1190q0 82 -20 199h315q12 -61 13 -119q0 -193 -123 -365h-287q102 127 102 285zM885 1309q0 -178 -160 -404h-287q133 166 133 357q0 55 -10 127h316q8 -53 8 -80z" />
    <glyph glyph-name="quotedblbase" unicode="&#x201e;" horiz-adv-x="880" 
d="M100 -49q0 82 -20 199h315q12 -61 13 -121q0 -195 -123 -367h-287q102 127 102 289zM885 70q0 -182 -160 -408h-287q133 166 133 361q0 55 -10 127h316q8 -53 8 -80z" />
    <glyph glyph-name="dagger" unicode="&#x2020;" horiz-adv-x="819" 
d="M752 911h-209v-428h-264v428h-211v201h211v213h264v-213h209v-201z" />
    <glyph glyph-name="daggerdbl" unicode="&#x2021;" horiz-adv-x="819" 
d="M68 852h211v113h-211v200h211v160h264v-160h209v-200h-209v-113h209v-201h-209v-168h-264v168h-211v201z" />
    <glyph glyph-name="bullet" unicode="&#x2022;" horiz-adv-x="737" 
d="M369 260q-133 0 -216 75t-83 220t83 220t216 75t216 -75t83 -220t-83 -220t-216 -75z" />
    <glyph glyph-name="ellipsis" unicode="&#x2026;" horiz-adv-x="1622" 
d="M1544 141q0 -82 -46 -127t-129 -45t-130 45t-47 127t48 129t129 47t128 -47t47 -129zM987 141q0 -82 -46 -127t-129 -45t-130 45t-47 127t48 129t129 47t128 -47t47 -129zM430 141q0 -82 -46 -127t-129 -45t-130 45t-47 127t48 129t129 47t128 -47t47 -129z" />
    <glyph glyph-name="perthousand" unicode="&#x2030;" horiz-adv-x="2447" 
d="M1303 508q-45 0 -75 -40t-30 -130q0 -170 104 -170t105 170q1 90 -29 130t-75 40zM1303 -31q-139 1 -239 97t-99 272q0 176 99 272q98 96 238 96t239 -96t99 -272t-99 -272t-238 -97zM420 1159q-45 0 -75 -40t-30 -130q1 -170 105 -170t104 170q0 90 -29 130
q-30 40 -75 40zM420 621q-139 0 -239 96q-99 96 -99 272q0 177 99 273t239 96t238 -96q100 -96 100 -272t-100 -273q-100 -96 -238 -96zM1196 1325h227l-897 -1325h-227zM2052 508q-45 0 -75 -40t-29 -130q0 -170 104 -170t105 170q0 90 -30 130t-75 40zM2052 -31
q-139 1 -238 97t-100 272q0 176 100 272t238 96t238 -96t100 -272t-100 -272t-238 -97z" />
    <glyph glyph-name="guilsinglleft" unicode="&#x2039;" horiz-adv-x="655" 
d="M326 946h317l-291 -391l289 -393h-315l-314 393z" />
    <glyph glyph-name="guilsinglright" unicode="&#x203a;" horiz-adv-x="655" 
d="M12 946h318l313 -391l-313 -393h-316l289 393z" />
    <glyph glyph-name="fraction" unicode="&#x2044;" horiz-adv-x="1118" 
d="M891 1325h227l-891 -1325h-227z" />
    <glyph glyph-name="fraction" unicode="&#x2215;" horiz-adv-x="1118" 
d="M891 1325h227l-891 -1325h-227z" />
    <glyph glyph-name="Euro" unicode="&#x20ac;" 
d="M461 652q0 -38 6 -81h422l-41 -151h-348q41 -106 110 -148q70 -41 201 -41t244 56l53 -248q-137 -70 -347 -70t-372 120t-203 331h-155v151h129q-4 57 -4 89t4 83h-129v154h153q37 215 190 338q152 123 362 123t343 -66l-69 -254q-118 52 -236 52t-182 -42t-98 -151h477
l-41 -154h-465q-4 -53 -4 -91z" />
    <glyph glyph-name="trademark" unicode="&#x2122;" horiz-adv-x="1689" 
d="M961 713h-211v612h215l165 -235l166 235h217v-612h-213v295l-100 -150h-137l-102 150v-295zM68 1325h575v-192h-178v-420h-227v420h-170v192z" />
    <glyph glyph-name="product" unicode="&#x220f;" horiz-adv-x="1415" 
d="M164 0v1325h1087v-1325h-311v1061h-463v-1061h-313z" />
    <glyph glyph-name="summation" unicode="&#x2211;" 
d="M92 1325h899v-260h-483l323 -393l-335 -412h538v-260h-942v213l381 457l-381 440v215z" />
    <glyph glyph-name="minus" unicode="&#x2212;" horiz-adv-x="1132" 
d="M102 770h924v-238h-924v238z" />
    <glyph glyph-name="radical" unicode="&#x221a;" 
d="M2 1014h397l166 -652q262 922 273 959h278l-393 -1321h-317l-224 770h-180v244z" />
    <glyph glyph-name="infinity" unicode="&#x221e;" 
d="M879 653q0 41 -22 61t-42 21q-20 0 -41 -4t-37 -23q-16 -20 -20 -24q-3 -4 -13 -16t-10 -15q0 -2 9 -14t13 -16t14 -15q33 -37 85 -37q21 1 43 21t21 61zM312 735q-20 0 -43 -20q-21 -19 -21 -61t22 -62t48 -21q27 -1 41 8q13 9 21 14t16 15l14 14t13 17q9 12 11 14
q-2 3 -11 15t-27 30q-33 37 -84 37zM10 653q0 135 82 212t224 77t247 -125q105 125 247 125t224 -77t82 -212t-82 -212t-224 -77t-247 125q-105 -125 -247 -125t-224 78q-82 76 -82 211z" />
    <glyph glyph-name="integral" unicode="&#x222b;" horiz-adv-x="729" 
d="M143 -43v1135q0 387 351 387q137 0 241 -62l-82 -239q-61 41 -133 41q-94 0 -94 -119v-1135q0 -387 -340 -387q-121 0 -246 68l82 239q72 -47 133 -47q88 0 88 119z" />
    <glyph glyph-name="approxequal" unicode="&#x2248;" 
d="M756 299q-78 0 -213 50t-176 50q-82 0 -119 -106l-164 69q70 223 281 224q75 0 211 -50t176 -51q86 0 125 109l163 -70q-70 -225 -284 -225zM365 977q75 0 211 -50t176 -50q86 0 125 108l163 -70q-70 -225 -284 -225q-78 0 -213 50t-176 50q-81 1 -119 -106l-164 70
q70 223 281 223z" />
    <glyph glyph-name="notequal" unicode="&#x2260;" 
d="M100 299v242h320l94 231h-414v242h516l76 174h193l-76 -174h215v-242h-317l-97 -231h414v-242h-516l-76 -180h-192l75 180h-215z" />
    <glyph glyph-name="lessequal" unicode="&#x2264;" 
d="M102 821l924 332v-262l-612 -186l612 -187v-262l-924 332v233zM102 242h924v-242h-924v242z" />
    <glyph glyph-name="greaterequal" unicode="&#x2265;" 
d="M100 1153l924 -332v-233l-924 -332v262l613 187l-613 186v262zM100 242h924v-242h-924v242z" />
    <glyph glyph-name="lozenge" unicode="&#x25ca;" 
d="M563 260q212 377 230 412l-230 395l-229 -395zM1073 672l-389 -672h-244l-387 672l387 653h244z" />
    <glyph glyph-name="CR" horiz-adv-x="552" 
 />
    </font>
</defs>
</svg>
